<svg width="219" height="281" viewBox="0 0 219 281" fill="none" xmlns="http://www.w3.org/2000/svg">
<g opacity="0.2">
<path d="M-80.5777 43.0483C-92.5787 58.5988 -95.4988 82.129 -86.5945 110.662C-67.522 171.779 -1.423 232.707 61.0418 246.748C94.3358 254.232 119.877 246.885 133.584 229.137L127.957 236.426C114.252 254.184 88.7066 261.536 55.4046 254.05C-7.0602 240.009 -73.1593 179.081 -92.2317 117.965C-101.136 89.4311 -98.2159 65.9007 -86.2149 50.3503L-80.5777 43.0483Z" fill="url(#paint0_linear_1822_5926)"/>
<g filter="url(#filter0_bii_1822_5926)">
<circle cx="115.925" cy="115.925" r="115.925" transform="matrix(-0.297898 -0.954598 0.975655 0.219312 -52.0635 221.323)" fill="url(#paint1_linear_1822_5926)" fill-opacity="0.44"/>
</g>
<g filter="url(#filter1_dddddd_1822_5926)">
<path fill-rule="evenodd" clip-rule="evenodd" d="M-25.0905 94.5631C-27.6103 92.2405 -28.5659 89.1782 -27.2249 87.7234L-12.6565 71.9182C-12.0125 71.2196 -10.9142 70.9926 -9.60321 71.2873C-8.29221 71.582 -6.87589 72.3742 -5.66583 73.4896L21.7059 98.7197C21.7071 98.7208 21.7083 98.7219 21.7095 98.7231C21.7107 98.7242 21.7119 98.7253 21.7131 98.7264L94.7102 166.012C95.9203 167.128 96.825 168.475 97.2253 169.758L103.628 190.276C104.461 192.947 102.924 194.615 100.194 194.001L79.223 189.288C77.912 188.993 76.4956 188.201 75.2855 187.086L2.30589 119.816C2.29884 119.81 2.2918 119.803 2.28477 119.797C2.27773 119.79 2.27071 119.784 2.2637 119.777L-25.0905 94.5631ZM11.7035 118.734L78.2517 180.075L92.2326 183.218L87.9641 169.539L21.4159 108.197L11.7035 118.734ZM12.2908 99.7859L2.57843 110.323L-15.6718 93.5003L-5.95945 82.9635L12.2908 99.7859Z" fill="url(#paint2_linear_1822_5926)"/>
<path fill-rule="evenodd" clip-rule="evenodd" d="M-25.0905 94.5631C-27.6103 92.2405 -28.5659 89.1782 -27.2249 87.7234L-12.6565 71.9182C-12.0125 71.2196 -10.9142 70.9926 -9.60321 71.2873C-8.29221 71.582 -6.87589 72.3742 -5.66583 73.4896L21.7059 98.7197C21.7071 98.7208 21.7083 98.7219 21.7095 98.7231C21.7107 98.7242 21.7119 98.7253 21.7131 98.7264L94.7102 166.012C95.9203 167.128 96.825 168.475 97.2253 169.758L103.628 190.276C104.461 192.947 102.924 194.615 100.194 194.001L79.223 189.288C77.912 188.993 76.4956 188.201 75.2855 187.086L2.30589 119.816C2.29884 119.81 2.2918 119.803 2.28477 119.797C2.27773 119.79 2.27071 119.784 2.2637 119.777L-25.0905 94.5631ZM11.7035 118.734L78.2517 180.075L92.2326 183.218L87.9641 169.539L21.4159 108.197L11.7035 118.734ZM12.2908 99.7859L2.57843 110.323L-15.6718 93.5003L-5.95945 82.9635L12.2908 99.7859Z" fill="url(#paint3_radial_1822_5926)"/>
<path fill-rule="evenodd" clip-rule="evenodd" d="M-25.0905 94.5631C-27.6103 92.2405 -28.5659 89.1782 -27.2249 87.7234L-12.6565 71.9182C-12.0125 71.2196 -10.9142 70.9926 -9.60321 71.2873C-8.29221 71.582 -6.87589 72.3742 -5.66583 73.4896L21.7059 98.7197C21.7071 98.7208 21.7083 98.7219 21.7095 98.7231C21.7107 98.7242 21.7119 98.7253 21.7131 98.7264L94.7102 166.012C95.9203 167.128 96.825 168.475 97.2253 169.758L103.628 190.276C104.461 192.947 102.924 194.615 100.194 194.001L79.223 189.288C77.912 188.993 76.4956 188.201 75.2855 187.086L2.30589 119.816C2.29884 119.81 2.2918 119.803 2.28477 119.797C2.27773 119.79 2.27071 119.784 2.2637 119.777L-25.0905 94.5631ZM11.7035 118.734L78.2517 180.075L92.2326 183.218L87.9641 169.539L21.4159 108.197L11.7035 118.734ZM12.2908 99.7859L2.57843 110.323L-15.6718 93.5003L-5.95945 82.9635L12.2908 99.7859Z" stroke="white" stroke-linecap="round"/>
</g>
</g>
<defs>
<filter id="filter0_bii_1822_5926" x="-104.783" y="9.51562" width="262.577" height="253.14" filterUnits="userSpaceOnUse" color-interpolation-filters="sRGB">
<feFlood flood-opacity="0" result="BackgroundImageFix"/>
<feGaussianBlur in="BackgroundImageFix" stdDeviation="6.5"/>
<feComposite in2="SourceAlpha" operator="in" result="effect1_backgroundBlur_1822_5926"/>
<feBlend mode="normal" in="SourceGraphic" in2="effect1_backgroundBlur_1822_5926" result="shape"/>
<feColorMatrix in="SourceAlpha" type="matrix" values="0 0 0 0 0 0 0 0 0 0 0 0 0 0 0 0 0 0 127 0" result="hardAlpha"/>
<feOffset dx="-4"/>
<feGaussianBlur stdDeviation="14"/>
<feComposite in2="hardAlpha" operator="arithmetic" k2="-1" k3="1"/>
<feColorMatrix type="matrix" values="0 0 0 0 1 0 0 0 0 0.791667 0 0 0 0 0.888889 0 0 0 1 0"/>
<feBlend mode="normal" in2="shape" result="effect2_innerShadow_1822_5926"/>
<feColorMatrix in="SourceAlpha" type="matrix" values="0 0 0 0 0 0 0 0 0 0 0 0 0 0 0 0 0 0 127 0" result="hardAlpha"/>
<feOffset dx="-2" dy="2"/>
<feGaussianBlur stdDeviation="2"/>
<feComposite in2="hardAlpha" operator="arithmetic" k2="-1" k3="1"/>
<feColorMatrix type="matrix" values="0 0 0 0 1 0 0 0 0 0.729167 0 0 0 0 0.855556 0 0 0 1 0"/>
<feBlend mode="normal" in2="effect2_innerShadow_1822_5926" result="effect3_innerShadow_1822_5926"/>
</filter>
<filter id="filter1_dddddd_1822_5926" x="-55.3418" y="58.6719" width="159.707" height="147.946" filterUnits="userSpaceOnUse" color-interpolation-filters="sRGB">
<feFlood flood-opacity="0" result="BackgroundImageFix"/>
<feColorMatrix in="SourceAlpha" type="matrix" values="0 0 0 0 0 0 0 0 0 0 0 0 0 0 0 0 0 0 127 0" result="hardAlpha"/>
<feOffset dx="-15"/>
<feGaussianBlur stdDeviation="6"/>
<feComposite in2="hardAlpha" operator="out"/>
<feColorMatrix type="matrix" values="0 0 0 0 0.822222 0 0 0 0 0.171296 0 0 0 0 0.475062 0 0 0 0.7 0"/>
<feBlend mode="normal" in2="BackgroundImageFix" result="effect1_dropShadow_1822_5926"/>
<feColorMatrix in="SourceAlpha" type="matrix" values="0 0 0 0 0 0 0 0 0 0 0 0 0 0 0 0 0 0 127 0" result="hardAlpha"/>
<feOffset dx="-2" dy="-2"/>
<feComposite in2="hardAlpha" operator="out"/>
<feColorMatrix type="matrix" values="0 0 0 0 0.980392 0 0 0 0 0.67451 0 0 0 0 0.817255 0 0 0 1 0"/>
<feBlend mode="normal" in2="effect1_dropShadow_1822_5926" result="effect2_dropShadow_1822_5926"/>
<feColorMatrix in="SourceAlpha" type="matrix" values="0 0 0 0 0 0 0 0 0 0 0 0 0 0 0 0 0 0 127 0" result="hardAlpha"/>
<feOffset dx="-4" dy="-4"/>
<feComposite in2="hardAlpha" operator="out"/>
<feColorMatrix type="matrix" values="0 0 0 0 0.980392 0 0 0 0 0.67451 0 0 0 0 0.817255 0 0 0 1 0"/>
<feBlend mode="normal" in2="effect2_dropShadow_1822_5926" result="effect3_dropShadow_1822_5926"/>
<feColorMatrix in="SourceAlpha" type="matrix" values="0 0 0 0 0 0 0 0 0 0 0 0 0 0 0 0 0 0 127 0" result="hardAlpha"/>
<feOffset dx="-5" dy="-5"/>
<feComposite in2="hardAlpha" operator="out"/>
<feColorMatrix type="matrix" values="0 0 0 0 0.980392 0 0 0 0 0.67451 0 0 0 0 0.817255 0 0 0 1 0"/>
<feBlend mode="normal" in2="effect3_dropShadow_1822_5926" result="effect4_dropShadow_1822_5926"/>
<feColorMatrix in="SourceAlpha" type="matrix" values="0 0 0 0 0 0 0 0 0 0 0 0 0 0 0 0 0 0 127 0" result="hardAlpha"/>
<feOffset dx="-6" dy="-6"/>
<feComposite in2="hardAlpha" operator="out"/>
<feColorMatrix type="matrix" values="0 0 0 0 0.980392 0 0 0 0 0.67451 0 0 0 0 0.817255 0 0 0 1 0"/>
<feBlend mode="normal" in2="effect4_dropShadow_1822_5926" result="effect5_dropShadow_1822_5926"/>
<feColorMatrix in="SourceAlpha" type="matrix" values="0 0 0 0 0 0 0 0 0 0 0 0 0 0 0 0 0 0 127 0" result="hardAlpha"/>
<feOffset dx="-7" dy="-7"/>
<feComposite in2="hardAlpha" operator="out"/>
<feColorMatrix type="matrix" values="0 0 0 0 0.980556 0 0 0 0 0.674132 0 0 0 0 0.81713 0 0 0 1 0"/>
<feBlend mode="normal" in2="effect5_dropShadow_1822_5926" result="effect6_dropShadow_1822_5926"/>
<feBlend mode="normal" in="SourceGraphic" in2="effect6_dropShadow_1822_5926" result="shape"/>
</filter>
<linearGradient id="paint0_linear_1822_5926" x1="-95.2159" y1="69.7989" x2="129.613" y2="247.349" gradientUnits="userSpaceOnUse">
<stop stop-color="#F0529C"/>
<stop offset="0.424235" stop-color="#FFAFD5" stop-opacity="0.42"/>
<stop offset="0.62589" stop-color="#FE2F90" stop-opacity="0.28"/>
<stop offset="1" stop-color="#B20053"/>
</linearGradient>
<linearGradient id="paint1_linear_1822_5926" x1="190.672" y1="11.1887" x2="85.4002" y2="235.998" gradientUnits="userSpaceOnUse">
<stop stop-color="#F96FAF"/>
<stop offset="0.104179" stop-color="#FFFDFE"/>
<stop offset="0.377376" stop-color="#FFFDFE"/>
<stop offset="0.560167" stop-color="#D73882"/>
<stop offset="1" stop-color="#F7E3EC"/>
</linearGradient>
<linearGradient id="paint2_linear_1822_5926" x1="48.7738" y1="182.154" x2="-17.6803" y2="106.833" gradientUnits="userSpaceOnUse">
<stop stop-color="#FFD0E6"/>
<stop offset="1" stop-color="white"/>
</linearGradient>
<radialGradient id="paint3_radial_1822_5926" cx="0" cy="0" r="1" gradientUnits="userSpaceOnUse" gradientTransform="translate(205.031 307.727) rotate(-155.149) scale(169.252 146.577)">
<stop stop-color="#FF2C8E"/>
<stop offset="1" stop-color="#FF2C8E" stop-opacity="0"/>
</radialGradient>
</defs>
</svg>
