<svg width="379" height="582" viewBox="0 0 379 582" fill="none" xmlns="http://www.w3.org/2000/svg">
<g opacity="0.2">
<g filter="url(#filter0_ii_1822_5918)">
<path d="M127.196 50.8229C126.814 50.8878 126.436 50.9693 126.062 51.0674C123.163 51.8272 120.551 53.5686 118.376 56.1922C116.2 58.8158 114.503 62.2703 113.382 66.3583L47.9396 305.024C46.8185 309.111 46.2951 313.753 46.3995 318.683C46.5038 323.613 47.2336 328.736 48.5472 333.757C49.8607 338.779 51.7324 343.602 54.0555 347.95C56.3784 352.299 59.1073 356.089 62.086 359.102L243.546 542.689C246.524 545.702 249.695 547.881 252.876 549.101C255.646 550.163 258.377 550.48 260.951 550.042L260.957 550.041L374.912 530.632C375.107 530.599 375.301 530.561 375.493 530.52C375.678 530.479 375.863 530.435 376.047 530.387L373.76 530.777C371.53 530.96 369.198 530.595 366.837 529.69C363.656 528.471 360.486 526.292 357.507 523.278L176.048 339.692C173.069 336.678 170.34 332.888 168.017 328.54C165.694 324.191 163.822 319.368 162.509 314.347C161.195 309.325 160.466 304.203 160.361 299.273C160.257 294.342 160.78 289.701 161.901 285.613L227.344 46.9477C228.465 42.8597 230.162 39.4052 232.337 36.7816C234.513 34.1579 237.124 32.4165 240.023 31.6567C240.396 31.5592 240.772 31.4781 241.151 31.4134L127.196 50.8229Z" fill="url(#paint0_linear_1822_5918)"/>
<path d="M127.196 50.8229C126.814 50.8878 126.436 50.9693 126.062 51.0674C123.163 51.8272 120.551 53.5686 118.376 56.1922C116.2 58.8158 114.503 62.2703 113.382 66.3583L47.9396 305.024C46.8185 309.111 46.2951 313.753 46.3995 318.683C46.5038 323.613 47.2336 328.736 48.5472 333.757C49.8607 338.779 51.7324 343.602 54.0555 347.95C56.3784 352.299 59.1073 356.089 62.086 359.102L243.546 542.689C246.524 545.702 249.695 547.881 252.876 549.101C255.646 550.163 258.377 550.48 260.951 550.042L260.957 550.041L374.912 530.632C375.107 530.599 375.301 530.561 375.493 530.52C375.678 530.479 375.863 530.435 376.047 530.387L373.76 530.777C371.53 530.96 369.198 530.595 366.837 529.69C363.656 528.471 360.486 526.292 357.507 523.278L176.048 339.692C173.069 336.678 170.34 332.888 168.017 328.54C165.694 324.191 163.822 319.368 162.509 314.347C161.195 309.325 160.466 304.203 160.361 299.273C160.257 294.342 160.78 289.701 161.901 285.613L227.344 46.9477C228.465 42.8597 230.162 39.4052 232.337 36.7816C234.513 34.1579 237.124 32.4165 240.023 31.6567C240.396 31.5592 240.772 31.4781 241.151 31.4134L127.196 50.8229Z" fill="url(#paint1_linear_1822_5918)"/>
<path d="M127.196 50.8229C126.814 50.8878 126.436 50.9693 126.062 51.0674C123.163 51.8272 120.551 53.5686 118.376 56.1922C116.2 58.8158 114.503 62.2703 113.382 66.3583L47.9396 305.024C46.8185 309.111 46.2951 313.753 46.3995 318.683C46.5038 323.613 47.2336 328.736 48.5472 333.757C49.8607 338.779 51.7324 343.602 54.0555 347.95C56.3784 352.299 59.1073 356.089 62.086 359.102L243.546 542.689C246.524 545.702 249.695 547.881 252.876 549.101C255.646 550.163 258.377 550.48 260.951 550.042L260.957 550.041L374.912 530.632C375.107 530.599 375.301 530.561 375.493 530.52C375.678 530.479 375.863 530.435 376.047 530.387L373.76 530.777C371.53 530.96 369.198 530.595 366.837 529.69C363.656 528.471 360.486 526.292 357.507 523.278L176.048 339.692C173.069 336.678 170.34 332.888 168.017 328.54C165.694 324.191 163.822 319.368 162.509 314.347C161.195 309.325 160.466 304.203 160.361 299.273C160.257 294.342 160.78 289.701 161.901 285.613L227.344 46.9477C228.465 42.8597 230.162 39.4052 232.337 36.7816C234.513 34.1579 237.124 32.4165 240.023 31.6567C240.396 31.5592 240.772 31.4781 241.151 31.4134L127.196 50.8229Z" fill="url(#paint2_radial_1822_5918)"/>
</g>
<path d="M150.895 99.633C148.715 98.7969 146.565 98.5476 144.54 98.8921L258.502 79.4815C260.527 79.1371 262.676 79.3863 264.857 80.2223C267.36 81.1823 269.855 82.8972 272.2 85.269L324.309 137.989C326.655 140.363 329.153 142.08 331.659 143.04C332.495 143.36 333.327 143.594 334.149 143.742L372.706 137.174C375.211 138.135 377.707 139.85 380.052 142.223L426.21 188.923C430.945 193.713 434.778 200.888 436.866 208.87C438.954 216.852 439.126 224.986 437.344 231.484L374.642 460.154C373.76 463.372 372.424 466.091 370.712 468.156C369 470.22 366.944 471.591 364.663 472.189L250.701 491.599C252.983 491.001 255.038 489.631 256.75 487.566C258.462 485.501 259.798 482.782 260.68 479.565L323.382 250.895C325.164 244.397 324.992 236.262 322.904 228.281C320.816 220.299 316.983 213.124 312.249 208.334L266.09 161.634C264.106 159.627 262.015 158.09 259.902 157.083L224.053 163.189C222.027 163.534 219.877 163.286 217.697 162.45C215.191 161.491 212.694 159.774 210.347 157.4L158.238 104.68C155.894 102.308 153.398 100.593 150.895 99.633Z" fill="url(#paint3_linear_1822_5918)"/>
<path d="M265.829 162.602L265.829 162.602C263.576 160.323 261.179 158.674 258.773 157.752C256.367 156.83 254.001 156.651 251.808 157.226L251.808 157.226L225.265 164.183C222.892 164.807 220.33 164.615 217.726 163.617C215.121 162.62 212.525 160.836 210.086 158.368L157.977 105.648C155.725 103.369 153.328 101.722 150.923 100.8C148.518 99.8778 146.153 99.6988 143.961 100.273C141.769 100.848 139.795 102.164 138.15 104.148C136.505 106.131 135.222 108.743 134.375 111.834L82.8693 299.67C82.0217 302.761 81.6261 306.27 81.7049 309.998C81.7838 313.725 82.3355 317.598 83.3286 321.394C84.3218 325.191 85.7369 328.837 87.4931 332.125C89.2494 335.413 91.3124 338.278 93.5644 340.556L236.378 485.044C238.63 487.322 241.027 488.969 243.432 489.892C245.837 490.814 248.203 490.993 250.394 490.418C252.586 489.844 254.561 488.527 256.206 486.544C257.85 484.56 259.133 481.948 259.981 478.858L322.683 250.188C324.395 243.945 324.229 236.131 322.224 228.463C320.218 220.796 316.536 213.903 311.988 209.302L265.829 162.602Z" fill="url(#paint4_linear_1822_5918)" stroke="url(#paint5_linear_1822_5918)" stroke-width="2"/>
<g filter="url(#filter1_bii_1822_5918)">
<path d="M135.272 51.7664C132.502 50.7041 129.771 50.3874 127.197 50.825L241.159 31.4145C243.733 30.9767 246.464 31.2935 249.234 32.3558C252.415 33.5756 255.585 35.7545 258.564 38.7681L324.774 105.754C327.295 108.305 329.952 110.258 332.637 111.537L378.194 103.778C380.767 103.34 383.498 103.657 386.268 104.719C389.45 105.939 392.622 108.119 395.601 111.134L454.251 170.471C460.266 176.557 465.136 185.674 467.789 195.816C470.442 205.958 470.661 216.294 468.397 224.55L388.727 515.098C387.606 519.187 385.91 522.641 383.734 525.265C381.559 527.888 378.947 529.63 376.048 530.389L262.086 549.8C264.985 549.04 267.597 547.299 269.773 544.675C271.948 542.052 273.645 538.597 274.766 534.509L354.435 243.96C356.699 235.704 356.481 225.368 353.828 215.226C351.175 205.085 346.305 195.968 340.289 189.882L281.64 130.545C279.119 127.994 276.462 126.042 273.776 124.762L228.227 132.52C225.653 132.959 222.922 132.644 220.151 131.582C216.967 130.363 213.794 128.182 210.813 125.165L144.602 58.1788C141.624 55.1652 138.453 52.9862 135.272 51.7664Z" fill="url(#paint6_linear_1822_5918)" fill-opacity="0.3"/>
</g>
<g filter="url(#filter2_ddi_1822_5918)">
<path d="M234.252 260.9L146.422 172.04L160.847 169.583L248.678 258.443L242.07 282.542L227.645 284.999L234.252 260.9Z" fill="url(#paint7_linear_1822_5918)"/>
<path d="M263.529 290.52L245.963 272.748L260.389 270.291L277.955 288.063L271.347 312.162L256.921 314.619L263.529 290.52Z" fill="url(#paint8_linear_1822_5918)"/>
</g>
<g filter="url(#filter3_ddi_1822_5918)">
<path d="M216.631 325.164L128.8 236.304L143.226 233.847L231.056 322.707L224.448 346.806L210.023 349.263L216.631 325.164Z" fill="url(#paint9_linear_1822_5918)"/>
<path d="M228.342 337.012L245.908 354.784L239.3 378.883L253.725 376.426L260.333 352.327L242.767 334.555L228.342 337.012Z" fill="url(#paint10_linear_1822_5918)"/>
</g>
<g filter="url(#filter4_iii_1822_5918)">
<path d="M245.906 354.782L228.34 337.01L221.732 361.108L239.298 378.88L245.906 354.782Z" fill="#FDEEF5"/>
<path d="M216.629 325.162L128.799 236.302L122.191 260.4L210.021 349.26L216.629 325.162Z" fill="#FDEEF5"/>
<path d="M263.527 290.519L245.961 272.747L239.353 296.845L256.919 314.617L263.527 290.519Z" fill="#FDEEF5"/>
<path d="M234.25 260.899L146.42 172.039L139.812 196.137L227.643 284.997L234.25 260.899Z" fill="#FDEEF5"/>
</g>
</g>
<defs>
<filter id="filter0_ii_1822_5918" x="46.3862" y="31.4131" width="329.66" height="518.82" filterUnits="userSpaceOnUse" color-interpolation-filters="sRGB">
<feFlood flood-opacity="0" result="BackgroundImageFix"/>
<feBlend mode="normal" in="SourceGraphic" in2="BackgroundImageFix" result="shape"/>
<feColorMatrix in="SourceAlpha" type="matrix" values="0 0 0 0 0 0 0 0 0 0 0 0 0 0 0 0 0 0 127 0" result="hardAlpha"/>
<feOffset/>
<feGaussianBlur stdDeviation="36.5"/>
<feComposite in2="hardAlpha" operator="arithmetic" k2="-1" k3="1"/>
<feColorMatrix type="matrix" values="0 0 0 0 0.780556 0 0 0 0 0.465081 0 0 0 0 0.612303 0 0 0 1 0"/>
<feBlend mode="normal" in2="shape" result="effect1_innerShadow_1822_5918"/>
<feColorMatrix in="SourceAlpha" type="matrix" values="0 0 0 0 0 0 0 0 0 0 0 0 0 0 0 0 0 0 127 0" result="hardAlpha"/>
<feOffset/>
<feGaussianBlur stdDeviation="8"/>
<feComposite in2="hardAlpha" operator="arithmetic" k2="-1" k3="1"/>
<feColorMatrix type="matrix" values="0 0 0 0 1 0 0 0 0 0.895833 0 0 0 0 0.944444 0 0 0 1 0"/>
<feBlend mode="normal" in2="effect1_innerShadow_1822_5918" result="effect2_innerShadow_1822_5918"/>
</filter>
<filter id="filter1_bii_1822_5918" x="114.197" y="18.2236" width="368.753" height="544.576" filterUnits="userSpaceOnUse" color-interpolation-filters="sRGB">
<feFlood flood-opacity="0" result="BackgroundImageFix"/>
<feGaussianBlur in="BackgroundImageFix" stdDeviation="6.5"/>
<feComposite in2="SourceAlpha" operator="in" result="effect1_backgroundBlur_1822_5918"/>
<feBlend mode="normal" in="SourceGraphic" in2="effect1_backgroundBlur_1822_5918" result="shape"/>
<feColorMatrix in="SourceAlpha" type="matrix" values="0 0 0 0 0 0 0 0 0 0 0 0 0 0 0 0 0 0 127 0" result="hardAlpha"/>
<feOffset dx="-4"/>
<feGaussianBlur stdDeviation="14"/>
<feComposite in2="hardAlpha" operator="arithmetic" k2="-1" k3="1"/>
<feColorMatrix type="matrix" values="0 0 0 0 1 0 0 0 0 0.720833 0 0 0 0 0.851111 0 0 0 1 0"/>
<feBlend mode="normal" in2="shape" result="effect2_innerShadow_1822_5918"/>
<feColorMatrix in="SourceAlpha" type="matrix" values="0 0 0 0 0 0 0 0 0 0 0 0 0 0 0 0 0 0 127 0" result="hardAlpha"/>
<feOffset dx="-2" dy="-1"/>
<feGaussianBlur stdDeviation="2"/>
<feComposite in2="hardAlpha" operator="arithmetic" k2="-1" k3="1"/>
<feColorMatrix type="matrix" values="0 0 0 0 1 0 0 0 0 1 0 0 0 0 1 0 0 0 0.7 0"/>
<feBlend mode="normal" in2="effect2_innerShadow_1822_5918" result="effect3_innerShadow_1822_5918"/>
</filter>
<filter id="filter2_ddi_1822_5918" x="112.422" y="146.583" width="175.533" height="189.036" filterUnits="userSpaceOnUse" color-interpolation-filters="sRGB">
<feFlood flood-opacity="0" result="BackgroundImageFix"/>
<feColorMatrix in="SourceAlpha" type="matrix" values="0 0 0 0 0 0 0 0 0 0 0 0 0 0 0 0 0 0 127 0" result="hardAlpha"/>
<feOffset dx="-12" dy="-1"/>
<feGaussianBlur stdDeviation="11"/>
<feComposite in2="hardAlpha" operator="out"/>
<feColorMatrix type="matrix" values="0 0 0 0 0.760784 0 0 0 0 0.12549 0 0 0 0 0.421961 0 0 0 1 0"/>
<feBlend mode="normal" in2="BackgroundImageFix" result="effect1_dropShadow_1822_5918"/>
<feColorMatrix in="SourceAlpha" type="matrix" values="0 0 0 0 0 0 0 0 0 0 0 0 0 0 0 0 0 0 127 0" result="hardAlpha"/>
<feOffset dx="-12" dy="-1"/>
<feGaussianBlur stdDeviation="6"/>
<feComposite in2="hardAlpha" operator="out"/>
<feColorMatrix type="matrix" values="0 0 0 0 0.760784 0 0 0 0 0.12549 0 0 0 0 0.421961 0 0 0 1 0"/>
<feBlend mode="normal" in2="effect1_dropShadow_1822_5918" result="effect2_dropShadow_1822_5918"/>
<feBlend mode="normal" in="SourceGraphic" in2="effect2_dropShadow_1822_5918" result="shape"/>
<feColorMatrix in="SourceAlpha" type="matrix" values="0 0 0 0 0 0 0 0 0 0 0 0 0 0 0 0 0 0 127 0" result="hardAlpha"/>
<feOffset/>
<feGaussianBlur stdDeviation="1.5"/>
<feComposite in2="hardAlpha" operator="arithmetic" k2="-1" k3="1"/>
<feColorMatrix type="matrix" values="0 0 0 0 0.996078 0 0 0 0 0.929412 0 0 0 0 0.960523 0 0 0 1 0"/>
<feBlend mode="normal" in2="shape" result="effect3_innerShadow_1822_5918"/>
</filter>
<filter id="filter3_ddi_1822_5918" x="94.8003" y="210.847" width="175.533" height="189.036" filterUnits="userSpaceOnUse" color-interpolation-filters="sRGB">
<feFlood flood-opacity="0" result="BackgroundImageFix"/>
<feColorMatrix in="SourceAlpha" type="matrix" values="0 0 0 0 0 0 0 0 0 0 0 0 0 0 0 0 0 0 127 0" result="hardAlpha"/>
<feOffset dx="-12" dy="-1"/>
<feGaussianBlur stdDeviation="11"/>
<feComposite in2="hardAlpha" operator="out"/>
<feColorMatrix type="matrix" values="0 0 0 0 0.760784 0 0 0 0 0.12549 0 0 0 0 0.421961 0 0 0 1 0"/>
<feBlend mode="normal" in2="BackgroundImageFix" result="effect1_dropShadow_1822_5918"/>
<feColorMatrix in="SourceAlpha" type="matrix" values="0 0 0 0 0 0 0 0 0 0 0 0 0 0 0 0 0 0 127 0" result="hardAlpha"/>
<feOffset dx="-12" dy="-1"/>
<feGaussianBlur stdDeviation="6"/>
<feComposite in2="hardAlpha" operator="out"/>
<feColorMatrix type="matrix" values="0 0 0 0 0.760784 0 0 0 0 0.12549 0 0 0 0 0.421961 0 0 0 1 0"/>
<feBlend mode="normal" in2="effect1_dropShadow_1822_5918" result="effect2_dropShadow_1822_5918"/>
<feBlend mode="normal" in="SourceGraphic" in2="effect2_dropShadow_1822_5918" result="shape"/>
<feColorMatrix in="SourceAlpha" type="matrix" values="0 0 0 0 0 0 0 0 0 0 0 0 0 0 0 0 0 0 127 0" result="hardAlpha"/>
<feOffset/>
<feGaussianBlur stdDeviation="1.5"/>
<feComposite in2="hardAlpha" operator="arithmetic" k2="-1" k3="1"/>
<feColorMatrix type="matrix" values="0 0 0 0 0.996078 0 0 0 0 0.929412 0 0 0 0 0.960523 0 0 0 1 0"/>
<feBlend mode="normal" in2="shape" result="effect3_innerShadow_1822_5918"/>
</filter>
<filter id="filter4_iii_1822_5918" x="122.191" y="172.038" width="141.336" height="206.843" filterUnits="userSpaceOnUse" color-interpolation-filters="sRGB">
<feFlood flood-opacity="0" result="BackgroundImageFix"/>
<feBlend mode="normal" in="SourceGraphic" in2="BackgroundImageFix" result="shape"/>
<feColorMatrix in="SourceAlpha" type="matrix" values="0 0 0 0 0 0 0 0 0 0 0 0 0 0 0 0 0 0 127 0" result="hardAlpha"/>
<feOffset/>
<feGaussianBlur stdDeviation="2"/>
<feComposite in2="hardAlpha" operator="arithmetic" k2="-1" k3="1"/>
<feColorMatrix type="matrix" values="0 0 0 0 1 0 0 0 0 1 0 0 0 0 1 0 0 0 1 0"/>
<feBlend mode="normal" in2="shape" result="effect1_innerShadow_1822_5918"/>
<feColorMatrix in="SourceAlpha" type="matrix" values="0 0 0 0 0 0 0 0 0 0 0 0 0 0 0 0 0 0 127 0" result="hardAlpha"/>
<feOffset/>
<feGaussianBlur stdDeviation="2"/>
<feComposite in2="hardAlpha" operator="arithmetic" k2="-1" k3="1"/>
<feColorMatrix type="matrix" values="0 0 0 0 1 0 0 0 0 1 0 0 0 0 1 0 0 0 1 0"/>
<feBlend mode="normal" in2="effect1_innerShadow_1822_5918" result="effect2_innerShadow_1822_5918"/>
<feColorMatrix in="SourceAlpha" type="matrix" values="0 0 0 0 0 0 0 0 0 0 0 0 0 0 0 0 0 0 127 0" result="hardAlpha"/>
<feOffset/>
<feGaussianBlur stdDeviation="2"/>
<feComposite in2="hardAlpha" operator="arithmetic" k2="-1" k3="1"/>
<feColorMatrix type="matrix" values="0 0 0 0 1 0 0 0 0 1 0 0 0 0 1 0 0 0 1 0"/>
<feBlend mode="normal" in2="effect2_innerShadow_1822_5918" result="effect3_innerShadow_1822_5918"/>
</filter>
<linearGradient id="paint0_linear_1822_5918" x1="162.936" y1="49.2498" x2="346.144" y2="513.464" gradientUnits="userSpaceOnUse">
<stop stop-color="#FFC9E2"/>
<stop offset="1" stop-color="#FFCBE3"/>
</linearGradient>
<linearGradient id="paint1_linear_1822_5918" x1="266.706" y1="538.363" x2="245.545" y2="403.014" gradientUnits="userSpaceOnUse">
<stop stop-color="#FFE9F3"/>
<stop offset="1" stop-color="#FFE9F3" stop-opacity="0"/>
</linearGradient>
<radialGradient id="paint2_radial_1822_5918" cx="0" cy="0" r="1" gradientUnits="userSpaceOnUse" gradientTransform="translate(263.74 448.382) rotate(-158.774) scale(113.705 103.287)">
<stop offset="0.296875" stop-color="#B2306D"/>
<stop offset="1" stop-color="#B2306D" stop-opacity="0"/>
</radialGradient>
<linearGradient id="paint3_linear_1822_5918" x1="246.076" y1="76.0781" x2="315.231" y2="478.203" gradientUnits="userSpaceOnUse">
<stop stop-color="#9A0148"/>
<stop offset="0.0123967" stop-color="#CC2372"/>
<stop offset="0.0557071" stop-color="#F96AAD"/>
<stop offset="0.0939178" stop-color="#FFAFD5"/>
<stop offset="0.111384" stop-color="#FFAFD5"/>
<stop offset="0.150035" stop-color="#F96AAD"/>
<stop offset="0.189559" stop-color="#E55498"/>
<stop offset="0.203799" stop-color="#CC2372"/>
<stop offset="0.214842" stop-color="#F96AAD"/>
<stop offset="0.249694" stop-color="#FFAFD5"/>
<stop offset="0.264002" stop-color="#FFAFD5"/>
<stop offset="0.354562" stop-color="#F96AAD"/>
<stop offset="0.400427" stop-color="#F4368E"/>
<stop offset="0.45465" stop-color="#9E024B"/>
<stop offset="0.798237" stop-color="#9A0148"/>
<stop offset="0.969729" stop-color="#D0196E"/>
<stop offset="1" stop-color="#DA257A"/>
</linearGradient>
<linearGradient id="paint4_linear_1822_5918" x1="151.587" y1="45.7885" x2="41.839" y2="448.076" gradientUnits="userSpaceOnUse">
<stop stop-color="#FF499E"/>
<stop offset="1" stop-color="#AF115A"/>
</linearGradient>
<linearGradient id="paint5_linear_1822_5918" x1="240.845" y1="136.093" x2="63.5065" y2="311.378" gradientUnits="userSpaceOnUse">
<stop stop-color="#FFB7D8"/>
<stop offset="1" stop-color="#FFB7D9" stop-opacity="0"/>
</linearGradient>
<linearGradient id="paint6_linear_1822_5918" x1="198.369" y1="43.12" x2="339.269" y2="521.098" gradientUnits="userSpaceOnUse">
<stop stop-color="#FF9AC9"/>
<stop offset="0.104179" stop-color="#FFFDFE"/>
<stop offset="0.377376" stop-color="#FFFDFE"/>
<stop offset="0.560167" stop-color="#DC1974"/>
<stop offset="0.801352" stop-color="white"/>
<stop offset="1" stop-color="#FFE8F3"/>
</linearGradient>
<linearGradient id="paint7_linear_1822_5918" x1="163.848" y1="168.473" x2="195.166" y2="423.629" gradientUnits="userSpaceOnUse">
<stop offset="0.369574" stop-color="#E787B4"/>
<stop offset="0.397182" stop-color="#FFDAEB"/>
<stop offset="0.433923" stop-color="#E787B4"/>
<stop offset="0.492357" stop-color="#E787B4"/>
<stop offset="0.52007" stop-color="#FFDAEB"/>
<stop offset="0.551607" stop-color="#E787B4"/>
</linearGradient>
<linearGradient id="paint8_linear_1822_5918" x1="163.848" y1="168.473" x2="195.166" y2="423.629" gradientUnits="userSpaceOnUse">
<stop offset="0.369574" stop-color="#E787B4"/>
<stop offset="0.397182" stop-color="#FFDAEB"/>
<stop offset="0.433923" stop-color="#E787B4"/>
<stop offset="0.492357" stop-color="#E787B4"/>
<stop offset="0.52007" stop-color="#FFDAEB"/>
<stop offset="0.551607" stop-color="#E787B4"/>
</linearGradient>
<linearGradient id="paint9_linear_1822_5918" x1="146.227" y1="232.737" x2="177.545" y2="487.893" gradientUnits="userSpaceOnUse">
<stop offset="0.369574" stop-color="#E787B4"/>
<stop offset="0.397182" stop-color="#FFDAEB"/>
<stop offset="0.433923" stop-color="#E787B4"/>
<stop offset="0.492357" stop-color="#E787B4"/>
<stop offset="0.52007" stop-color="#FFDAEB"/>
<stop offset="0.551607" stop-color="#E787B4"/>
</linearGradient>
<linearGradient id="paint10_linear_1822_5918" x1="146.227" y1="232.737" x2="177.545" y2="487.893" gradientUnits="userSpaceOnUse">
<stop offset="0.369574" stop-color="#E787B4"/>
<stop offset="0.397182" stop-color="#FFDAEB"/>
<stop offset="0.433923" stop-color="#E787B4"/>
<stop offset="0.492357" stop-color="#E787B4"/>
<stop offset="0.52007" stop-color="#FFDAEB"/>
<stop offset="0.551607" stop-color="#E787B4"/>
</linearGradient>
</defs>
</svg>
