<svg width="30" height="30" viewBox="0 0 30 30" fill="none" xmlns="http://www.w3.org/2000/svg">
<path d="M17.5 12.5V21.25M12.5 12.5L12.5 21.25M5 7.5H25M22.5 7.5V22.25C22.5 23.6501 22.5003 24.3503 22.2278 24.885C21.9881 25.3554 21.6051 25.7378 21.1347 25.9775C20.6 26.25 19.9004 26.25 18.5002 26.25H11.5002C10.1001 26.25 9.39953 26.25 8.86475 25.9775C8.39434 25.7378 8.01217 25.3554 7.77248 24.885C7.5 24.3503 7.5 23.6501 7.5 22.25V7.5H22.5ZM20 7.5H10C10 6.33515 10 5.7527 10.1903 5.29327C10.444 4.6807 10.9304 4.19404 11.543 3.9403C12.0024 3.75 12.5851 3.75 13.75 3.75H16.25C17.4149 3.75 17.9973 3.75 18.4567 3.9403C19.0693 4.19404 19.5558 4.6807 19.8096 5.29327C19.9999 5.7527 20 6.33515 20 7.5Z" stroke="#FF5353" stroke-width="2" stroke-linecap="round" stroke-linejoin="round"/>
</svg>
