<svg width="157" height="141" viewBox="0 0 157 141" fill="none" xmlns="http://www.w3.org/2000/svg">
<g opacity="0.8">
<path d="M41.8552 29.0493C43.1667 23.4992 48.9607 20.0112 54.7964 21.2586L115.394 34.2114C121.23 35.4588 124.898 40.9692 123.586 46.5193L117.139 73.7998C115.828 79.3499 110.034 82.838 104.198 81.5906L43.6 68.6377C37.7643 67.3904 34.0968 61.8799 35.4083 56.3298L41.8552 29.0493Z" fill="#FF244A"/>
<g filter="url(#filter0_b_2073_3663)">
<path fill-rule="evenodd" clip-rule="evenodd" d="M63.6622 43.252H37.2451C28.2732 43.252 21 50.1691 21 58.7019V106.55C21 115.082 28.2732 122 37.2451 122H119.755C128.727 122 136 115.082 136 106.55V58.702C136 50.1692 128.727 43.252 119.755 43.252L93.3378 43.252C91.8611 49.7543 85.7788 54.6266 78.5 54.6266C71.2212 54.6266 65.1389 49.7543 63.6622 43.252Z" fill="url(#paint0_linear_2073_3663)" fill-opacity="0.3"/>
</g>
<g filter="url(#filter1_b_2073_3663)">
<path fill-rule="evenodd" clip-rule="evenodd" d="M63.4453 43.5095H37.2451C28.4227 43.5095 21.2708 50.3114 21.2708 58.7019V106.55C21.2708 114.94 28.4227 121.742 37.2451 121.742H119.755C128.577 121.742 135.729 114.94 135.729 106.55V58.702C135.729 50.3114 128.577 43.5095 119.755 43.5095H93.5547C91.9722 50.026 85.8329 54.8841 78.5 54.8841C71.167 54.8841 65.0277 50.026 63.4453 43.5095ZM63.6622 43.252H37.2451C28.2732 43.252 21 50.1691 21 58.7019V106.55C21 115.082 28.2732 122 37.2451 122H119.755C128.727 122 136 115.082 136 106.55V58.702C136 50.1692 128.727 43.252 119.755 43.252H93.3378C91.8611 49.7543 85.7788 54.6266 78.5 54.6266C71.2212 54.6266 65.1389 49.7543 63.6622 43.252Z" fill="url(#paint1_linear_2073_3663)"/>
<path fill-rule="evenodd" clip-rule="evenodd" d="M63.4453 43.5095H37.2451C28.4227 43.5095 21.2708 50.3114 21.2708 58.7019V106.55C21.2708 114.94 28.4227 121.742 37.2451 121.742H119.755C128.577 121.742 135.729 114.94 135.729 106.55V58.702C135.729 50.3114 128.577 43.5095 119.755 43.5095H93.5547C91.9722 50.026 85.8329 54.8841 78.5 54.8841C71.167 54.8841 65.0277 50.026 63.4453 43.5095ZM63.6622 43.252H37.2451C28.2732 43.252 21 50.1691 21 58.7019V106.55C21 115.082 28.2732 122 37.2451 122H119.755C128.727 122 136 115.082 136 106.55V58.702C136 50.1692 128.727 43.252 119.755 43.252H93.3378C91.8611 49.7543 85.7788 54.6266 78.5 54.6266C71.2212 54.6266 65.1389 49.7543 63.6622 43.252Z" fill="url(#paint2_radial_2073_3663)"/>
</g>
<ellipse cx="71.3584" cy="82.7056" rx="9.74704" ry="9.27" fill="white"/>
<ellipse cx="90.312" cy="87.3401" rx="4.87352" ry="4.635" fill="white"/>
</g>
<defs>
<filter id="filter0_b_2073_3663" x="-9" y="13.252" width="175" height="138.748" filterUnits="userSpaceOnUse" color-interpolation-filters="sRGB">
<feFlood flood-opacity="0" result="BackgroundImageFix"/>
<feGaussianBlur in="BackgroundImageFix" stdDeviation="15"/>
<feComposite in2="SourceAlpha" operator="in" result="effect1_backgroundBlur_2073_3663"/>
<feBlend mode="normal" in="SourceGraphic" in2="effect1_backgroundBlur_2073_3663" result="shape"/>
</filter>
<filter id="filter1_b_2073_3663" x="-9" y="13.252" width="175" height="138.748" filterUnits="userSpaceOnUse" color-interpolation-filters="sRGB">
<feFlood flood-opacity="0" result="BackgroundImageFix"/>
<feGaussianBlur in="BackgroundImageFix" stdDeviation="15"/>
<feComposite in2="SourceAlpha" operator="in" result="effect1_backgroundBlur_2073_3663"/>
<feBlend mode="normal" in="SourceGraphic" in2="effect1_backgroundBlur_2073_3663" result="shape"/>
</filter>
<linearGradient id="paint0_linear_2073_3663" x1="33.3063" y1="50.5174" x2="133.452" y2="126.243" gradientUnits="userSpaceOnUse">
<stop stop-color="#FFC9D2"/>
<stop offset="0.447036" stop-color="#FF244A" stop-opacity="0.955296"/>
<stop offset="1" stop-color="#FFF3F5" stop-opacity="0.9"/>
</linearGradient>
<linearGradient id="paint1_linear_2073_3663" x1="37.5498" y1="40.4395" x2="121.243" y2="111.801" gradientUnits="userSpaceOnUse">
<stop offset="0.188941" stop-color="#FFDBE1" stop-opacity="0.523483"/>
<stop offset="0.526042" stop-color="#FF244A"/>
<stop offset="1" stop-color="#FFEAEE" stop-opacity="0.1"/>
</linearGradient>
<radialGradient id="paint2_radial_2073_3663" cx="0" cy="0" r="1" gradientUnits="userSpaceOnUse" gradientTransform="translate(38.1863 119.422) rotate(-40.1953) scale(74.4434 122.676)">
<stop stop-color="white"/>
<stop offset="1" stop-color="white" stop-opacity="0"/>
</radialGradient>
</defs>
</svg>
