<svg width="25" height="25" viewBox="0 0 25 25" fill="none" xmlns="http://www.w3.org/2000/svg">
<path d="M23.4375 6.24993C23.4375 5.42113 23.1083 4.62627 22.5222 4.04022C21.9362 3.45417 21.1413 3.12493 20.3125 3.12493H19.5312V2.36565C19.5312 1.94524 19.208 1.5844 18.7876 1.56341C18.682 1.55832 18.5764 1.57473 18.4773 1.61164C18.3782 1.64856 18.2876 1.70521 18.2111 1.77816C18.1345 1.85112 18.0735 1.93886 18.0319 2.03606C17.9902 2.13327 17.9688 2.23792 17.9688 2.34368V3.12493H7.03125V2.36565C7.03125 1.94524 6.70801 1.5844 6.2876 1.56341C6.18197 1.55832 6.0764 1.57473 5.9773 1.61164C5.87819 1.64856 5.78762 1.70521 5.71106 1.77816C5.63449 1.85112 5.57354 1.93886 5.53189 2.03606C5.49024 2.13327 5.46876 2.23792 5.46875 2.34368V3.12493H4.6875C3.8587 3.12493 3.06384 3.45417 2.47779 4.04022C1.89174 4.62627 1.5625 5.42113 1.5625 6.24993V6.83587C1.5625 6.88767 1.58308 6.93735 1.61971 6.97397C1.65633 7.0106 1.70601 7.03118 1.75781 7.03118H23.2422C23.294 7.03118 23.3437 7.0106 23.3803 6.97397C23.4169 6.93735 23.4375 6.88767 23.4375 6.83587V6.24993ZM1.5625 20.3124C1.5625 21.1412 1.89174 21.9361 2.47779 22.5221C3.06384 23.1082 3.8587 23.4374 4.6875 23.4374H20.3125C21.1413 23.4374 21.9362 23.1082 22.5222 22.5221C23.1083 21.9361 23.4375 21.1412 23.4375 20.3124V8.74016C23.4375 8.70131 23.4221 8.66405 23.3946 8.63658C23.3671 8.60911 23.3299 8.59368 23.291 8.59368H1.70898C1.67013 8.59368 1.63288 8.60911 1.6054 8.63658C1.57793 8.66405 1.5625 8.70131 1.5625 8.74016V20.3124ZM18.3594 10.1562C18.5912 10.1562 18.8177 10.2249 19.0104 10.3537C19.2031 10.4824 19.3533 10.6655 19.442 10.8796C19.5307 11.0937 19.5539 11.3294 19.5087 11.5567C19.4635 11.784 19.3519 11.9928 19.188 12.1567C19.0241 12.3206 18.8153 12.4322 18.588 12.4774C18.3607 12.5226 18.1251 12.4994 17.9109 12.4107C17.6968 12.322 17.5138 12.1718 17.385 11.9791C17.2562 11.7864 17.1875 11.5598 17.1875 11.3281C17.1875 11.0173 17.311 10.7192 17.5307 10.4994C17.7505 10.2796 18.0486 10.1562 18.3594 10.1562ZM18.3594 14.0624C18.5912 14.0624 18.8177 14.1312 19.0104 14.2599C19.2031 14.3887 19.3533 14.5717 19.442 14.7858C19.5307 15 19.5539 15.2356 19.5087 15.4629C19.4635 15.6902 19.3519 15.8991 19.188 16.0629C19.0241 16.2268 18.8153 16.3384 18.588 16.3837C18.3607 16.4289 18.1251 16.4057 17.9109 16.317C17.6968 16.2283 17.5138 16.0781 17.385 15.8854C17.2562 15.6926 17.1875 15.4661 17.1875 15.2343C17.1875 14.9235 17.311 14.6254 17.5307 14.4057C17.7505 14.1859 18.0486 14.0624 18.3594 14.0624ZM14.4531 10.1562C14.6849 10.1562 14.9115 10.2249 15.1042 10.3537C15.2969 10.4824 15.4471 10.6655 15.5358 10.8796C15.6245 11.0937 15.6477 11.3294 15.6025 11.5567C15.5573 11.784 15.4457 11.9928 15.2818 12.1567C15.1179 12.3206 14.9091 12.4322 14.6817 12.4774C14.4544 12.5226 14.2188 12.4994 14.0047 12.4107C13.7905 12.322 13.6075 12.1718 13.4787 11.9791C13.35 11.7864 13.2812 11.5598 13.2812 11.3281C13.2812 11.0173 13.4047 10.7192 13.6245 10.4994C13.8443 10.2796 14.1423 10.1562 14.4531 10.1562ZM14.4531 14.0624C14.6849 14.0624 14.9115 14.1312 15.1042 14.2599C15.2969 14.3887 15.4471 14.5717 15.5358 14.7858C15.6245 15 15.6477 15.2356 15.6025 15.4629C15.5573 15.6902 15.4457 15.8991 15.2818 16.0629C15.1179 16.2268 14.9091 16.3384 14.6817 16.3837C14.4544 16.4289 14.2188 16.4057 14.0047 16.317C13.7905 16.2283 13.6075 16.0781 13.4787 15.8854C13.35 15.6926 13.2812 15.4661 13.2812 15.2343C13.2812 14.9235 13.4047 14.6254 13.6245 14.4057C13.8443 14.1859 14.1423 14.0624 14.4531 14.0624ZM14.4531 17.9687C14.6849 17.9687 14.9115 18.0374 15.1042 18.1662C15.2969 18.2949 15.4471 18.478 15.5358 18.6921C15.6245 18.9062 15.6477 19.1419 15.6025 19.3692C15.5573 19.5965 15.4457 19.8053 15.2818 19.9692C15.1179 20.1331 14.9091 20.2447 14.6817 20.2899C14.4544 20.3351 14.2188 20.3119 14.0047 20.2232C13.7905 20.1345 13.6075 19.9843 13.4787 19.7916C13.35 19.5989 13.2812 19.3723 13.2812 19.1406C13.2812 18.8298 13.4047 18.5317 13.6245 18.3119C13.8443 18.0921 14.1423 17.9687 14.4531 17.9687ZM10.5469 14.0624C10.7787 14.0624 11.0052 14.1312 11.1979 14.2599C11.3906 14.3887 11.5408 14.5717 11.6295 14.7858C11.7182 15 11.7415 15.2356 11.6962 15.4629C11.651 15.6902 11.5394 15.8991 11.3755 16.0629C11.2116 16.2268 11.0028 16.3384 10.7755 16.3837C10.5482 16.4289 10.3125 16.4057 10.0984 16.317C9.88429 16.2283 9.70126 16.0781 9.5725 15.8854C9.44373 15.6926 9.375 15.4661 9.375 15.2343C9.375 14.9235 9.49847 14.6254 9.71823 14.4057C9.938 14.1859 10.2361 14.0624 10.5469 14.0624ZM10.5469 17.9687C10.7787 17.9687 11.0052 18.0374 11.1979 18.1662C11.3906 18.2949 11.5408 18.478 11.6295 18.6921C11.7182 18.9062 11.7415 19.1419 11.6962 19.3692C11.651 19.5965 11.5394 19.8053 11.3755 19.9692C11.2116 20.1331 11.0028 20.2447 10.7755 20.2899C10.5482 20.3351 10.3125 20.3119 10.0984 20.2232C9.88429 20.1345 9.70126 19.9843 9.5725 19.7916C9.44373 19.5989 9.375 19.3723 9.375 19.1406C9.375 18.8298 9.49847 18.5317 9.71823 18.3119C9.938 18.0921 10.2361 17.9687 10.5469 17.9687ZM6.64062 14.0624C6.8724 14.0624 7.09897 14.1312 7.29168 14.2599C7.4844 14.3887 7.6346 14.5717 7.7233 14.7858C7.81199 15 7.8352 15.2356 7.78998 15.4629C7.74477 15.6902 7.63316 15.8991 7.46927 16.0629C7.30538 16.2268 7.09657 16.3384 6.86925 16.3837C6.64193 16.4289 6.4063 16.4057 6.19217 16.317C5.97804 16.2283 5.79501 16.0781 5.66625 15.8854C5.53748 15.6926 5.46875 15.4661 5.46875 15.2343C5.46875 14.9235 5.59222 14.6254 5.81198 14.4057C6.03175 14.1859 6.32982 14.0624 6.64062 14.0624ZM6.64062 17.9687C6.8724 17.9687 7.09897 18.0374 7.29168 18.1662C7.4844 18.2949 7.6346 18.478 7.7233 18.6921C7.81199 18.9062 7.8352 19.1419 7.78998 19.3692C7.74477 19.5965 7.63316 19.8053 7.46927 19.9692C7.30538 20.1331 7.09657 20.2447 6.86925 20.2899C6.64193 20.3351 6.4063 20.3119 6.19217 20.2232C5.97804 20.1345 5.79501 19.9843 5.66625 19.7916C5.53748 19.5989 5.46875 19.3723 5.46875 19.1406C5.46875 18.8298 5.59222 18.5317 5.81198 18.3119C6.03175 18.0921 6.32982 17.9687 6.64062 17.9687Z" fill="#FF244A"/>
</svg>
