<svg width="68" height="76" viewBox="0 0 68 76" fill="none" xmlns="http://www.w3.org/2000/svg">
<path d="M16.244 4.63415C16.244 2.07478 18.3582 0 20.9662 0C23.5743 0 25.6885 2.07478 25.6885 4.63415V13.9024C25.6885 16.4618 23.5743 18.5366 20.9662 18.5366C18.3582 18.5366 16.244 16.4618 16.244 13.9024V4.63415Z" fill="#FF244A"/>
<path d="M42.312 4.63415C42.312 2.07478 44.4262 0 47.0342 0C49.6422 0 51.7565 2.07478 51.7565 4.63415V13.9024C51.7565 16.4618 49.6422 18.5366 47.0342 18.5366C44.4262 18.5366 42.312 16.4618 42.312 13.9024V4.63415Z" fill="#FF244A"/>
<g filter="url(#filter0_b_1581_1578)">
<path d="M0 22.2437C0 15.0774 5.91979 9.26807 13.2222 9.26807H54.7778C62.0802 9.26807 68 15.0774 68 22.2437V63.0242C68 70.1904 62.0802 75.9998 54.7778 75.9998H13.2222C5.91979 75.9998 0 70.1904 0 63.0242V22.2437Z" fill="url(#paint0_linear_1581_1578)" fill-opacity="0.3"/>
</g>
<g filter="url(#filter1_b_1581_1578)">
<path fill-rule="evenodd" clip-rule="evenodd" d="M54.7778 9.6388H13.2222C6.12843 9.6388 0.377778 15.2822 0.377778 22.2437V63.0242C0.377778 69.9856 6.12843 75.6291 13.2222 75.6291H54.7778C61.8716 75.6291 67.6222 69.9856 67.6222 63.0242V22.2437C67.6222 15.2822 61.8716 9.6388 54.7778 9.6388ZM13.2222 9.26807C5.91979 9.26807 0 15.0774 0 22.2437V63.0242C0 70.1904 5.91979 75.9998 13.2222 75.9998H54.7778C62.0802 75.9998 68 70.1904 68 63.0242V22.2437C68 15.0774 62.0802 9.26807 54.7778 9.26807H13.2222Z" fill="url(#paint1_linear_1581_1578)"/>
<path fill-rule="evenodd" clip-rule="evenodd" d="M54.7778 9.6388H13.2222C6.12843 9.6388 0.377778 15.2822 0.377778 22.2437V63.0242C0.377778 69.9856 6.12843 75.6291 13.2222 75.6291H54.7778C61.8716 75.6291 67.6222 69.9856 67.6222 63.0242V22.2437C67.6222 15.2822 61.8716 9.6388 54.7778 9.6388ZM13.2222 9.26807C5.91979 9.26807 0 15.0774 0 22.2437V63.0242C0 70.1904 5.91979 75.9998 13.2222 75.9998H54.7778C62.0802 75.9998 68 70.1904 68 63.0242V22.2437C68 15.0774 62.0802 9.26807 54.7778 9.26807H13.2222Z" fill="url(#paint2_radial_1581_1578)"/>
</g>
<path d="M20.4211 36.2633C20.5904 34.0804 21.4487 32.3721 22.9961 31.1383C24.5435 29.9045 26.5502 29.2876 29.0163 29.2876C30.6604 29.2876 32.0748 29.5842 33.2595 30.1774C34.4684 30.7468 35.3751 31.5298 35.9795 32.5263C36.6082 33.5228 36.9225 34.6499 36.9225 35.9074C36.9225 37.3784 36.4873 38.6478 35.6169 39.7155C34.7707 40.7832 33.6585 41.4713 32.2803 41.7798V41.9577C33.8519 42.3374 35.0971 43.0848 36.0158 44.1999C36.9346 45.3151 37.3939 46.7743 37.3939 48.5775C37.3939 49.9299 37.0796 51.1519 36.451 52.2433C35.8224 53.311 34.8795 54.1533 33.6222 54.7702C32.365 55.3871 30.8539 55.6956 29.0889 55.6956C26.526 55.6956 24.4226 55.0431 22.7785 53.7381C21.1344 52.4094 20.2156 50.535 20.0222 48.1148H23.2137C23.3829 49.5385 23.9753 50.7011 24.9907 51.6027C26.0062 52.5043 27.3602 52.9551 29.0526 52.9551C30.7451 52.9551 32.0265 52.528 32.8969 51.6739C33.7915 50.796 34.2387 49.6689 34.2387 48.2928C34.2387 46.5133 33.6343 45.232 32.4254 44.449C31.2165 43.6661 29.3911 43.2746 26.9491 43.2746H26.115V40.5697H26.9854C29.2098 40.546 30.8901 40.1901 32.0265 39.502C33.1628 38.7902 33.731 37.6988 33.731 36.2277C33.731 34.9702 33.3079 33.9618 32.4617 33.2025C31.6396 32.4433 30.4549 32.0636 28.9075 32.0636C27.4085 32.0636 26.1996 32.4433 25.2809 33.2025C24.3621 33.9618 23.8181 34.982 23.6489 36.2633H20.4211Z" fill="white"/>
<path d="M40.9795 32.7399V29.7859H47.7977V55.5176H44.4611V32.7399H40.9795Z" fill="white"/>
<defs>
<filter id="filter0_b_1581_1578" x="-30" y="-20.7319" width="128" height="126.732" filterUnits="userSpaceOnUse" color-interpolation-filters="sRGB">
<feFlood flood-opacity="0" result="BackgroundImageFix"/>
<feGaussianBlur in="BackgroundImageFix" stdDeviation="15"/>
<feComposite in2="SourceAlpha" operator="in" result="effect1_backgroundBlur_1581_1578"/>
<feBlend mode="normal" in="SourceGraphic" in2="effect1_backgroundBlur_1581_1578" result="shape"/>
</filter>
<filter id="filter1_b_1581_1578" x="-30" y="-20.7319" width="128" height="126.732" filterUnits="userSpaceOnUse" color-interpolation-filters="sRGB">
<feFlood flood-opacity="0" result="BackgroundImageFix"/>
<feGaussianBlur in="BackgroundImageFix" stdDeviation="15"/>
<feComposite in2="SourceAlpha" operator="in" result="effect1_backgroundBlur_1581_1578"/>
<feBlend mode="normal" in="SourceGraphic" in2="effect1_backgroundBlur_1581_1578" result="shape"/>
</filter>
<linearGradient id="paint0_linear_1581_1578" x1="9.01205" y1="12.1275" x2="81.6601" y2="53.9233" gradientUnits="userSpaceOnUse">
<stop stop-color="#FFE4E9"/>
<stop offset="0.432964" stop-color="#FF244A"/>
<stop offset="0.864499" stop-color="#FF244A" stop-opacity="0.9"/>
</linearGradient>
<linearGradient id="paint1_linear_1581_1578" x1="9.78598" y1="6.88479" x2="72.9088" y2="44.4404" gradientUnits="userSpaceOnUse">
<stop offset="0.188941" stop-color="#FF244A" stop-opacity="0.3"/>
<stop offset="0.526042" stop-color="#FF244A" stop-opacity="0.5"/>
<stop offset="1" stop-color="#FF244A" stop-opacity="0.1"/>
</linearGradient>
<radialGradient id="paint2_radial_1581_1578" cx="0" cy="0" r="1" gradientUnits="userSpaceOnUse" gradientTransform="translate(10.1624 73.8151) rotate(-50.4486) scale(52.8034 86.6622)">
<stop stop-color="white"/>
<stop offset="1" stop-color="white" stop-opacity="0"/>
</radialGradient>
</defs>
</svg>
