<svg width="54" height="50" viewBox="0 0 54 50" fill="none" xmlns="http://www.w3.org/2000/svg">
<path d="M41.045 8.66222L41.1924 8.81423H41.4041H48.3504C51.0225 8.81423 53.2227 11.0615 53.2227 13.857V44.3425C53.2227 47.1381 51.0225 49.3854 48.3504 49.3854H5.37227C2.70022 49.3854 0.5 47.1381 0.5 44.3425V13.857C0.5 11.0615 2.70022 8.81423 5.37227 8.81423H12.3186H12.5303L12.6776 8.66222L19.949 1.16001L19.9496 1.15936C20.1529 0.948913 20.3936 0.782888 20.6575 0.670046C20.9214 0.557221 21.2037 0.499576 21.4883 0.500003H21.4891L32.2336 0.500003L32.2344 0.500002C32.519 0.499576 32.8013 0.557221 33.0652 0.670046C33.3291 0.782887 33.5698 0.948912 33.7731 1.15936L33.7737 1.16001L41.045 8.66222ZM32.2336 2.90353e-06H21.4891H32.2336Z" fill="white" stroke="#C7C7C7"/>
<circle cx="27.5282" cy="29.9784" r="9.99306" fill="white" stroke="#C7C7C7" stroke-width="3"/>
</svg>
