<svg width="343" height="281" viewBox="0 0 343 281" fill="none" xmlns="http://www.w3.org/2000/svg">
<g filter="url(#filter0_d_1581_1535)">
<mask id="path-1-inside-1_1581_1535" fill="white">
<path d="M258.272 31.1516C258.272 31.1516 258.03 28.5 258.272 31.0335C258.272 24.9733 254.227 20 249.092 20H54.056C35.2461 20 20 37.9914 20 60.1883V220.812C20 243.009 35.2461 261 54.056 261H288.944C307.754 261 323 243.009 323 220.812V107.193C323 100.436 318.305 95.0843 312.579 95.0962C312.539 95.0962 312.619 95.0962 312.579 95.0962C258.272 95.0962 258.272 56.5 258.272 31.1398V31.1516Z"/>
</mask>
<path d="M258.272 31.1516C258.272 31.1516 258.03 28.5 258.272 31.0335C258.272 24.9733 254.227 20 249.092 20H54.056C35.2461 20 20 37.9914 20 60.1883V220.812C20 243.009 35.2461 261 54.056 261H288.944C307.754 261 323 243.009 323 220.812V107.193C323 100.436 318.305 95.0843 312.579 95.0962C312.539 95.0962 312.619 95.0962 312.579 95.0962C258.272 95.0962 258.272 56.5 258.272 31.1398V31.1516Z" fill="white"/>
<path d="M258.272 31.1516L257.276 31.2424L259.272 31.1516H258.272ZM258.272 31.0335L257.276 31.1285L259.272 31.0335H258.272ZM258.272 31.1516C259.268 31.0608 259.268 31.0608 259.268 31.0608C259.268 31.0608 259.268 31.0608 259.268 31.0607C259.268 31.0606 259.267 31.0605 259.267 31.0604C259.267 31.06 259.267 31.0596 259.267 31.0589C259.267 31.0577 259.267 31.0558 259.267 31.0534C259.266 31.0484 259.266 31.0412 259.265 31.0318C259.263 31.0131 259.261 30.9859 259.258 30.9521C259.252 30.8847 259.243 30.7912 259.234 30.6869C259.215 30.4779 259.192 30.227 259.177 30.0555C259.17 29.9673 259.164 29.9073 259.163 29.8832C259.162 29.8747 259.163 29.8815 259.163 29.8935C259.163 29.8971 259.164 29.9068 259.164 29.9195C259.164 29.9259 259.164 29.9373 259.164 29.9517C259.164 29.9614 259.164 29.9944 259.159 30.0366C259.157 30.0602 259.147 30.1226 259.139 30.161C259.12 30.2331 259.015 30.4637 258.907 30.607C258.551 30.8594 257.764 30.8535 257.459 30.6467C257.368 30.5419 257.263 30.3702 257.238 30.3133C257.205 30.2329 257.191 30.1652 257.189 30.1598C257.185 30.1387 257.182 30.122 257.18 30.1143C257.174 30.0784 257.171 30.0476 257.173 30.0659C257.173 30.0687 257.174 30.0755 257.175 30.0878C257.186 30.1895 257.216 30.493 257.276 31.1285L259.267 30.9385C259.207 30.3072 259.176 29.9922 259.164 29.8785C259.164 29.8762 259.158 29.8116 259.149 29.7623C259.147 29.754 259.144 29.7369 259.139 29.7156C259.138 29.7099 259.124 29.642 259.091 29.5615C259.066 29.5045 258.961 29.3327 258.869 29.2279C258.565 29.0211 257.777 29.0152 257.422 29.2677C257.314 29.411 257.209 29.6416 257.19 29.7138C257.182 29.7523 257.172 29.8147 257.169 29.8384C257.165 29.8808 257.164 29.9141 257.164 29.9242C257.164 29.9389 257.164 29.9508 257.164 29.9576C257.165 29.9714 257.165 29.9824 257.165 29.9876C257.166 30.0062 257.168 30.0245 257.168 30.0319C257.171 30.0711 257.177 30.1445 257.185 30.2294C257.2 30.4042 257.223 30.6579 257.242 30.8669C257.251 30.9716 257.26 31.0654 257.266 31.1331C257.269 31.167 257.271 31.1943 257.273 31.2131C257.274 31.2225 257.275 31.2298 257.275 31.2348C257.275 31.2373 257.275 31.2392 257.276 31.2405C257.276 31.2411 257.276 31.2416 257.276 31.2419C257.276 31.2421 257.276 31.2422 257.276 31.2423C257.276 31.2423 257.276 31.2424 257.276 31.2424C257.276 31.2424 257.276 31.2424 258.272 31.1516ZM259.272 31.0335C259.272 24.6082 254.95 19 249.092 19V21C253.505 21 257.272 25.3384 257.272 31.0335H259.272ZM249.092 19H54.056V21H249.092V19ZM54.056 19C34.545 19 19 37.6007 19 60.1883H21C21 38.3821 35.9472 21 54.056 21V19ZM19 60.1883V220.812H21V60.1883H19ZM19 220.812C19 243.399 34.545 262 54.056 262V260C35.9472 260 21 242.618 21 220.812H19ZM54.056 262H288.944V260H54.056V262ZM288.944 262C308.455 262 324 243.399 324 220.812H322C322 242.618 307.053 260 288.944 260V262ZM324 220.812V107.193H322V220.812H324ZM324 107.193C324 100.024 318.988 94.0829 312.577 94.0962L312.581 96.0962C317.622 96.0858 322 100.847 322 107.193H324ZM312.579 94.0962C312.579 94.0962 312.579 94.0962 312.579 94.0962C312.579 94.0962 312.579 94.0962 312.579 94.0962C312.578 94.0962 312.578 94.0962 312.578 94.0962C312.578 94.0962 312.578 94.0962 312.578 94.0962C312.578 94.0962 312.578 94.0962 312.578 94.0962C312.578 94.0962 312.578 94.0962 312.578 94.0962C312.578 94.0962 312.578 94.0962 312.577 94.0962C312.577 94.0962 312.577 94.0962 312.577 94.0962C312.577 94.0962 312.577 94.0962 312.577 94.0962C312.577 94.0962 312.577 94.0962 312.577 94.0962C312.577 94.0962 312.577 94.0962 312.577 94.0962C312.577 94.0962 312.576 94.0962 312.576 94.0962C312.576 94.0962 312.576 94.0962 312.576 94.0962C312.576 94.0962 312.576 94.0962 312.576 94.0962C312.576 94.0962 312.576 94.0962 312.576 94.0962C312.576 94.0962 312.576 94.0962 312.576 94.0962C312.576 94.0962 312.576 94.0962 312.575 94.0962C312.575 94.0962 312.575 94.0962 312.575 94.0962C312.575 94.0962 312.575 94.0962 312.575 94.0962C312.575 94.0962 312.575 94.0962 312.575 94.0962C312.575 94.0962 312.575 94.0962 312.575 94.0962C312.575 94.0962 312.575 94.0962 312.575 94.0962C312.574 94.0962 312.574 94.0962 312.574 94.0962C312.574 94.0962 312.574 94.0962 312.574 94.0962C312.574 94.0962 312.574 94.0962 312.574 94.0962C312.574 94.0962 312.574 94.0962 312.574 94.0962C312.574 94.0962 312.574 94.0962 312.574 94.0962C312.574 94.0962 312.574 94.0962 312.574 94.0962C312.573 94.0962 312.573 94.0962 312.573 94.0962C312.573 94.0962 312.573 94.0962 312.573 94.0962C312.573 94.0962 312.573 94.0962 312.573 94.0962C312.573 94.0962 312.573 94.0962 312.573 94.0962C312.573 94.0962 312.573 94.0962 312.573 94.0962C312.573 94.0962 312.573 94.0962 312.573 94.0962C312.573 94.0962 312.572 94.0962 312.572 94.0962C312.572 94.0962 312.572 94.0962 312.572 94.0962C312.572 94.0962 312.572 94.0962 312.572 94.0962C312.572 94.0962 312.572 94.0962 312.572 94.0962C312.572 94.0962 312.572 94.0962 312.572 94.0962C312.572 94.0962 312.572 94.0962 312.572 94.0962C312.572 94.0962 312.572 94.0962 312.572 94.0962C312.572 94.0962 312.572 94.0962 312.571 94.0962C312.571 94.0962 312.571 94.0962 312.571 94.0962C312.571 94.0962 312.571 94.0962 312.571 94.0962C312.571 94.0962 312.571 94.0962 312.571 94.0962C312.571 94.0962 312.571 94.0962 312.571 94.0962C312.571 94.0962 312.571 94.0962 312.571 94.0962C312.571 94.0962 312.571 94.0962 312.571 94.0962C312.571 94.0962 312.571 94.0962 312.571 94.0962C312.571 94.0962 312.571 94.0962 312.571 94.0962C312.57 94.0962 312.57 94.0962 312.57 94.0962C312.57 94.0962 312.57 94.0962 312.57 94.0962C312.57 94.0962 312.57 94.0962 312.57 94.0962C312.57 94.0962 312.57 94.0962 312.57 94.0962C312.57 94.0962 312.57 94.0962 312.57 94.0962C312.57 94.0962 312.57 94.0962 312.57 94.0962C312.57 94.0962 312.57 94.0962 312.57 94.0962C312.57 94.0962 312.57 94.0962 312.57 94.0962C312.57 94.0962 312.57 94.0962 312.57 94.0962C312.57 94.0962 312.57 94.0962 312.57 94.0962C312.569 94.0962 312.569 94.0962 312.569 94.0962C312.569 94.0962 312.569 94.0962 312.569 94.0962C312.569 94.0962 312.569 94.0962 312.569 94.0962C312.569 94.0962 312.569 94.0962 312.569 94.0962C312.569 94.0962 312.569 94.0962 312.569 94.0962C312.569 94.0962 312.569 94.0962 312.569 94.0962C312.569 94.0962 312.569 94.0962 312.569 94.0962C312.569 94.0962 312.569 94.0962 312.569 94.0962C312.569 94.0962 312.569 94.0962 312.569 94.0962C312.569 94.0962 312.569 94.0962 312.569 94.0962C312.569 94.0962 312.569 94.0962 312.569 94.0962C312.569 94.0962 312.569 94.0962 312.569 94.0962C312.569 94.0962 312.569 94.0962 312.569 94.0962C312.569 94.0962 312.569 94.0962 312.568 94.0962C312.568 94.0962 312.568 94.0962 312.568 94.0962C312.568 94.0962 312.568 94.0962 312.568 94.0962C312.568 94.0962 312.568 94.0962 312.568 94.0962H312.568C312.568 94.0962 312.568 94.0962 312.568 94.0962C312.568 94.0962 312.568 94.0962 312.568 94.0962H312.568C312.568 94.0962 312.568 94.0962 312.568 94.0962H312.568C312.568 94.0962 312.568 94.0962 312.568 94.0962H312.568H312.568C312.568 94.0962 312.568 94.0962 312.568 94.0962C312.568 94.0962 312.568 94.0962 312.568 94.0962C312.568 94.0962 312.568 94.0962 312.568 94.0962C312.568 94.0962 312.568 94.0962 312.568 94.0962C312.568 94.0962 312.568 94.0962 312.568 94.0962C312.568 94.0962 312.568 94.0962 312.568 94.0962C312.568 94.0962 312.568 94.0962 312.568 94.0962C312.568 94.0962 312.568 94.0962 312.568 94.0962H312.568C312.568 94.0962 312.568 94.0962 312.568 94.0962C312.568 94.0962 312.568 94.0962 312.568 94.0962C312.568 94.0962 312.568 94.0962 312.568 94.0962C312.568 94.0962 312.568 94.0962 312.567 94.0962C312.567 95.0962 312.567 96.0962 312.567 96.0962H312.568C312.568 96.0962 312.568 96.0962 312.568 96.0962H312.568H312.568C312.568 96.0962 312.568 96.0962 312.568 96.0962C312.568 96.0962 312.568 96.0962 312.568 96.0962C312.568 96.0962 312.568 96.0962 312.568 96.0962C312.568 96.0962 312.568 96.0962 312.568 96.0962H312.568H312.568H312.568H312.568H312.568H312.568C312.568 96.0962 312.568 96.0962 312.568 96.0962C312.568 96.0962 312.568 96.0962 312.568 96.0962C312.568 96.0962 312.568 96.0962 312.568 96.0962H312.568C312.568 96.0962 312.568 96.0962 312.568 96.0962C312.568 96.0962 312.568 96.0962 312.568 96.0962H312.568C312.568 96.0962 312.568 96.0962 312.568 96.0962H312.568C312.568 96.0962 312.568 96.0962 312.568 96.0962H312.568C312.568 96.0962 312.568 96.0962 312.568 96.0962C312.568 96.0962 312.568 96.0962 312.568 96.0962H312.569C312.569 96.0962 312.569 96.0962 312.569 96.0962C312.569 96.0962 312.569 96.0962 312.569 96.0962C312.569 96.0962 312.569 96.0962 312.569 96.0962H312.569C312.569 96.0962 312.569 96.0962 312.569 96.0962C312.569 96.0962 312.569 96.0962 312.569 96.0962C312.569 96.0962 312.569 96.0962 312.569 96.0962C312.569 96.0962 312.569 96.0962 312.569 96.0962C312.569 96.0962 312.569 96.0962 312.569 96.0962C312.569 96.0962 312.569 96.0962 312.569 96.0962C312.569 96.0962 312.569 96.0962 312.569 96.0962C312.569 96.0962 312.569 96.0962 312.569 96.0962C312.569 96.0962 312.569 96.0962 312.569 96.0962C312.569 96.0962 312.569 96.0962 312.569 96.0962C312.569 96.0962 312.569 96.0962 312.569 96.0962C312.569 96.0962 312.569 96.0962 312.569 96.0962C312.57 96.0962 312.57 96.0962 312.57 96.0962C312.57 96.0962 312.57 96.0962 312.57 96.0962C312.57 96.0962 312.57 96.0962 312.57 96.0962C312.57 96.0962 312.57 96.0962 312.57 96.0962C312.57 96.0962 312.57 96.0962 312.57 96.0962C312.57 96.0962 312.57 96.0962 312.57 96.0962C312.57 96.0962 312.57 96.0962 312.57 96.0962C312.57 96.0962 312.57 96.0962 312.57 96.0962C312.57 96.0962 312.57 96.0962 312.57 96.0962C312.57 96.0962 312.57 96.0962 312.57 96.0962C312.57 96.0962 312.57 96.0962 312.57 96.0962C312.57 96.0962 312.57 96.0962 312.57 96.0962C312.57 96.0962 312.57 96.0962 312.57 96.0962C312.571 96.0962 312.571 96.0962 312.571 96.0962C312.571 96.0962 312.571 96.0962 312.571 96.0962C312.571 96.0962 312.571 96.0962 312.571 96.0962C312.571 96.0962 312.571 96.0962 312.571 96.0962C312.571 96.0962 312.571 96.0962 312.571 96.0962C312.571 96.0962 312.571 96.0962 312.571 96.0962C312.571 96.0962 312.571 96.0962 312.571 96.0962C312.571 96.0962 312.571 96.0962 312.571 96.0962C312.571 96.0962 312.571 96.0962 312.571 96.0962C312.571 96.0962 312.571 96.0962 312.571 96.0962C312.571 96.0962 312.571 96.0962 312.571 96.0962C312.571 96.0962 312.572 96.0962 312.572 96.0962C312.572 96.0962 312.572 96.0962 312.572 96.0962C312.572 96.0962 312.572 96.0962 312.572 96.0962C312.572 96.0962 312.572 96.0962 312.572 96.0962C312.572 96.0962 312.572 96.0962 312.572 96.0962C312.572 96.0962 312.572 96.0962 312.572 96.0962C312.572 96.0962 312.572 96.0962 312.572 96.0962C312.572 96.0962 312.572 96.0962 312.572 96.0962C312.572 96.0962 312.572 96.0962 312.572 96.0962C312.572 96.0962 312.572 96.0962 312.572 96.0962C312.572 96.0962 312.572 96.0962 312.572 96.0962C312.573 96.0962 312.573 96.0962 312.573 96.0962C312.573 96.0962 312.573 96.0962 312.573 96.0962C312.573 96.0962 312.573 96.0962 312.573 96.0962C312.573 96.0962 312.573 96.0962 312.573 96.0962C312.573 96.0962 312.573 96.0962 312.573 96.0962C312.573 96.0962 312.573 96.0962 312.573 96.0962C312.573 96.0962 312.573 96.0962 312.573 96.0962C312.573 96.0962 312.573 96.0962 312.573 96.0962C312.573 96.0962 312.573 96.0962 312.573 96.0962C312.573 96.0962 312.573 96.0962 312.574 96.0962C312.574 96.0962 312.574 96.0962 312.574 96.0962C312.574 96.0962 312.574 96.0962 312.574 96.0962C312.574 96.0962 312.574 96.0962 312.574 96.0962C312.574 96.0962 312.574 96.0962 312.574 96.0962C312.574 96.0962 312.574 96.0962 312.574 96.0962C312.574 96.0962 312.574 96.0962 312.574 96.0962C312.574 96.0962 312.574 96.0962 312.574 96.0962C312.574 96.0962 312.574 96.0962 312.574 96.0962C312.574 96.0962 312.574 96.0962 312.574 96.0962C312.574 96.0962 312.575 96.0962 312.575 96.0962C312.575 96.0962 312.575 96.0962 312.575 96.0962C312.575 96.0962 312.575 96.0962 312.575 96.0962C312.575 96.0962 312.575 96.0962 312.575 96.0962C312.575 96.0962 312.575 96.0962 312.575 96.0962C312.575 96.0962 312.575 96.0962 312.575 96.0962C312.575 96.0962 312.575 96.0962 312.575 96.0962C312.575 96.0962 312.575 96.0962 312.575 96.0962C312.575 96.0962 312.575 96.0962 312.575 96.0962C312.576 96.0962 312.576 96.0962 312.576 96.0962C312.576 96.0962 312.576 96.0962 312.576 96.0962C312.576 96.0962 312.576 96.0962 312.576 96.0962C312.576 96.0962 312.576 96.0962 312.576 96.0962C312.576 96.0962 312.576 96.0962 312.576 96.0962C312.576 96.0962 312.576 96.0962 312.576 96.0962C312.576 96.0962 312.576 96.0962 312.576 96.0962C312.576 96.0962 312.576 96.0962 312.576 96.0962C312.576 96.0962 312.576 96.0962 312.576 96.0962C312.577 96.0962 312.577 96.0962 312.577 96.0962C312.577 96.0962 312.577 96.0962 312.577 96.0962C312.577 96.0962 312.577 96.0962 312.577 96.0962C312.577 96.0962 312.577 96.0962 312.577 96.0962C312.577 96.0962 312.577 96.0962 312.577 96.0962C312.577 96.0962 312.577 96.0962 312.577 96.0962C312.577 96.0962 312.577 96.0962 312.577 96.0962C312.577 96.0962 312.577 96.0962 312.577 96.0962C312.577 96.0962 312.577 96.0962 312.578 96.0962C312.578 96.0962 312.578 96.0962 312.578 96.0962C312.578 96.0962 312.578 96.0962 312.578 96.0962C312.578 96.0962 312.578 96.0962 312.578 96.0962C312.578 96.0962 312.578 96.0962 312.578 96.0962C312.578 96.0962 312.578 96.0962 312.578 96.0962C312.578 96.0962 312.578 96.0962 312.578 96.0962C312.578 96.0962 312.578 96.0962 312.578 96.0962C312.578 96.0962 312.578 96.0962 312.578 96.0962C312.578 96.0962 312.579 96.0962 312.579 96.0962C312.579 96.0962 312.579 96.0962 312.579 96.0962C312.579 96.0962 312.579 96.0962 312.579 96.0962C312.579 96.0962 312.579 96.0962 312.579 96.0962C312.579 96.0962 312.579 96.0962 312.579 96.0962C312.579 96.0962 312.579 96.0962 312.579 96.0962C312.579 96.0962 312.579 96.0962 312.579 96.0962C312.579 96.0962 312.579 96.0962 312.579 96.0962C312.579 96.0962 312.579 96.0962 312.579 96.0962C312.58 96.0962 312.58 96.0962 312.58 96.0962C312.58 96.0962 312.58 96.0962 312.58 96.0962C312.58 96.0962 312.58 96.0962 312.58 96.0962C312.58 96.0962 312.58 96.0962 312.58 96.0962C312.58 96.0962 312.58 96.0962 312.58 96.0962C312.58 96.0962 312.58 96.0962 312.58 96.0962C312.58 96.0962 312.58 96.0962 312.58 96.0962C312.58 96.0962 312.58 96.0962 312.58 96.0962C312.58 96.0962 312.581 96.0962 312.581 96.0962C312.581 96.0962 312.581 96.0962 312.581 96.0962C312.581 96.0962 312.581 96.0962 312.581 96.0962C312.581 96.0962 312.581 96.0962 312.581 96.0962C312.581 96.0962 312.581 96.0962 312.581 96.0962C312.581 96.0962 312.581 96.0962 312.581 96.0962C312.581 96.0962 312.581 96.0962 312.581 96.0962C312.581 96.0962 312.581 96.0962 312.581 96.0962C312.581 96.0962 312.581 96.0962 312.581 96.0962C312.582 96.0962 312.582 96.0962 312.582 96.0962C312.582 96.0962 312.582 96.0962 312.582 96.0962C312.582 96.0962 312.582 96.0962 312.582 96.0962C312.582 96.0962 312.582 96.0962 312.582 96.0962C312.582 96.0962 312.582 96.0962 312.582 96.0962C312.582 96.0962 312.582 96.0962 312.582 96.0962C312.582 96.0962 312.582 96.0962 312.582 96.0962C312.582 96.0962 312.582 96.0962 312.582 96.0962C312.582 96.0962 312.582 96.0962 312.583 96.0962C312.583 96.0962 312.583 96.0962 312.583 96.0962C312.583 96.0962 312.583 96.0962 312.583 96.0962C312.583 96.0962 312.583 96.0962 312.583 96.0962C312.583 96.0962 312.583 96.0962 312.583 96.0962C312.583 96.0962 312.583 96.0962 312.583 96.0962C312.583 96.0962 312.583 96.0962 312.583 96.0962C312.583 96.0962 312.583 96.0962 312.583 96.0962C312.583 96.0962 312.583 96.0962 312.583 96.0962C312.583 96.0962 312.583 96.0962 312.583 96.0962C312.584 96.0962 312.584 96.0962 312.584 96.0962C312.584 96.0962 312.584 96.0962 312.584 96.0962C312.584 96.0962 312.584 96.0962 312.584 96.0962C312.584 96.0962 312.584 96.0962 312.584 96.0962C312.584 96.0962 312.584 96.0962 312.584 96.0962C312.584 96.0962 312.584 96.0962 312.584 96.0962C312.584 96.0962 312.584 96.0962 312.584 96.0962C312.584 96.0962 312.584 96.0962 312.584 96.0962C312.584 96.0962 312.584 96.0962 312.584 96.0962C312.585 96.0962 312.585 96.0962 312.585 96.0962C312.585 96.0962 312.585 96.0962 312.585 96.0962C312.585 96.0962 312.585 96.0962 312.585 96.0962C312.585 96.0962 312.585 96.0962 312.585 96.0962C312.585 96.0962 312.585 96.0962 312.585 96.0962C312.585 96.0962 312.585 96.0962 312.585 96.0962C312.585 96.0962 312.585 96.0962 312.585 96.0962C312.585 96.0962 312.585 96.0962 312.585 96.0962C312.585 96.0962 312.585 96.0962 312.585 96.0962C312.585 96.0962 312.585 96.0962 312.586 96.0962C312.586 96.0962 312.586 96.0962 312.586 96.0962C312.586 96.0962 312.586 96.0962 312.586 96.0962C312.586 96.0962 312.586 96.0962 312.586 96.0962C312.586 96.0962 312.586 96.0962 312.586 96.0962C312.586 96.0962 312.586 96.0962 312.586 96.0962C312.586 96.0962 312.586 96.0962 312.586 96.0962C312.586 96.0962 312.586 96.0962 312.586 96.0962C312.586 96.0962 312.586 96.0962 312.586 96.0962C312.586 96.0962 312.586 96.0962 312.586 96.0962C312.586 96.0962 312.586 96.0962 312.586 96.0962C312.586 96.0962 312.587 96.0962 312.587 96.0962C312.587 96.0962 312.587 96.0962 312.587 96.0962C312.587 96.0962 312.587 96.0962 312.587 96.0962C312.587 96.0962 312.587 96.0962 312.587 96.0962C312.587 96.0962 312.587 96.0962 312.587 96.0962C312.587 96.0962 312.587 96.0962 312.587 96.0962C312.587 96.0962 312.587 96.0962 312.587 96.0962C312.587 96.0962 312.587 96.0962 312.587 96.0962C312.587 96.0962 312.587 96.0962 312.587 96.0962C312.587 96.0962 312.587 96.0962 312.587 96.0962C312.587 96.0962 312.587 96.0962 312.587 96.0962C312.587 96.0962 312.587 96.0962 312.587 96.0962C312.588 96.0962 312.588 96.0962 312.588 96.0962C312.588 96.0962 312.588 96.0962 312.588 96.0962C312.588 96.0962 312.588 96.0962 312.588 96.0962C312.588 96.0962 312.588 96.0962 312.588 96.0962C312.588 96.0962 312.588 96.0962 312.588 96.0962C312.588 96.0962 312.588 96.0962 312.588 96.0962C312.588 96.0962 312.588 96.0962 312.588 96.0962C312.588 96.0962 312.588 96.0962 312.588 96.0962C312.588 96.0962 312.588 96.0962 312.588 96.0962C312.588 96.0962 312.588 96.0962 312.588 96.0962C312.588 96.0962 312.588 96.0962 312.588 96.0962C312.588 96.0962 312.588 96.0962 312.588 96.0962C312.588 96.0962 312.589 96.0962 312.589 96.0962C312.589 96.0962 312.589 96.0962 312.589 96.0962C312.589 96.0962 312.589 96.0962 312.589 96.0962C312.589 96.0962 312.589 96.0962 312.589 96.0962C312.589 96.0962 312.589 96.0962 312.589 96.0962C312.589 96.0962 312.589 96.0962 312.589 96.0962C312.589 96.0962 312.589 96.0962 312.589 96.0962C312.589 96.0962 312.589 96.0962 312.589 96.0962C312.589 96.0962 312.589 96.0962 312.589 96.0962C312.589 96.0962 312.589 96.0962 312.589 96.0962C312.589 96.0962 312.589 96.0962 312.589 96.0962C312.589 96.0962 312.589 96.0962 312.589 96.0962C312.589 96.0962 312.589 96.0962 312.589 96.0962C312.589 96.0962 312.589 96.0962 312.589 96.0962H312.589C312.589 96.0962 312.589 96.0962 312.589 96.0962C312.589 96.0962 312.589 96.0962 312.59 96.0962C312.59 96.0962 312.59 96.0962 312.59 96.0962H312.59C312.59 96.0962 312.59 96.0962 312.59 96.0962C312.59 96.0962 312.59 96.0962 312.59 96.0962H312.59C312.59 96.0962 312.59 96.0962 312.59 96.0962H312.59C312.59 96.0962 312.59 96.0962 312.59 96.0962H312.59C312.59 96.0962 312.59 96.0962 312.59 96.0962C312.59 96.0962 312.59 96.0962 312.59 96.0962H312.59C312.59 96.0962 312.59 96.0962 312.59 96.0962C312.59 96.0962 312.59 96.0962 312.59 96.0962C312.59 96.0962 312.59 96.0962 312.59 96.0962H312.59H312.59H312.59H312.59H312.59H312.59C312.59 96.0962 312.59 96.0962 312.59 96.0962C312.59 96.0962 312.59 96.0962 312.59 96.0962C312.59 96.0962 312.59 96.0962 312.59 96.0962C312.59 96.0962 312.59 96.0962 312.59 96.0962H312.591H312.591C312.591 96.0962 312.591 96.0962 312.591 96.0962H312.591C312.591 96.0962 312.591 95.0962 312.591 94.0962C312.591 94.0962 312.591 94.0962 312.591 94.0962C312.591 94.0962 312.591 94.0962 312.591 94.0962C312.591 94.0962 312.591 94.0962 312.591 94.0962C312.591 94.0962 312.591 94.0962 312.59 94.0962H312.59C312.59 94.0962 312.59 94.0962 312.59 94.0962C312.59 94.0962 312.59 94.0962 312.59 94.0962C312.59 94.0962 312.59 94.0962 312.59 94.0962C312.59 94.0962 312.59 94.0962 312.59 94.0962C312.59 94.0962 312.59 94.0962 312.59 94.0962C312.59 94.0962 312.59 94.0962 312.59 94.0962C312.59 94.0962 312.59 94.0962 312.59 94.0962C312.59 94.0962 312.59 94.0962 312.59 94.0962H312.59H312.59C312.59 94.0962 312.59 94.0962 312.59 94.0962H312.59C312.59 94.0962 312.59 94.0962 312.59 94.0962H312.59C312.59 94.0962 312.59 94.0962 312.59 94.0962C312.59 94.0962 312.59 94.0962 312.59 94.0962H312.59C312.59 94.0962 312.59 94.0962 312.59 94.0962C312.59 94.0962 312.59 94.0962 312.59 94.0962C312.59 94.0962 312.59 94.0962 312.59 94.0962C312.59 94.0962 312.59 94.0962 312.59 94.0962C312.59 94.0962 312.59 94.0962 312.589 94.0962C312.589 94.0962 312.589 94.0962 312.589 94.0962C312.589 94.0962 312.589 94.0962 312.589 94.0962C312.589 94.0962 312.589 94.0962 312.589 94.0962C312.589 94.0962 312.589 94.0962 312.589 94.0962C312.589 94.0962 312.589 94.0962 312.589 94.0962C312.589 94.0962 312.589 94.0962 312.589 94.0962C312.589 94.0962 312.589 94.0962 312.589 94.0962C312.589 94.0962 312.589 94.0962 312.589 94.0962C312.589 94.0962 312.589 94.0962 312.589 94.0962C312.589 94.0962 312.589 94.0962 312.589 94.0962C312.589 94.0962 312.589 94.0962 312.589 94.0962C312.589 94.0962 312.589 94.0962 312.589 94.0962C312.589 94.0962 312.589 94.0962 312.588 94.0962C312.588 94.0962 312.588 94.0962 312.588 94.0962C312.588 94.0962 312.588 94.0962 312.588 94.0962C312.588 94.0962 312.588 94.0962 312.588 94.0962C312.588 94.0962 312.588 94.0962 312.588 94.0962C312.588 94.0962 312.588 94.0962 312.588 94.0962C312.588 94.0962 312.588 94.0962 312.588 94.0962C312.588 94.0962 312.588 94.0962 312.588 94.0962C312.588 94.0962 312.588 94.0962 312.588 94.0962C312.588 94.0962 312.588 94.0962 312.588 94.0962C312.588 94.0962 312.587 94.0962 312.587 94.0962C312.587 94.0962 312.587 94.0962 312.587 94.0962C312.587 94.0962 312.587 94.0962 312.587 94.0962C312.587 94.0962 312.587 94.0962 312.587 94.0962C312.587 94.0962 312.587 94.0962 312.587 94.0962C312.587 94.0962 312.587 94.0962 312.587 94.0962C312.587 94.0962 312.587 94.0962 312.587 94.0962C312.587 94.0962 312.587 94.0962 312.587 94.0962C312.587 94.0962 312.587 94.0962 312.586 94.0962C312.586 94.0962 312.586 94.0962 312.586 94.0962C312.586 94.0962 312.586 94.0962 312.586 94.0962C312.586 94.0962 312.586 94.0962 312.586 94.0962C312.586 94.0962 312.586 94.0962 312.586 94.0962C312.586 94.0962 312.586 94.0962 312.586 94.0962C312.586 94.0962 312.586 94.0962 312.586 94.0962C312.586 94.0962 312.586 94.0962 312.586 94.0962C312.585 94.0962 312.585 94.0962 312.585 94.0962C312.585 94.0962 312.585 94.0962 312.585 94.0962C312.585 94.0962 312.585 94.0962 312.585 94.0962C312.585 94.0962 312.585 94.0962 312.585 94.0962C312.585 94.0962 312.585 94.0962 312.585 94.0962C312.585 94.0962 312.585 94.0962 312.585 94.0962C312.585 94.0962 312.584 94.0962 312.584 94.0962C312.584 94.0962 312.584 94.0962 312.584 94.0962C312.584 94.0962 312.584 94.0962 312.584 94.0962C312.584 94.0962 312.584 94.0962 312.584 94.0962C312.584 94.0962 312.584 94.0962 312.584 94.0962C312.584 94.0962 312.584 94.0962 312.584 94.0962C312.583 94.0962 312.583 94.0962 312.583 94.0962C312.583 94.0962 312.583 94.0962 312.583 94.0962C312.583 94.0962 312.583 94.0962 312.583 94.0962C312.583 94.0962 312.583 94.0962 312.583 94.0962C312.583 94.0962 312.583 94.0962 312.583 94.0962C312.583 94.0962 312.583 94.0962 312.582 94.0962C312.582 94.0962 312.582 94.0962 312.582 94.0962C312.582 94.0962 312.582 94.0962 312.582 94.0962C312.582 94.0962 312.582 94.0962 312.582 94.0962C312.582 94.0962 312.582 94.0962 312.582 94.0962C312.582 94.0962 312.582 94.0962 312.581 94.0962C312.581 94.0962 312.581 94.0962 312.581 94.0962C312.581 94.0962 312.581 94.0962 312.581 94.0962C312.581 94.0962 312.581 94.0962 312.581 94.0962C312.581 94.0962 312.581 94.0962 312.581 94.0962C312.581 94.0962 312.58 94.0962 312.58 94.0962C312.58 94.0962 312.58 94.0962 312.58 94.0962C312.58 94.0962 312.58 94.0962 312.58 94.0962C312.58 94.0962 312.58 94.0962 312.58 94.0962C312.58 94.0962 312.58 94.0962 312.579 94.0962C312.579 94.0962 312.579 94.0962 312.579 94.0962C312.579 94.0962 312.579 94.0962 312.579 94.0962V96.0962C312.579 96.0962 312.579 96.0962 312.579 96.0962C312.579 96.0962 312.579 96.0962 312.579 96.0962C312.58 96.0962 312.58 96.0962 312.58 96.0962C312.58 96.0962 312.58 96.0962 312.58 96.0962C312.58 96.0962 312.58 96.0962 312.58 96.0962C312.58 96.0962 312.58 96.0962 312.58 96.0962C312.58 96.0962 312.581 96.0962 312.581 96.0962C312.581 96.0962 312.581 96.0962 312.581 96.0962C312.581 96.0962 312.581 96.0962 312.581 96.0962C312.581 96.0962 312.581 96.0962 312.581 96.0962C312.581 96.0962 312.581 96.0962 312.581 96.0962C312.582 96.0962 312.582 96.0962 312.582 96.0962C312.582 96.0962 312.582 96.0962 312.582 96.0962C312.582 96.0962 312.582 96.0962 312.582 96.0962C312.582 96.0962 312.582 96.0962 312.582 96.0962C312.582 96.0962 312.582 96.0962 312.582 96.0962C312.583 96.0962 312.583 96.0962 312.583 96.0962C312.583 96.0962 312.583 96.0962 312.583 96.0962C312.583 96.0962 312.583 96.0962 312.583 96.0962C312.583 96.0962 312.583 96.0962 312.583 96.0962C312.583 96.0962 312.583 96.0962 312.583 96.0962C312.583 96.0962 312.583 96.0962 312.584 96.0962C312.584 96.0962 312.584 96.0962 312.584 96.0962C312.584 96.0962 312.584 96.0962 312.584 96.0962C312.584 96.0962 312.584 96.0962 312.584 96.0962C312.584 96.0962 312.584 96.0962 312.584 96.0962C312.584 96.0962 312.584 96.0962 312.584 96.0962C312.584 96.0962 312.585 96.0962 312.585 96.0962C312.585 96.0962 312.585 96.0962 312.585 96.0962C312.585 96.0962 312.585 96.0962 312.585 96.0962C312.585 96.0962 312.585 96.0962 312.585 96.0962C312.585 96.0962 312.585 96.0962 312.585 96.0962C312.585 96.0962 312.585 96.0962 312.585 96.0962C312.585 96.0962 312.585 96.0962 312.586 96.0962C312.586 96.0962 312.586 96.0962 312.586 96.0962C312.586 96.0962 312.586 96.0962 312.586 96.0962C312.586 96.0962 312.586 96.0962 312.586 96.0962C312.586 96.0962 312.586 96.0962 312.586 96.0962C312.586 96.0962 312.586 96.0962 312.586 96.0962C312.586 96.0962 312.586 96.0962 312.586 96.0962C312.586 96.0962 312.586 96.0962 312.586 96.0962C312.587 96.0962 312.587 96.0962 312.587 96.0962C312.587 96.0962 312.587 96.0962 312.587 96.0962C312.587 96.0962 312.587 96.0962 312.587 96.0962C312.587 96.0962 312.587 96.0962 312.587 96.0962C312.587 96.0962 312.587 96.0962 312.587 96.0962C312.587 96.0962 312.587 96.0962 312.587 96.0962C312.587 96.0962 312.587 96.0962 312.587 96.0962C312.587 96.0962 312.587 96.0962 312.587 96.0962C312.587 96.0962 312.588 96.0962 312.588 96.0962C312.588 96.0962 312.588 96.0962 312.588 96.0962C312.588 96.0962 312.588 96.0962 312.588 96.0962C312.588 96.0962 312.588 96.0962 312.588 96.0962C312.588 96.0962 312.588 96.0962 312.588 96.0962C312.588 96.0962 312.588 96.0962 312.588 96.0962C312.588 96.0962 312.588 96.0962 312.588 96.0962C312.588 96.0962 312.588 96.0962 312.588 96.0962C312.588 96.0962 312.588 96.0962 312.588 96.0962C312.588 96.0962 312.588 96.0962 312.588 96.0962C312.589 96.0962 312.589 96.0962 312.589 96.0962C312.589 96.0962 312.589 96.0962 312.589 96.0962C312.589 96.0962 312.589 96.0962 312.589 96.0962C312.589 96.0962 312.589 96.0962 312.589 96.0962C312.589 96.0962 312.589 96.0962 312.589 96.0962C312.589 96.0962 312.589 96.0962 312.589 96.0962C312.589 96.0962 312.589 96.0962 312.589 96.0962C312.589 96.0962 312.589 96.0962 312.589 96.0962C312.589 96.0962 312.589 96.0962 312.589 96.0962C312.589 96.0962 312.589 96.0962 312.589 96.0962C312.589 96.0962 312.589 96.0962 312.589 96.0962C312.589 96.0962 312.589 96.0962 312.589 96.0962C312.589 96.0962 312.589 96.0962 312.589 96.0962C312.59 96.0962 312.59 96.0962 312.59 96.0962C312.59 96.0962 312.59 96.0962 312.59 96.0962C312.59 96.0962 312.59 96.0962 312.59 96.0962C312.59 96.0962 312.59 96.0962 312.59 96.0962C312.59 96.0962 312.59 96.0962 312.59 96.0962H312.59C312.59 96.0962 312.59 96.0962 312.59 96.0962C312.59 96.0962 312.59 96.0962 312.59 96.0962H312.59C312.59 96.0962 312.59 96.0962 312.59 96.0962H312.59C312.59 96.0962 312.59 96.0962 312.59 96.0962H312.59H312.59C312.59 96.0962 312.59 96.0962 312.59 96.0962C312.59 96.0962 312.59 96.0962 312.59 96.0962C312.59 96.0962 312.59 96.0962 312.59 96.0962C312.59 96.0962 312.59 96.0962 312.59 96.0962C312.59 96.0962 312.59 96.0962 312.59 96.0962C312.59 96.0962 312.59 96.0962 312.59 96.0962C312.59 96.0962 312.59 96.0962 312.59 96.0962C312.59 96.0962 312.59 96.0962 312.59 96.0962H312.59C312.591 96.0962 312.591 96.0962 312.591 96.0962C312.591 96.0962 312.591 96.0962 312.591 96.0962C312.591 96.0962 312.591 96.0962 312.591 96.0962C312.591 96.0962 312.591 96.0962 312.591 96.0962C312.591 95.0962 312.591 94.0962 312.591 94.0962H312.591C312.591 94.0962 312.591 94.0962 312.591 94.0962H312.591H312.59C312.59 94.0962 312.59 94.0962 312.59 94.0962C312.59 94.0962 312.59 94.0962 312.59 94.0962C312.59 94.0962 312.59 94.0962 312.59 94.0962C312.59 94.0962 312.59 94.0962 312.59 94.0962H312.59H312.59H312.59H312.59H312.59H312.59C312.59 94.0962 312.59 94.0962 312.59 94.0962C312.59 94.0962 312.59 94.0962 312.59 94.0962C312.59 94.0962 312.59 94.0962 312.59 94.0962H312.59C312.59 94.0962 312.59 94.0962 312.59 94.0962C312.59 94.0962 312.59 94.0962 312.59 94.0962H312.59C312.59 94.0962 312.59 94.0962 312.59 94.0962H312.59C312.59 94.0962 312.59 94.0962 312.59 94.0962H312.59C312.59 94.0962 312.59 94.0962 312.59 94.0962C312.59 94.0962 312.59 94.0962 312.59 94.0962H312.59C312.59 94.0962 312.59 94.0962 312.59 94.0962C312.589 94.0962 312.589 94.0962 312.589 94.0962C312.589 94.0962 312.589 94.0962 312.589 94.0962H312.589C312.589 94.0962 312.589 94.0962 312.589 94.0962C312.589 94.0962 312.589 94.0962 312.589 94.0962C312.589 94.0962 312.589 94.0962 312.589 94.0962C312.589 94.0962 312.589 94.0962 312.589 94.0962C312.589 94.0962 312.589 94.0962 312.589 94.0962C312.589 94.0962 312.589 94.0962 312.589 94.0962C312.589 94.0962 312.589 94.0962 312.589 94.0962C312.589 94.0962 312.589 94.0962 312.589 94.0962C312.589 94.0962 312.589 94.0962 312.589 94.0962C312.589 94.0962 312.589 94.0962 312.589 94.0962C312.589 94.0962 312.589 94.0962 312.589 94.0962C312.589 94.0962 312.589 94.0962 312.589 94.0962C312.589 94.0962 312.589 94.0962 312.589 94.0962C312.589 94.0962 312.588 94.0962 312.588 94.0962C312.588 94.0962 312.588 94.0962 312.588 94.0962C312.588 94.0962 312.588 94.0962 312.588 94.0962C312.588 94.0962 312.588 94.0962 312.588 94.0962C312.588 94.0962 312.588 94.0962 312.588 94.0962C312.588 94.0962 312.588 94.0962 312.588 94.0962C312.588 94.0962 312.588 94.0962 312.588 94.0962C312.588 94.0962 312.588 94.0962 312.588 94.0962C312.588 94.0962 312.588 94.0962 312.588 94.0962C312.588 94.0962 312.588 94.0962 312.588 94.0962C312.588 94.0962 312.588 94.0962 312.588 94.0962C312.588 94.0962 312.588 94.0962 312.588 94.0962C312.588 94.0962 312.588 94.0962 312.587 94.0962C312.587 94.0962 312.587 94.0962 312.587 94.0962C312.587 94.0962 312.587 94.0962 312.587 94.0962C312.587 94.0962 312.587 94.0962 312.587 94.0962C312.587 94.0962 312.587 94.0962 312.587 94.0962C312.587 94.0962 312.587 94.0962 312.587 94.0962C312.587 94.0962 312.587 94.0962 312.587 94.0962C312.587 94.0962 312.587 94.0962 312.587 94.0962C312.587 94.0962 312.587 94.0962 312.587 94.0962C312.587 94.0962 312.587 94.0962 312.587 94.0962C312.587 94.0962 312.587 94.0962 312.587 94.0962C312.587 94.0962 312.587 94.0962 312.587 94.0962C312.587 94.0962 312.586 94.0962 312.586 94.0962C312.586 94.0962 312.586 94.0962 312.586 94.0962C312.586 94.0962 312.586 94.0962 312.586 94.0962C312.586 94.0962 312.586 94.0962 312.586 94.0962C312.586 94.0962 312.586 94.0962 312.586 94.0962C312.586 94.0962 312.586 94.0962 312.586 94.0962C312.586 94.0962 312.586 94.0962 312.586 94.0962C312.586 94.0962 312.586 94.0962 312.586 94.0962C312.586 94.0962 312.586 94.0962 312.586 94.0962C312.586 94.0962 312.586 94.0962 312.586 94.0962C312.586 94.0962 312.586 94.0962 312.586 94.0962C312.585 94.0962 312.585 94.0962 312.585 94.0962C312.585 94.0962 312.585 94.0962 312.585 94.0962C312.585 94.0962 312.585 94.0962 312.585 94.0962C312.585 94.0962 312.585 94.0962 312.585 94.0962C312.585 94.0962 312.585 94.0962 312.585 94.0962C312.585 94.0962 312.585 94.0962 312.585 94.0962C312.585 94.0962 312.585 94.0962 312.585 94.0962C312.585 94.0962 312.585 94.0962 312.585 94.0962C312.585 94.0962 312.585 94.0962 312.585 94.0962C312.585 94.0962 312.585 94.0962 312.584 94.0962C312.584 94.0962 312.584 94.0962 312.584 94.0962C312.584 94.0962 312.584 94.0962 312.584 94.0962C312.584 94.0962 312.584 94.0962 312.584 94.0962C312.584 94.0962 312.584 94.0962 312.584 94.0962C312.584 94.0962 312.584 94.0962 312.584 94.0962C312.584 94.0962 312.584 94.0962 312.584 94.0962C312.584 94.0962 312.584 94.0962 312.584 94.0962C312.584 94.0962 312.584 94.0962 312.584 94.0962C312.584 94.0962 312.584 94.0962 312.583 94.0962C312.583 94.0962 312.583 94.0962 312.583 94.0962C312.583 94.0962 312.583 94.0962 312.583 94.0962C312.583 94.0962 312.583 94.0962 312.583 94.0962C312.583 94.0962 312.583 94.0962 312.583 94.0962C312.583 94.0962 312.583 94.0962 312.583 94.0962C312.583 94.0962 312.583 94.0962 312.583 94.0962C312.583 94.0962 312.583 94.0962 312.583 94.0962C312.583 94.0962 312.583 94.0962 312.583 94.0962C312.583 94.0962 312.583 94.0962 312.583 94.0962C312.582 94.0962 312.582 94.0962 312.582 94.0962C312.582 94.0962 312.582 94.0962 312.582 94.0962C312.582 94.0962 312.582 94.0962 312.582 94.0962C312.582 94.0962 312.582 94.0962 312.582 94.0962C312.582 94.0962 312.582 94.0962 312.582 94.0962C312.582 94.0962 312.582 94.0962 312.582 94.0962C312.582 94.0962 312.582 94.0962 312.582 94.0962C312.582 94.0962 312.582 94.0962 312.582 94.0962C312.582 94.0962 312.582 94.0962 312.581 94.0962C312.581 94.0962 312.581 94.0962 312.581 94.0962C312.581 94.0962 312.581 94.0962 312.581 94.0962C312.581 94.0962 312.581 94.0962 312.581 94.0962C312.581 94.0962 312.581 94.0962 312.581 94.0962C312.581 94.0962 312.581 94.0962 312.581 94.0962C312.581 94.0962 312.581 94.0962 312.581 94.0962C312.581 94.0962 312.581 94.0962 312.581 94.0962C312.581 94.0962 312.581 94.0962 312.581 94.0962C312.581 94.0962 312.58 94.0962 312.58 94.0962C312.58 94.0962 312.58 94.0962 312.58 94.0962C312.58 94.0962 312.58 94.0962 312.58 94.0962C312.58 94.0962 312.58 94.0962 312.58 94.0962C312.58 94.0962 312.58 94.0962 312.58 94.0962C312.58 94.0962 312.58 94.0962 312.58 94.0962C312.58 94.0962 312.58 94.0962 312.58 94.0962C312.58 94.0962 312.58 94.0962 312.58 94.0962C312.58 94.0962 312.58 94.0962 312.579 94.0962C312.579 94.0962 312.579 94.0962 312.579 94.0962C312.579 94.0962 312.579 94.0962 312.579 94.0962C312.579 94.0962 312.579 94.0962 312.579 94.0962C312.579 94.0962 312.579 94.0962 312.579 94.0962C312.579 94.0962 312.579 94.0962 312.579 94.0962C312.579 94.0962 312.579 94.0962 312.579 94.0962C312.579 94.0962 312.579 94.0962 312.579 94.0962C312.579 94.0962 312.579 94.0962 312.579 94.0962C312.579 94.0962 312.578 94.0962 312.578 94.0962C312.578 94.0962 312.578 94.0962 312.578 94.0962C312.578 94.0962 312.578 94.0962 312.578 94.0962C312.578 94.0962 312.578 94.0962 312.578 94.0962C312.578 94.0962 312.578 94.0962 312.578 94.0962C312.578 94.0962 312.578 94.0962 312.578 94.0962C312.578 94.0962 312.578 94.0962 312.578 94.0962C312.578 94.0962 312.578 94.0962 312.578 94.0962C312.578 94.0962 312.578 94.0962 312.578 94.0962C312.577 94.0962 312.577 94.0962 312.577 94.0962C312.577 94.0962 312.577 94.0962 312.577 94.0962C312.577 94.0962 312.577 94.0962 312.577 94.0962C312.577 94.0962 312.577 94.0962 312.577 94.0962C312.577 94.0962 312.577 94.0962 312.577 94.0962C312.577 94.0962 312.577 94.0962 312.577 94.0962C312.577 94.0962 312.577 94.0962 312.577 94.0962C312.577 94.0962 312.577 94.0962 312.577 94.0962C312.577 94.0962 312.577 94.0962 312.576 94.0962C312.576 94.0962 312.576 94.0962 312.576 94.0962C312.576 94.0962 312.576 94.0962 312.576 94.0962C312.576 94.0962 312.576 94.0962 312.576 94.0962C312.576 94.0962 312.576 94.0962 312.576 94.0962C312.576 94.0962 312.576 94.0962 312.576 94.0962C312.576 94.0962 312.576 94.0962 312.576 94.0962C312.576 94.0962 312.576 94.0962 312.576 94.0962C312.576 94.0962 312.576 94.0962 312.576 94.0962C312.576 94.0962 312.576 94.0962 312.575 94.0962C312.575 94.0962 312.575 94.0962 312.575 94.0962C312.575 94.0962 312.575 94.0962 312.575 94.0962C312.575 94.0962 312.575 94.0962 312.575 94.0962C312.575 94.0962 312.575 94.0962 312.575 94.0962C312.575 94.0962 312.575 94.0962 312.575 94.0962C312.575 94.0962 312.575 94.0962 312.575 94.0962C312.575 94.0962 312.575 94.0962 312.575 94.0962C312.575 94.0962 312.575 94.0962 312.575 94.0962C312.575 94.0962 312.574 94.0962 312.574 94.0962C312.574 94.0962 312.574 94.0962 312.574 94.0962C312.574 94.0962 312.574 94.0962 312.574 94.0962C312.574 94.0962 312.574 94.0962 312.574 94.0962C312.574 94.0962 312.574 94.0962 312.574 94.0962C312.574 94.0962 312.574 94.0962 312.574 94.0962C312.574 94.0962 312.574 94.0962 312.574 94.0962C312.574 94.0962 312.574 94.0962 312.574 94.0962C312.574 94.0962 312.574 94.0962 312.574 94.0962C312.574 94.0962 312.574 94.0962 312.574 94.0962C312.573 94.0962 312.573 94.0962 312.573 94.0962C312.573 94.0962 312.573 94.0962 312.573 94.0962C312.573 94.0962 312.573 94.0962 312.573 94.0962C312.573 94.0962 312.573 94.0962 312.573 94.0962C312.573 94.0962 312.573 94.0962 312.573 94.0962C312.573 94.0962 312.573 94.0962 312.573 94.0962C312.573 94.0962 312.573 94.0962 312.573 94.0962C312.573 94.0962 312.573 94.0962 312.573 94.0962C312.573 94.0962 312.573 94.0962 312.573 94.0962C312.573 94.0962 312.573 94.0962 312.572 94.0962C312.572 94.0962 312.572 94.0962 312.572 94.0962C312.572 94.0962 312.572 94.0962 312.572 94.0962C312.572 94.0962 312.572 94.0962 312.572 94.0962C312.572 94.0962 312.572 94.0962 312.572 94.0962C312.572 94.0962 312.572 94.0962 312.572 94.0962C312.572 94.0962 312.572 94.0962 312.572 94.0962C312.572 94.0962 312.572 94.0962 312.572 94.0962C312.572 94.0962 312.572 94.0962 312.572 94.0962C312.572 94.0962 312.572 94.0962 312.572 94.0962C312.572 94.0962 312.572 94.0962 312.572 94.0962C312.572 94.0962 312.571 94.0962 312.571 94.0962C312.571 94.0962 312.571 94.0962 312.571 94.0962C312.571 94.0962 312.571 94.0962 312.571 94.0962C312.571 94.0962 312.571 94.0962 312.571 94.0962C312.571 94.0962 312.571 94.0962 312.571 94.0962C312.571 94.0962 312.571 94.0962 312.571 94.0962C312.571 94.0962 312.571 94.0962 312.571 94.0962C312.571 94.0962 312.571 94.0962 312.571 94.0962C312.571 94.0962 312.571 94.0962 312.571 94.0962C312.571 94.0962 312.571 94.0962 312.571 94.0962C312.571 94.0962 312.571 94.0962 312.571 94.0962C312.571 94.0962 312.571 94.0962 312.57 94.0962C312.57 94.0962 312.57 94.0962 312.57 94.0962C312.57 94.0962 312.57 94.0962 312.57 94.0962C312.57 94.0962 312.57 94.0962 312.57 94.0962C312.57 94.0962 312.57 94.0962 312.57 94.0962C312.57 94.0962 312.57 94.0962 312.57 94.0962C312.57 94.0962 312.57 94.0962 312.57 94.0962C312.57 94.0962 312.57 94.0962 312.57 94.0962C312.57 94.0962 312.57 94.0962 312.57 94.0962C312.57 94.0962 312.57 94.0962 312.57 94.0962C312.57 94.0962 312.57 94.0962 312.57 94.0962C312.57 94.0962 312.57 94.0962 312.57 94.0962C312.57 94.0962 312.57 94.0962 312.57 94.0962C312.57 94.0962 312.57 94.0962 312.569 94.0962C312.569 94.0962 312.569 94.0962 312.569 94.0962C312.569 94.0962 312.569 94.0962 312.569 94.0962C312.569 94.0962 312.569 94.0962 312.569 94.0962C312.569 94.0962 312.569 94.0962 312.569 94.0962C312.569 94.0962 312.569 94.0962 312.569 94.0962C312.569 94.0962 312.569 94.0962 312.569 94.0962C312.569 94.0962 312.569 94.0962 312.569 94.0962C312.569 94.0962 312.569 94.0962 312.569 94.0962C312.569 94.0962 312.569 94.0962 312.569 94.0962C312.569 94.0962 312.569 94.0962 312.569 94.0962C312.569 94.0962 312.569 94.0962 312.569 94.0962C312.569 94.0962 312.569 94.0962 312.569 94.0962H312.569C312.569 94.0962 312.569 94.0962 312.569 94.0962C312.569 94.0962 312.569 94.0962 312.569 94.0962C312.569 94.0962 312.569 94.0962 312.569 94.0962H312.568C312.568 94.0962 312.568 94.0962 312.568 94.0962C312.568 94.0962 312.568 94.0962 312.568 94.0962H312.568C312.568 94.0962 312.568 94.0962 312.568 94.0962H312.568C312.568 94.0962 312.568 94.0962 312.568 94.0962H312.568C312.568 94.0962 312.568 94.0962 312.568 94.0962C312.568 94.0962 312.568 94.0962 312.568 94.0962H312.568C312.568 94.0962 312.568 94.0962 312.568 94.0962C312.568 94.0962 312.568 94.0962 312.568 94.0962C312.568 94.0962 312.568 94.0962 312.568 94.0962H312.568H312.568H312.568H312.568H312.568H312.568C312.568 94.0962 312.568 94.0962 312.568 94.0962C312.568 94.0962 312.568 94.0962 312.568 94.0962C312.568 94.0962 312.568 94.0962 312.568 94.0962C312.568 94.0962 312.568 94.0962 312.568 94.0962H312.568H312.568C312.568 94.0962 312.568 94.0962 312.568 94.0962H312.567C312.567 94.0962 312.567 95.0962 312.567 96.0962C312.568 96.0962 312.568 96.0962 312.568 96.0962C312.568 96.0962 312.568 96.0962 312.568 96.0962C312.568 96.0962 312.568 96.0962 312.568 96.0962C312.568 96.0962 312.568 96.0962 312.568 96.0962H312.568C312.568 96.0962 312.568 96.0962 312.568 96.0962C312.568 96.0962 312.568 96.0962 312.568 96.0962C312.568 96.0962 312.568 96.0962 312.568 96.0962C312.568 96.0962 312.568 96.0962 312.568 96.0962C312.568 96.0962 312.568 96.0962 312.568 96.0962C312.568 96.0962 312.568 96.0962 312.568 96.0962C312.568 96.0962 312.568 96.0962 312.568 96.0962C312.568 96.0962 312.568 96.0962 312.568 96.0962H312.568H312.568C312.568 96.0962 312.568 96.0962 312.568 96.0962H312.568C312.568 96.0962 312.568 96.0962 312.568 96.0962H312.568C312.568 96.0962 312.568 96.0962 312.568 96.0962C312.568 96.0962 312.568 96.0962 312.568 96.0962H312.568C312.568 96.0962 312.568 96.0962 312.568 96.0962C312.568 96.0962 312.568 96.0962 312.568 96.0962C312.568 96.0962 312.568 96.0962 312.568 96.0962C312.569 96.0962 312.569 96.0962 312.569 96.0962C312.569 96.0962 312.569 96.0962 312.569 96.0962C312.569 96.0962 312.569 96.0962 312.569 96.0962C312.569 96.0962 312.569 96.0962 312.569 96.0962C312.569 96.0962 312.569 96.0962 312.569 96.0962C312.569 96.0962 312.569 96.0962 312.569 96.0962C312.569 96.0962 312.569 96.0962 312.569 96.0962C312.569 96.0962 312.569 96.0962 312.569 96.0962C312.569 96.0962 312.569 96.0962 312.569 96.0962C312.569 96.0962 312.569 96.0962 312.569 96.0962C312.569 96.0962 312.569 96.0962 312.569 96.0962C312.569 96.0962 312.569 96.0962 312.569 96.0962C312.569 96.0962 312.569 96.0962 312.569 96.0962C312.569 96.0962 312.569 96.0962 312.57 96.0962C312.57 96.0962 312.57 96.0962 312.57 96.0962C312.57 96.0962 312.57 96.0962 312.57 96.0962C312.57 96.0962 312.57 96.0962 312.57 96.0962C312.57 96.0962 312.57 96.0962 312.57 96.0962C312.57 96.0962 312.57 96.0962 312.57 96.0962C312.57 96.0962 312.57 96.0962 312.57 96.0962C312.57 96.0962 312.57 96.0962 312.57 96.0962C312.57 96.0962 312.57 96.0962 312.57 96.0962C312.57 96.0962 312.57 96.0962 312.57 96.0962C312.57 96.0962 312.57 96.0962 312.571 96.0962C312.571 96.0962 312.571 96.0962 312.571 96.0962C312.571 96.0962 312.571 96.0962 312.571 96.0962C312.571 96.0962 312.571 96.0962 312.571 96.0962C312.571 96.0962 312.571 96.0962 312.571 96.0962C312.571 96.0962 312.571 96.0962 312.571 96.0962C312.571 96.0962 312.571 96.0962 312.571 96.0962C312.571 96.0962 312.571 96.0962 312.571 96.0962C312.571 96.0962 312.571 96.0962 312.571 96.0962C312.572 96.0962 312.572 96.0962 312.572 96.0962C312.572 96.0962 312.572 96.0962 312.572 96.0962C312.572 96.0962 312.572 96.0962 312.572 96.0962C312.572 96.0962 312.572 96.0962 312.572 96.0962C312.572 96.0962 312.572 96.0962 312.572 96.0962C312.572 96.0962 312.572 96.0962 312.572 96.0962C312.572 96.0962 312.572 96.0962 312.572 96.0962C312.572 96.0962 312.573 96.0962 312.573 96.0962C312.573 96.0962 312.573 96.0962 312.573 96.0962C312.573 96.0962 312.573 96.0962 312.573 96.0962C312.573 96.0962 312.573 96.0962 312.573 96.0962C312.573 96.0962 312.573 96.0962 312.573 96.0962C312.573 96.0962 312.573 96.0962 312.573 96.0962C312.573 96.0962 312.573 96.0962 312.574 96.0962C312.574 96.0962 312.574 96.0962 312.574 96.0962C312.574 96.0962 312.574 96.0962 312.574 96.0962C312.574 96.0962 312.574 96.0962 312.574 96.0962C312.574 96.0962 312.574 96.0962 312.574 96.0962C312.574 96.0962 312.574 96.0962 312.574 96.0962C312.574 96.0962 312.574 96.0962 312.575 96.0962C312.575 96.0962 312.575 96.0962 312.575 96.0962C312.575 96.0962 312.575 96.0962 312.575 96.0962C312.575 96.0962 312.575 96.0962 312.575 96.0962C312.575 96.0962 312.575 96.0962 312.575 96.0962C312.575 96.0962 312.575 96.0962 312.575 96.0962C312.576 96.0962 312.576 96.0962 312.576 96.0962C312.576 96.0962 312.576 96.0962 312.576 96.0962C312.576 96.0962 312.576 96.0962 312.576 96.0962C312.576 96.0962 312.576 96.0962 312.576 96.0962C312.576 96.0962 312.576 96.0962 312.576 96.0962C312.576 96.0962 312.577 96.0962 312.577 96.0962C312.577 96.0962 312.577 96.0962 312.577 96.0962C312.577 96.0962 312.577 96.0962 312.577 96.0962C312.577 96.0962 312.577 96.0962 312.577 96.0962C312.577 96.0962 312.577 96.0962 312.577 96.0962C312.578 96.0962 312.578 96.0962 312.578 96.0962C312.578 96.0962 312.578 96.0962 312.578 96.0962C312.578 96.0962 312.578 96.0962 312.578 96.0962C312.578 96.0962 312.578 96.0962 312.578 96.0962C312.578 96.0962 312.578 96.0962 312.579 96.0962C312.579 96.0962 312.579 96.0962 312.579 96.0962C312.579 96.0962 312.579 96.0962 312.579 96.0962V94.0962ZM312.579 94.0962C299.117 94.0962 289.104 91.7039 281.648 87.7841C274.204 83.8708 269.252 78.4065 265.944 72.1601C259.292 59.599 259.272 43.8731 259.272 31.1398H257.272C257.272 43.7667 257.251 60.019 264.176 73.096C267.657 79.6687 272.888 85.4385 280.717 89.5544C288.535 93.6639 298.888 96.0962 312.579 96.0962V94.0962ZM257.272 31.1398V31.1516H259.272V31.1398H257.272Z" fill="#FFBDC8" mask="url(#path-1-inside-1_1581_1535)"/>
</g>
<defs>
<filter id="filter0_d_1581_1535" x="0" y="0" width="343" height="281" filterUnits="userSpaceOnUse" color-interpolation-filters="sRGB">
<feFlood flood-opacity="0" result="BackgroundImageFix"/>
<feColorMatrix in="SourceAlpha" type="matrix" values="0 0 0 0 0 0 0 0 0 0 0 0 0 0 0 0 0 0 127 0" result="hardAlpha"/>
<feOffset/>
<feGaussianBlur stdDeviation="10"/>
<feComposite in2="hardAlpha" operator="out"/>
<feColorMatrix type="matrix" values="0 0 0 0 1 0 0 0 0 0.141176 0 0 0 0 0.290196 0 0 0 0.1 0"/>
<feBlend mode="normal" in2="BackgroundImageFix" result="effect1_dropShadow_1581_1535"/>
<feBlend mode="normal" in="SourceGraphic" in2="effect1_dropShadow_1581_1535" result="shape"/>
</filter>
</defs>
</svg>
