<svg width="26" height="26" viewBox="0 0 26 26" fill="none" xmlns="http://www.w3.org/2000/svg">
<path d="M8.13611 21.4519C9.56772 22.2776 11.2288 22.7499 13.0001 22.7499C18.3849 22.7499 22.75 18.3848 22.75 13C22.75 7.61522 18.3848 3.25 13 3.25C7.61522 3.25 3.25 7.61522 3.25 13C3.25 14.7714 3.72238 16.4324 4.54804 17.864L4.54873 17.8652C4.62984 18.0059 4.6705 18.0764 4.68884 18.1427C4.70595 18.2046 4.71161 18.2599 4.70722 18.324C4.70257 18.392 4.67907 18.4625 4.63265 18.6017L4.63091 18.607L3.79801 21.1056L3.79736 21.1076C3.62138 21.6356 3.53334 21.8997 3.59601 22.0754C3.65062 22.2286 3.7713 22.3491 3.92444 22.4037C4.10042 22.4665 4.36532 22.3783 4.89457 22.2019L7.39325 21.369L7.39493 21.3684C7.53653 21.3212 7.60729 21.2976 7.67587 21.2929C7.73996 21.2886 7.79542 21.2941 7.85734 21.3112C7.92386 21.3296 7.99467 21.3703 8.13611 21.4519Z" stroke="#3A3A3C" stroke-width="2" stroke-linecap="round" stroke-linejoin="round"/>
</svg>
