<svg width="38" height="38" viewBox="0 0 38 38" fill="none" xmlns="http://www.w3.org/2000/svg">
<path opacity="0.4" d="M25.6082 30.816V23.4199L12.3623 31.1467V34.3482C12.3623 36.6458 14.7802 38.1402 16.8352 37.1127L23.8997 33.5804C24.9468 33.0569 25.6082 31.9867 25.6082 30.816Z" fill="#FF244A"/>
<path fill-rule="evenodd" clip-rule="evenodd" d="M0 5.41544C0 2.73308 2.17448 0.558594 4.85684 0.558594H33.1148C35.7972 0.558594 37.9717 2.73308 37.9717 5.41544V6.85926C37.9717 8.53681 37.3351 10.1519 36.1905 11.3782L26.2025 22.0796C25.8307 22.478 25.6197 22.9994 25.6092 23.5433V23.4199L12.3633 31.1467V34.3482C12.3633 35.5665 13.0431 36.5589 13.9881 37.0693C13.0429 36.559 12.3629 35.5665 12.3629 34.348V23.5859C12.3629 23.0267 12.1507 22.4884 11.7691 22.0796L1.78121 11.3782C0.636589 10.1518 0 8.53681 0 6.85926V5.41544Z" fill="#FF244A"/>
</svg>
