<svg width="35" height="36" viewBox="0 0 35 36" fill="none" xmlns="http://www.w3.org/2000/svg">
<path fill-rule="evenodd" clip-rule="evenodd" d="M29.4 18.2819C29.4 17.4029 29.3211 16.5577 29.1746 15.7463H17.5V20.5413H24.1712C23.8839 22.0908 23.0105 23.4036 21.6977 24.2826V27.3928H25.7038C28.0477 25.2348 29.4 22.057 29.4 18.2819Z" fill="#4285F4"/>
<path fill-rule="evenodd" clip-rule="evenodd" d="M17.5002 30.3959C20.8471 30.3959 23.6531 29.2859 25.704 27.3927L21.6979 24.2825C20.5879 25.0262 19.168 25.4657 17.5002 25.4657C14.2717 25.4657 11.539 23.2852 10.5642 20.3552H6.42285V23.5669C8.46253 27.6181 12.6546 30.3959 17.5002 30.3959Z" fill="#34A853"/>
<path fill-rule="evenodd" clip-rule="evenodd" d="M10.5643 20.3554C10.3164 19.6117 10.1755 18.8172 10.1755 18.0002C10.1755 17.1832 10.3164 16.3888 10.5643 15.645V12.4333H6.42296C5.58342 14.1068 5.10449 16 5.10449 18.0002C5.10449 20.0005 5.58342 21.8936 6.42296 23.5671L10.5643 20.3554Z" fill="#FBBC05"/>
<path fill-rule="evenodd" clip-rule="evenodd" d="M17.5002 10.5344C19.3202 10.5344 20.9542 11.1598 22.2388 12.3882L25.7942 8.8328C23.6475 6.83256 20.8415 5.60425 17.5002 5.60425C12.6546 5.60425 8.46253 8.38205 6.42285 12.4332L10.5642 15.6449C11.539 12.715 14.2717 10.5344 17.5002 10.5344Z" fill="#EA4335"/>
</svg>
