<svg width="666" height="192" viewBox="0 0 666 192" fill="none" xmlns="http://www.w3.org/2000/svg">
<path d="M385.5 73.561C385.5 90.9243 371.424 105 354.061 105C336.698 105 322.622 90.9243 322.622 73.561C322.622 56.1978 336.698 42.1221 354.061 42.1221C371.424 42.1221 385.5 56.1978 385.5 73.561Z" fill="#FF244A"/>
<g filter="url(#filter0_b_2406_3173)">
<path d="M280.5 15.2616C280.5 6.83287 287.333 0 295.762 0H369.017C377.446 0 384.279 6.83286 384.279 15.2616V51.8895L358.334 77.8343L332.39 103.779H295.762C287.333 103.779 280.5 96.9462 280.5 88.5174V15.2616Z" fill="url(#paint0_linear_2406_3173)" fill-opacity="0.3"/>
</g>
<g filter="url(#filter1_b_2406_3173)">
<path fill-rule="evenodd" clip-rule="evenodd" d="M332.39 103.779L384.279 51.8895V15.2616C384.279 6.83286 377.446 0 369.017 0H295.762C287.333 0 280.5 6.83287 280.5 15.2616V88.5174C280.5 96.9462 287.333 103.779 295.762 103.779H332.39ZM383.974 51.7369V15.2616C383.974 7.00144 377.278 0.305233 369.017 0.305233H295.762C287.501 0.305233 280.805 7.00144 280.805 15.2616V88.5174C280.805 96.7776 287.501 103.474 295.762 103.474H332.237V67.1512C332.237 58.6381 339.138 51.7369 347.651 51.7369H383.974ZM383.695 52.0422H347.651C339.307 52.0422 332.542 58.8067 332.542 67.1512V103.195L383.695 52.0422Z" fill="url(#paint1_linear_2406_3173)"/>
<path fill-rule="evenodd" clip-rule="evenodd" d="M332.39 103.779L384.279 51.8895V15.2616C384.279 6.83286 377.446 0 369.017 0H295.762C287.333 0 280.5 6.83287 280.5 15.2616V88.5174C280.5 96.9462 287.333 103.779 295.762 103.779H332.39ZM383.974 51.7369V15.2616C383.974 7.00144 377.278 0.305233 369.017 0.305233H295.762C287.501 0.305233 280.805 7.00144 280.805 15.2616V88.5174C280.805 96.7776 287.501 103.474 295.762 103.474H332.237V67.1512C332.237 58.6381 339.138 51.7369 347.651 51.7369H383.974ZM383.695 52.0422H347.651C339.307 52.0422 332.542 58.8067 332.542 67.1512V103.195L383.695 52.0422Z" fill="url(#paint2_radial_2406_3173)"/>
</g>
<rect x="294.884" y="23.0137" width="14.3836" height="5.75342" rx="2.87671" fill="white"/>
<rect x="306.049" y="10.4404" width="26.4388" height="5.66547" rx="2.83273" transform="rotate(113.192 306.049 10.4404)" fill="white"/>
<rect width="26.4388" height="5.66547" rx="2.83273" transform="matrix(0.393814 0.91919 0.91919 -0.393814 299.199 10.4404)" fill="white"/>
<rect width="24.8684" height="5.52632" rx="2.76316" transform="matrix(-4.37114e-08 1 1 4.37114e-08 317.803 13.8154)" fill="white"/>
<path d="M333.513 30.3949C333.513 33.7305 330.809 36.4344 327.474 36.4344C324.138 36.4344 321.434 33.7305 321.434 30.3949C321.434 27.0594 324.138 24.3555 327.474 24.3555C330.809 24.3555 333.513 27.0594 333.513 30.3949Z" stroke="white" stroke-width="4.5"/>
<path d="M13.0568 184.45C6.6668 184.45 2.1668 179.8 2.1668 173.17C2.1668 166.54 6.6668 161.86 13.0568 161.89C16.0868 161.89 18.8168 163.18 20.7668 165.19L18.7268 167.2C17.3768 165.61 15.2768 164.62 13.0568 164.62C8.4368 164.62 5.3168 168.04 5.3168 173.17C5.3168 178.27 8.4368 181.72 13.0568 181.72C15.4268 181.72 17.3468 180.67 18.6068 179.23L20.7668 181.15C18.8168 183.16 16.2368 184.48 13.0568 184.45ZM30.5742 181.72C33.2142 181.72 35.0442 179.56 35.0442 176.41C35.0442 173.23 33.2142 171.1 30.5742 171.1C27.9342 171.1 26.1342 173.23 26.1342 176.41C26.1342 179.56 27.9342 181.72 30.5742 181.72ZM23.0142 176.41C23.0142 171.76 26.1342 168.46 30.5742 168.46C35.0442 168.46 38.1642 171.76 38.1642 176.41C38.1642 181.03 35.0442 184.33 30.5742 184.33C26.1342 184.33 23.0142 181.03 23.0142 176.41ZM61.4759 175.24C61.4759 172.84 60.0959 171.19 58.1459 171.19C55.9859 171.19 54.4559 172.9 54.4559 175.06V184.21H51.3359V175.24C51.3359 172.84 49.9859 171.19 48.0659 171.19C45.8759 171.19 44.3459 173.11 44.3459 175.45V184.21H41.2259V168.52H44.3459V171.19C45.2159 169.63 46.7759 168.55 48.4259 168.55C50.3759 168.55 52.3259 169.87 53.1659 171.7C54.1859 169.87 56.4059 168.55 58.3859 168.55C62.1059 168.55 64.5959 171.25 64.5959 175.09V184.21H61.4759V175.24ZM76.0669 181.78C78.7669 181.78 80.5969 179.59 80.5969 176.41C80.5969 173.26 78.7669 171.1 76.0669 171.1C73.5169 171.1 71.3869 173.5 71.3869 176.41C71.3869 179.38 73.5169 181.78 76.0669 181.78ZM68.2369 190.93V168.52H71.3569V171.22C72.5569 169.24 74.9269 168.52 76.2469 168.52C80.6269 168.52 83.7169 171.76 83.7169 176.41C83.7169 181.09 80.6269 184.36 76.2469 184.36C74.8969 184.36 72.5569 183.55 71.3569 181.6V190.93H68.2369ZM89.9855 177.37C89.9855 179.92 91.5455 181.6 93.7955 181.6C96.1955 181.6 97.8755 179.8 97.8455 177.28V168.52H100.965V184.21H97.8455V181.63C96.9155 183.13 95.1155 184.21 93.3455 184.21C89.5955 184.21 86.8655 181.51 86.8655 177.52V168.52H89.9855V177.37ZM111.008 184.3C108.278 184.3 106.328 182.32 106.268 179.47V171.37H103.598V168.64H106.268V164.35H109.388V168.64H113.378V171.37H109.388V179.32C109.388 180.4 110.078 181.33 111.008 181.36C111.638 181.36 112.028 181.24 112.598 181.12L113.228 184.03C112.598 184.15 111.848 184.3 111.008 184.3ZM127.176 175.21C126.906 173.2 125.766 171.1 123.006 171.1C120.606 171.1 118.776 172.9 118.446 175.24L127.176 175.21ZM115.446 176.41C115.446 171.76 118.536 168.49 122.946 168.49C127.866 168.49 129.336 172.45 129.456 172.75C130.386 175 130.056 177.34 130.056 177.61H118.446C118.806 180.04 120.786 181.69 122.976 181.69C126.006 181.69 126.936 179.86 127.056 179.68L129.546 180.82C129.546 180.82 128.106 184.3 122.946 184.3C118.536 184.3 115.446 181.03 115.446 176.41ZM136.036 171.49C136.906 169.69 138.976 168.43 141.046 168.43V171.28C138.166 171.28 136.036 173.92 136.036 176.38V184.21H132.946V168.52H136.036V171.49ZM160.956 169.6H164.286V160.27H167.286V185.14H164.286V172.21H160.956V169.6ZM150.876 180.31V162.76H160.746V165.34H153.936V169.99H159.666V172.48H153.936V177.7C157.116 177.67 159.306 177.58 161.886 177.1L162.156 179.68C159.156 180.25 156.636 180.31 152.646 180.31H150.876ZM169.746 186.4V159.73H172.806V186.4H169.746ZM186.487 161.38H189.907V163.36C189.907 167.53 193.957 171.67 199.417 172.6L198.007 175.27C193.567 174.34 189.907 171.64 188.197 168.04C186.457 171.64 182.797 174.37 178.387 175.27L177.007 172.6C182.407 171.64 186.487 167.5 186.487 163.36V161.38ZM176.227 182.98V180.34H200.377V182.98H176.227ZM205.418 161.8H223.718V164.41H208.688V167.71H223.148V170.26H208.688V173.71H223.958V176.29H205.418V161.8ZM202.448 183.16V180.52H226.598V183.16H202.448ZM231.788 160.69H234.968V167.29H250.118V169.87H231.788V160.69ZM228.668 175.57V172.99H252.818V175.57H228.668ZM231.578 185.8V177.91H234.788V183.22H250.268V185.8H231.578ZM281.513 159.73H284.603V186.4H281.513V172.69H278.663V185.14H275.663V160.24H278.663V170.08H281.513V159.73ZM262.673 179.53V162.61H273.023V179.53H262.673ZM265.673 177.01H270.023V165.16H265.673V177.01ZM288.024 174.67H312.144V177.28H301.614V186.43H298.434V177.28H288.024V174.67ZM289.314 170.29C294.504 169.6 298.014 166.75 298.254 163.81H290.244V161.23H309.894V163.81H301.944C302.184 166.75 305.694 169.6 310.884 170.29L309.684 172.84C305.244 172.18 301.734 170.08 300.114 167.2C298.464 170.08 294.954 172.18 290.514 172.84L289.314 170.29ZM340.089 159.73H343.329V175.27H340.089V174.19H335.139V172.21H340.089V159.73ZM321.099 169.39C326.259 169.39 332.649 169.36 338.289 168.79L338.499 170.8C336.069 171.16 333.579 171.37 331.119 171.49V175.33H327.909V171.61C325.629 171.67 323.469 171.67 321.489 171.67L321.099 169.39ZM323.019 164.17C323.019 161.71 325.659 160.15 329.649 160.15C333.609 160.15 336.249 161.71 336.249 164.17C336.249 166.63 333.609 168.13 329.649 168.13C325.659 168.13 323.019 166.63 323.019 164.17ZM324.999 178.39V176.17H343.329V182.08H328.269V183.91H344.079V186.19H325.059V180.04H340.149V178.39H324.999ZM326.019 164.17C326.019 165.34 327.459 166 329.649 166C331.869 166 333.249 165.34 333.249 164.17C333.249 163 331.869 162.34 329.649 162.34C327.459 162.34 326.019 163 326.019 164.17ZM347.379 180.52H352.959V173.68C350.859 172.45 349.599 170.59 349.599 168.22C349.599 163.93 353.739 161.17 359.439 161.17C365.169 161.17 369.279 163.93 369.279 168.22C369.279 170.56 368.019 172.45 365.949 173.68V180.52H371.529V183.13H347.379V180.52ZM352.749 168.22C352.749 171.01 355.479 172.72 359.439 172.72C363.369 172.72 366.129 171.01 366.129 168.22C366.129 165.43 363.369 163.72 359.439 163.72C355.479 163.72 352.749 165.43 352.749 168.22ZM356.169 180.52H362.709V174.88C361.689 175.09 360.609 175.21 359.439 175.21C358.269 175.21 357.189 175.09 356.169 174.88V180.52ZM381.07 160.6C385.12 160.6 388.12 163.09 388.12 166.6C388.12 170.14 385.12 172.6 381.07 172.6C377.05 172.6 374.08 170.14 374.08 166.6C374.08 163.09 377.05 160.6 381.07 160.6ZM377.2 166.6C377.2 168.67 378.85 169.99 381.07 169.99C383.35 169.99 385 168.67 385 166.6C385 164.53 383.35 163.21 381.07 163.21C378.85 163.21 377.2 164.53 377.2 166.6ZM378.07 176.89V174.4H395.62V181.33H381.28V183.55H396.4V186.07H378.13V178.99H392.41V176.89H378.07ZM392.38 173.2V159.73H395.62V173.2H392.38ZM426.415 159.73H429.505V186.4H426.415V159.73ZM406.285 178.9C410.095 176.5 411.745 171.7 411.745 167.02V165.22H407.125V162.58H419.155V165.22H414.895V167.02C414.895 171.52 416.515 176.08 420.265 178.27L418.345 180.64C415.885 179.17 414.265 176.59 413.365 173.56C412.435 176.86 410.725 179.68 408.205 181.27L406.285 178.9ZM417.235 171.67V169.06H421.075V160.24H424.075V185.11H421.075V171.67H417.235ZM441.536 161.35C445.706 161.35 448.796 164.05 448.796 167.8C448.796 171.07 446.486 173.5 443.156 174.1V178.06C445.526 177.91 447.896 177.7 450.146 177.37L450.386 179.71C444.536 180.85 438.146 180.88 433.436 180.88L433.076 178.27C435.086 178.27 437.426 178.27 439.886 178.18V174.1C436.556 173.5 434.276 171.07 434.276 167.8C434.276 164.05 437.336 161.35 441.536 161.35ZM437.426 167.8C437.426 170.05 439.196 171.46 441.536 171.46C443.876 171.46 445.646 170.05 445.646 167.8C445.646 165.52 443.876 164.11 441.536 164.11C439.196 164.11 437.426 165.52 437.426 167.8ZM451.736 186.46V159.7H454.946V186.46H451.736ZM485.8 159.73H488.89V186.4H485.8V172.69H482.95V185.14H479.95V160.24H482.95V170.08H485.8V159.73ZM466.96 179.53V162.61H477.31V179.53H466.96ZM469.96 177.01H474.31V165.16H469.96V177.01ZM499.781 160.6C503.831 160.6 506.831 163.09 506.831 166.6C506.831 170.14 503.831 172.6 499.781 172.6C495.761 172.6 492.791 170.14 492.791 166.6C492.791 163.09 495.761 160.6 499.781 160.6ZM495.911 166.6C495.911 168.67 497.561 169.99 499.781 169.99C502.061 169.99 503.711 168.67 503.711 166.6C503.711 164.53 502.061 163.21 499.781 163.21C497.561 163.21 495.911 164.53 495.911 166.6ZM496.781 176.89V174.4H514.331V181.33H499.991V183.55H515.111V186.07H496.841V178.99H511.121V176.89H496.781ZM511.091 173.2V159.73H514.331V173.2H511.091ZM532.136 161.89H535.376V166.15C535.376 171.07 537.956 175.96 542.216 177.85L540.326 180.46C537.266 179.02 535.046 176.17 533.816 172.66C532.616 176.41 530.306 179.5 527.096 181.03L525.176 178.36C529.496 176.41 532.136 171.28 532.136 166.15V161.89ZM544.166 186.46V159.7H547.406V186.46H544.166ZM571.196 159.73H574.286V176.5H571.196V169.24H568.616V175.6H565.586V160.27H568.616V166.6H571.196V159.73ZM551.486 165.19V162.64H556.556V159.97H559.706V162.64H564.716V165.19H551.486ZM552.446 170.86C552.446 168.1 554.786 166.24 558.146 166.24C561.506 166.24 563.846 168.1 563.846 170.86C563.846 173.65 561.506 175.48 558.146 175.48C554.786 175.48 552.446 173.65 552.446 170.86ZM555.296 170.86C555.296 172.3 556.466 173.17 558.146 173.17C559.826 173.17 561.026 172.3 561.026 170.86C561.026 169.42 559.826 168.61 558.146 168.61C556.466 168.61 555.296 169.42 555.296 170.86ZM556.316 181.63C556.316 178.57 559.706 176.86 565.346 176.86C571.016 176.86 574.436 178.57 574.436 181.63C574.436 184.66 571.016 186.37 565.346 186.37C559.706 186.37 556.316 184.66 556.316 181.63ZM559.496 181.63C559.496 183.16 561.566 183.94 565.346 183.94C569.126 183.94 571.196 183.16 571.196 181.63C571.196 180.07 569.126 179.29 565.346 179.29C561.566 179.29 559.496 180.07 559.496 181.63ZM596.727 159.73H599.937V175.18H596.727V159.73ZM577.947 172.18C580.047 172.18 582.507 172.18 585.027 172.09V169.66H580.257V160.99H592.947V163.6H583.467V167.11H593.157V169.66H588.267V171.94C590.487 171.82 592.737 171.64 594.837 171.34L595.047 173.56C589.347 174.61 583.047 174.7 578.337 174.7L577.947 172.18ZM582.147 186.07V176.26H585.327V178.6H596.757V176.26H599.937V186.07H582.147ZM585.327 183.52H596.757V181.06H585.327V183.52ZM622.978 159.73H626.188V186.4H622.978V159.73ZM605.608 179.68V162.28H608.848V176.95C612.538 176.89 616.468 176.59 620.608 175.75L620.998 178.45C616.378 179.38 612.028 179.68 607.948 179.68H605.608ZM647.849 159.7H651.089V169.87H655.139V172.54H651.089V186.46H647.849V159.7ZM631.439 179.92V162.25H643.859V164.86H634.649V177.22C638.879 177.19 642.119 177.04 645.719 176.35L646.049 179.05C641.999 179.8 638.399 179.92 633.599 179.92H631.439ZM662.669 161.41L662.159 178.21H659.219L658.649 161.41H662.669ZM658.829 182.83C658.829 181.75 659.609 181 660.719 181C661.769 181 662.549 181.75 662.549 182.83C662.549 183.91 661.769 184.69 660.719 184.69C659.609 184.69 658.829 183.91 658.829 182.83Z" fill="#232323"/>
<defs>
<filter id="filter0_b_2406_3173" x="250.5" y="-30" width="163.779" height="163.779" filterUnits="userSpaceOnUse" color-interpolation-filters="sRGB">
<feFlood flood-opacity="0" result="BackgroundImageFix"/>
<feGaussianBlur in="BackgroundImageFix" stdDeviation="15"/>
<feComposite in2="SourceAlpha" operator="in" result="effect1_backgroundBlur_2406_3173"/>
<feBlend mode="normal" in="SourceGraphic" in2="effect1_backgroundBlur_2406_3173" result="shape"/>
</filter>
<filter id="filter1_b_2406_3173" x="250.5" y="-30" width="163.779" height="163.779" filterUnits="userSpaceOnUse" color-interpolation-filters="sRGB">
<feFlood flood-opacity="0" result="BackgroundImageFix"/>
<feGaussianBlur in="BackgroundImageFix" stdDeviation="15"/>
<feComposite in2="SourceAlpha" operator="in" result="effect1_backgroundBlur_2406_3173"/>
<feBlend mode="normal" in="SourceGraphic" in2="effect1_backgroundBlur_2406_3173" result="shape"/>
</filter>
<linearGradient id="paint0_linear_2406_3173" x1="291.606" y1="9.57486" x2="403.621" y2="67.5752" gradientUnits="userSpaceOnUse">
<stop stop-color="#FF244A"/>
<stop offset="0.447036" stop-color="#FF244A" stop-opacity="0.955296"/>
<stop offset="1" stop-color="#FF244A" stop-opacity="0.9"/>
</linearGradient>
<linearGradient id="paint1_linear_2406_3173" x1="295.435" y1="-3.7064" x2="392.71" y2="53.0893" gradientUnits="userSpaceOnUse">
<stop offset="0.188941" stop-color="#FF244A" stop-opacity="0.523483"/>
<stop offset="0.526042" stop-color="#FF244A"/>
<stop offset="1" stop-color="#FF244A" stop-opacity="0.1"/>
</linearGradient>
<radialGradient id="paint2_radial_2406_3173" cx="0" cy="0" r="1" gradientUnits="userSpaceOnUse" gradientTransform="translate(296.009 100.382) rotate(-50.9773) scale(81.5007 133.263)">
<stop stop-color="white"/>
<stop offset="1" stop-color="white" stop-opacity="0"/>
</radialGradient>
</defs>
</svg>
