<svg width="166" height="73" viewBox="0 0 166 73" fill="none" xmlns="http://www.w3.org/2000/svg">
<path fill-rule="evenodd" clip-rule="evenodd" d="M18.0149 29.4376C18.1075 30.3795 18.3282 31.3051 18.6699 32.1869C16.9251 36.0808 13.343 40.347 9.79091 41.7188C6.86349 40.8007 3.58346 41.9728 1.94937 44.7256C0.0410464 47.9404 1.10012 52.0934 4.31487 54.0018C7.52962 55.9101 11.6827 54.851 13.591 51.6363C14.6545 49.8447 14.7964 47.7617 14.1572 45.9382C15.8451 42.2094 20.9618 39.1522 25.5293 38.4223C29.9451 39.6701 34.8179 37.8608 37.2712 33.7279C40.1972 28.7987 38.5733 22.4306 33.644 19.5045C28.7148 16.5784 22.3467 18.2023 19.4206 23.1316C19.4029 23.1614 19.3854 23.1913 19.3681 23.2212C16.4602 23.3896 14.0099 22.7593 12.3844 21.9397C11.9899 20.7292 11.1711 19.6512 9.99028 18.9503C7.40759 17.4172 4.07107 18.268 2.53795 20.8507C1.00482 23.4334 1.85567 26.7699 4.43836 28.303C6.74329 29.6713 9.64862 29.1408 11.3367 27.175C14.4602 27.5676 17.2105 28.6865 18.0149 29.4376Z" fill="#FF244A"/>
<path d="M18.6699 32.1869L19.1262 32.3914L19.2116 32.2009L19.1361 32.0062L18.6699 32.1869ZM18.0149 29.4376L18.5125 29.3887L18.494 29.2009L18.3561 29.0722L18.0149 29.4376ZM9.79091 41.7188L9.64128 42.1959L9.80803 42.2482L9.97104 42.1853L9.79091 41.7188ZM1.94937 44.7256L1.51941 44.4704H1.51941L1.94937 44.7256ZM4.31487 54.0018L4.05965 54.4317H4.05965L4.31487 54.0018ZM13.591 51.6363L14.021 51.8915L13.591 51.6363ZM14.1572 45.9382L13.7017 45.732L13.619 45.9145L13.6853 46.1036L14.1572 45.9382ZM25.5293 38.4223L25.6652 37.9412L25.5592 37.9112L25.4504 37.9286L25.5293 38.4223ZM37.2712 33.7279L37.7011 33.9832L37.2712 33.7279ZM33.644 19.5045L33.3888 19.9345V19.9345L33.644 19.5045ZM19.4206 23.1316L18.9907 22.8764L18.9907 22.8764L19.4206 23.1316ZM19.3681 23.2212L19.397 23.7203L19.6655 23.7048L19.8005 23.4722L19.3681 23.2212ZM12.3844 21.9397L11.909 22.0946L11.9734 22.2925L12.1593 22.3862L12.3844 21.9397ZM9.99028 18.9503L9.73506 19.3802V19.3802L9.99028 18.9503ZM2.53795 20.8507L2.10799 20.5955L2.53795 20.8507ZM4.43836 28.303L4.69359 27.8731L4.43836 28.303ZM11.3367 27.175L11.399 26.6789L11.1324 26.6454L10.9573 26.8493L11.3367 27.175ZM19.1361 32.0062C18.8108 31.1667 18.6007 30.2854 18.5125 29.3887L17.5173 29.4865C17.6144 30.4736 17.8456 31.4435 18.2037 32.3676L19.1361 32.0062ZM9.97104 42.1853C11.8468 41.4609 13.6923 39.991 15.2792 38.2338C16.8704 36.4719 18.2315 34.3881 19.1262 32.3914L18.2136 31.9824C17.3636 33.8795 16.0612 35.8758 14.5371 37.5635C13.0087 39.2559 11.2872 40.605 9.61078 41.2524L9.97104 42.1853ZM2.37932 44.9808C3.89238 42.432 6.93012 41.3456 9.64128 42.1959L9.94055 41.2418C6.79687 40.2558 3.27454 41.5137 1.51941 44.4704L2.37932 44.9808ZM4.5701 53.5718C1.5928 51.8045 0.611957 47.9581 2.37932 44.9808L1.51941 44.4704C-0.529864 47.9226 0.607436 52.3824 4.05965 54.4317L4.5701 53.5718ZM13.1611 51.381C11.3937 54.3583 7.54739 55.3392 4.5701 53.5718L4.05965 54.4317C7.51186 56.481 11.9717 55.3437 14.021 51.8915L13.1611 51.381ZM13.6853 46.1036C14.2777 47.7935 14.1459 49.7219 13.1611 51.381L14.021 51.8915C15.1631 49.9674 15.3151 47.7298 14.629 45.7728L13.6853 46.1036ZM25.4504 37.9286C23.0938 38.3052 20.6083 39.2787 18.4935 40.6348C16.3838 41.9875 14.5989 43.7498 13.7017 45.732L14.6127 46.1444C15.4033 44.3977 17.0208 42.767 19.0333 41.4766C21.0406 40.1894 23.3972 39.2694 25.6082 38.9161L25.4504 37.9286ZM36.8412 33.4727C34.5064 37.4058 29.8685 39.1288 25.6652 37.9412L25.3933 38.9035C30.0217 40.2113 35.1293 38.3157 37.7011 33.9832L36.8412 33.4727ZM33.3888 19.9345C38.0807 22.7196 39.6263 28.7809 36.8412 33.4727L37.7011 33.9832C40.7682 28.8164 39.066 22.1416 33.8993 19.0746L33.3888 19.9345ZM19.8506 23.3869C22.6357 18.695 28.697 17.1493 33.3888 19.9345L33.8993 19.0746C28.7325 16.0075 22.0577 17.7097 18.9907 22.8764L19.8506 23.3869ZM19.8005 23.4722C19.817 23.4437 19.8337 23.4153 19.8506 23.3868L18.9907 22.8764C18.9722 22.9076 18.9538 22.9388 18.9356 22.9702L19.8005 23.4722ZM19.3392 22.722C16.5159 22.8855 14.1536 22.2718 12.6095 21.4932L12.1593 22.3862C13.8662 23.2468 16.4045 23.8936 19.397 23.7203L19.3392 22.722ZM12.8598 21.7848C12.4292 20.4633 11.5346 19.2856 10.2455 18.5203L9.73506 19.3802C10.8076 20.0169 11.5507 20.995 11.909 22.0946L12.8598 21.7848ZM10.2455 18.5203C7.42536 16.8463 3.78207 17.7753 2.10799 20.5955L2.9679 21.1059C4.36006 18.7607 7.38982 17.9881 9.73506 19.3802L10.2455 18.5203ZM2.10799 20.5955C0.433914 23.4156 1.36299 27.0589 4.18314 28.733L4.69359 27.8731C2.34835 26.4809 1.57574 23.4512 2.9679 21.1059L2.10799 20.5955ZM4.18314 28.733C6.70043 30.2273 9.87253 29.6475 11.716 27.5008L10.9573 26.8493C9.42472 28.634 6.78615 29.1153 4.69359 27.8731L4.18314 28.733ZM11.2743 27.6711C12.7979 27.8626 14.2307 28.2315 15.3766 28.6425C16.5447 29.0614 17.3505 29.5013 17.6736 29.8031L18.3561 29.0722C17.8749 28.6228 16.9033 28.1277 15.7142 27.7012C14.5031 27.2668 12.999 26.88 11.399 26.6789L11.2743 27.6711Z" fill="#FF244A"/>
<mask id="path-3-outside-1_448_76" maskUnits="userSpaceOnUse" x="47.7266" y="15" width="117" height="34" fill="black">
<rect fill="white" x="47.7266" y="15" width="117" height="34"/>
<path d="M50.2266 27.2L59.1766 18.25V23H65.9266V27.2H59.1766V37.5C59.1766 38.6667 59.3599 39.6333 59.7266 40.4C60.1266 41.1667 60.6932 41.7167 61.4266 42.05C62.1599 42.35 62.8432 42.55 63.4766 42.65C64.1432 42.75 64.9599 42.8 65.9266 42.8V47C62.0932 47 59.2599 46.2667 57.4266 44.8C55.5932 43.3333 54.6766 40.9 54.6766 37.5V27.2H50.2266ZM73.4453 26.15C75.7786 23.7167 78.6953 22.5 82.1953 22.5C83.8953 22.5 85.4786 22.8333 86.9453 23.5C88.4453 24.1333 89.7453 25.0167 90.8453 26.15C91.9786 27.2833 92.862 28.6167 93.4953 30.15C94.1286 31.65 94.4453 33.2667 94.4453 35C94.4453 36.7333 94.1286 38.3667 93.4953 39.9C92.8953 41.4 92.0453 42.7167 90.9453 43.85C89.8453 44.9833 88.5453 45.8833 87.0453 46.55C85.5453 47.1833 83.9286 47.5 82.1953 47.5C80.4286 47.5 78.7953 47.1833 77.2953 46.55C75.8286 45.8833 74.5453 44.9833 73.4453 43.85C72.3453 42.7167 71.4786 41.4 70.8453 39.9C70.2453 38.3667 69.9453 36.7333 69.9453 35C69.9453 31.4667 71.112 28.5167 73.4453 26.15ZM82.1953 26.7C79.862 26.7 77.9786 27.4667 76.5453 29C75.1453 30.5333 74.4453 32.5333 74.4453 35C74.4453 37.4667 75.1453 39.4667 76.5453 41C77.9786 42.5333 79.862 43.3 82.1953 43.3C84.562 43.3 86.4453 42.5333 87.8453 41C89.2453 39.4333 89.9453 37.4333 89.9453 35C89.9453 32.5667 89.2453 30.5833 87.8453 29.05C86.4453 27.4833 84.562 26.7 82.1953 26.7ZM98.0992 46.6C97.4992 46 97.1992 45.2667 97.1992 44.4C97.1992 43.5333 97.4992 42.8 98.0992 42.2C98.6992 41.6 99.4326 41.3 100.299 41.3C101.166 41.3 101.899 41.6 102.499 42.2C103.099 42.8 103.399 43.5333 103.399 44.4C103.399 45.2667 103.099 46 102.499 46.6C101.899 47.2 101.166 47.5 100.299 47.5C99.4326 47.5 98.6992 47.2 98.0992 46.6ZM131.566 22.5C137.233 22.7333 140.066 25.0833 140.066 29.55C140.066 35.1167 136.416 37.9 129.116 37.9H127.066V34.05H129.466C131.7 34.05 133.25 33.7167 134.116 33.05C134.983 32.35 135.416 31.2 135.416 29.6C135.416 28.5667 135.033 27.8 134.266 27.3C133.5 26.7667 132.516 26.5 131.316 26.5C128.95 26.5 127.083 27.3333 125.716 29C124.383 30.6667 123.716 32.6667 123.716 35C123.716 37.4667 124.433 39.4667 125.866 41C127.333 42.5333 129.233 43.3 131.566 43.3C133.666 43.3 135.383 42.7833 136.716 41.75L139.716 44.7C137.416 46.5667 134.7 47.5 131.566 47.5C127.766 47.5 124.733 46.3833 122.466 44.15C120.2 41.9167 119.066 39.0333 119.066 35.5C119.066 31.5667 120.183 28.3833 122.416 25.95C124.65 23.5167 127.7 22.3667 131.566 22.5ZM158.911 23H163.311V23.7C163.311 28.2 161.511 31.8 157.911 34.5C159.644 35.7667 160.977 37.35 161.911 39.25C162.844 41.1167 163.311 43.1 163.311 45.2V47H158.911V45.2C158.911 43.3333 158.461 41.65 157.561 40.15C156.661 38.65 155.327 37.5 153.561 36.7C151.827 37.5333 150.494 38.7333 149.561 40.3C148.661 41.8667 148.211 43.6 148.211 45.5V47H143.811V45.5C143.811 40.8333 145.611 37.1667 149.211 34.5C145.611 31.8 143.811 28.1 143.811 23.4V23H148.211V23.4C148.211 25.3 148.661 27.0333 149.561 28.6C150.494 30.1667 151.827 31.3833 153.561 32.25C157.127 30.5833 158.911 27.7333 158.911 23.7V23Z"/>
</mask>
<path d="M50.2266 27.2L59.1766 18.25V23H65.9266V27.2H59.1766V37.5C59.1766 38.6667 59.3599 39.6333 59.7266 40.4C60.1266 41.1667 60.6932 41.7167 61.4266 42.05C62.1599 42.35 62.8432 42.55 63.4766 42.65C64.1432 42.75 64.9599 42.8 65.9266 42.8V47C62.0932 47 59.2599 46.2667 57.4266 44.8C55.5932 43.3333 54.6766 40.9 54.6766 37.5V27.2H50.2266ZM73.4453 26.15C75.7786 23.7167 78.6953 22.5 82.1953 22.5C83.8953 22.5 85.4786 22.8333 86.9453 23.5C88.4453 24.1333 89.7453 25.0167 90.8453 26.15C91.9786 27.2833 92.862 28.6167 93.4953 30.15C94.1286 31.65 94.4453 33.2667 94.4453 35C94.4453 36.7333 94.1286 38.3667 93.4953 39.9C92.8953 41.4 92.0453 42.7167 90.9453 43.85C89.8453 44.9833 88.5453 45.8833 87.0453 46.55C85.5453 47.1833 83.9286 47.5 82.1953 47.5C80.4286 47.5 78.7953 47.1833 77.2953 46.55C75.8286 45.8833 74.5453 44.9833 73.4453 43.85C72.3453 42.7167 71.4786 41.4 70.8453 39.9C70.2453 38.3667 69.9453 36.7333 69.9453 35C69.9453 31.4667 71.112 28.5167 73.4453 26.15ZM82.1953 26.7C79.862 26.7 77.9786 27.4667 76.5453 29C75.1453 30.5333 74.4453 32.5333 74.4453 35C74.4453 37.4667 75.1453 39.4667 76.5453 41C77.9786 42.5333 79.862 43.3 82.1953 43.3C84.562 43.3 86.4453 42.5333 87.8453 41C89.2453 39.4333 89.9453 37.4333 89.9453 35C89.9453 32.5667 89.2453 30.5833 87.8453 29.05C86.4453 27.4833 84.562 26.7 82.1953 26.7ZM98.0992 46.6C97.4992 46 97.1992 45.2667 97.1992 44.4C97.1992 43.5333 97.4992 42.8 98.0992 42.2C98.6992 41.6 99.4326 41.3 100.299 41.3C101.166 41.3 101.899 41.6 102.499 42.2C103.099 42.8 103.399 43.5333 103.399 44.4C103.399 45.2667 103.099 46 102.499 46.6C101.899 47.2 101.166 47.5 100.299 47.5C99.4326 47.5 98.6992 47.2 98.0992 46.6ZM131.566 22.5C137.233 22.7333 140.066 25.0833 140.066 29.55C140.066 35.1167 136.416 37.9 129.116 37.9H127.066V34.05H129.466C131.7 34.05 133.25 33.7167 134.116 33.05C134.983 32.35 135.416 31.2 135.416 29.6C135.416 28.5667 135.033 27.8 134.266 27.3C133.5 26.7667 132.516 26.5 131.316 26.5C128.95 26.5 127.083 27.3333 125.716 29C124.383 30.6667 123.716 32.6667 123.716 35C123.716 37.4667 124.433 39.4667 125.866 41C127.333 42.5333 129.233 43.3 131.566 43.3C133.666 43.3 135.383 42.7833 136.716 41.75L139.716 44.7C137.416 46.5667 134.7 47.5 131.566 47.5C127.766 47.5 124.733 46.3833 122.466 44.15C120.2 41.9167 119.066 39.0333 119.066 35.5C119.066 31.5667 120.183 28.3833 122.416 25.95C124.65 23.5167 127.7 22.3667 131.566 22.5ZM158.911 23H163.311V23.7C163.311 28.2 161.511 31.8 157.911 34.5C159.644 35.7667 160.977 37.35 161.911 39.25C162.844 41.1167 163.311 43.1 163.311 45.2V47H158.911V45.2C158.911 43.3333 158.461 41.65 157.561 40.15C156.661 38.65 155.327 37.5 153.561 36.7C151.827 37.5333 150.494 38.7333 149.561 40.3C148.661 41.8667 148.211 43.6 148.211 45.5V47H143.811V45.5C143.811 40.8333 145.611 37.1667 149.211 34.5C145.611 31.8 143.811 28.1 143.811 23.4V23H148.211V23.4C148.211 25.3 148.661 27.0333 149.561 28.6C150.494 30.1667 151.827 31.3833 153.561 32.25C157.127 30.5833 158.911 27.7333 158.911 23.7V23Z" fill="#FF244A"/>
<path d="M50.2266 27.2L49.5195 26.4929L47.8123 28.2H50.2266V27.2ZM59.1766 18.25H60.1766V15.8358L58.4695 17.5429L59.1766 18.25ZM59.1766 23H58.1766V24H59.1766V23ZM65.9266 23H66.9266V22H65.9266V23ZM65.9266 27.2V28.2H66.9266V27.2H65.9266ZM59.1766 27.2V26.2H58.1766V27.2H59.1766ZM59.7266 40.4L58.8244 40.8315L58.8319 40.8471L58.84 40.8626L59.7266 40.4ZM61.4266 42.05L61.0128 42.9604L61.0302 42.9683L61.0479 42.9755L61.4266 42.05ZM63.4766 42.65L63.3206 43.6378L63.3282 43.6389L63.4766 42.65ZM65.9266 42.8H66.9266V41.8H65.9266V42.8ZM65.9266 47V48H66.9266V47H65.9266ZM57.4266 44.8L58.0513 44.0191L57.4266 44.8ZM54.6766 27.2H55.6766V26.2H54.6766V27.2ZM50.9337 27.9071L59.8837 18.9571L58.4695 17.5429L49.5195 26.4929L50.9337 27.9071ZM58.1766 18.25V23H60.1766V18.25H58.1766ZM59.1766 24H65.9266V22H59.1766V24ZM64.9266 23V27.2H66.9266V23H64.9266ZM65.9266 26.2H59.1766V28.2H65.9266V26.2ZM58.1766 27.2V37.5H60.1766V27.2H58.1766ZM58.1766 37.5C58.1766 38.7635 58.374 39.8896 58.8244 40.8315L60.6287 39.9685C60.3458 39.3771 60.1766 38.5699 60.1766 37.5H58.1766ZM58.84 40.8626C59.3351 41.8115 60.0609 42.5277 61.0128 42.9604L61.8404 41.1396C61.3256 40.9056 60.918 40.5218 60.6131 39.9374L58.84 40.8626ZM61.0479 42.9755C61.8368 43.2983 62.5955 43.5233 63.3206 43.6378L63.6325 41.6622C63.091 41.5767 62.483 41.4017 61.8052 41.1245L61.0479 42.9755ZM63.3282 43.6389C64.06 43.7487 64.9296 43.8 65.9266 43.8V41.8C64.9902 41.8 64.2265 41.7513 63.6249 41.6611L63.3282 43.6389ZM64.9266 42.8V47H66.9266V42.8H64.9266ZM65.9266 46C62.1874 46 59.6257 45.2787 58.0513 44.0191L56.8019 45.5809C58.8941 47.2546 61.9991 48 65.9266 48V46ZM58.0513 44.0191C56.5471 42.8158 55.6766 40.7377 55.6766 37.5H53.6766C53.6766 41.0623 54.6393 43.8508 56.8019 45.5809L58.0513 44.0191ZM55.6766 37.5V27.2H53.6766V37.5H55.6766ZM54.6766 26.2H50.2266V28.2H54.6766V26.2ZM73.4453 26.15L74.1575 26.8521L74.1671 26.8421L73.4453 26.15ZM86.9453 23.5L86.5315 24.4104L86.5439 24.416L86.5563 24.4212L86.9453 23.5ZM90.8453 26.15L90.1277 26.8465L90.1329 26.8518L90.1382 26.8571L90.8453 26.15ZM93.4953 30.15L92.571 30.5318L92.5741 30.539L93.4953 30.15ZM93.4953 39.9L92.571 39.5182L92.5668 39.5286L93.4953 39.9ZM90.9453 43.85L91.6629 44.5465L90.9453 43.85ZM87.0453 46.55L87.4343 47.4712L87.4429 47.4676L87.4515 47.4638L87.0453 46.55ZM77.2953 46.55L76.8815 47.4604L76.8939 47.466L76.9063 47.4712L77.2953 46.55ZM73.4453 43.85L72.7277 44.5465L73.4453 43.85ZM70.8453 39.9L69.9141 40.2644L69.9189 40.2768L69.9241 40.289L70.8453 39.9ZM76.5453 29L75.8147 28.3171L75.8068 28.3257L76.5453 29ZM76.5453 41L75.8068 41.6743L75.8148 41.6829L76.5453 41ZM87.8453 41L88.5838 41.6743L88.591 41.6663L87.8453 41ZM87.8453 29.05L87.0996 29.7164L87.1068 29.7243L87.8453 29.05ZM74.1671 26.8421C76.3039 24.6137 78.9561 23.5 82.1953 23.5V21.5C78.4345 21.5 75.2534 22.8196 72.7235 25.4579L74.1671 26.8421ZM82.1953 23.5C83.7606 23.5 85.2019 23.806 86.5315 24.4104L87.3591 22.5896C85.7554 21.8607 84.03 21.5 82.1953 21.5V23.5ZM86.5563 24.4212C87.9368 25.0041 89.124 25.8123 90.1277 26.8465L91.5629 25.4535C90.3666 24.221 88.9539 23.2626 87.3343 22.5787L86.5563 24.4212ZM90.1382 26.8571C91.1752 27.8941 91.9862 29.1158 92.5711 30.5318L94.4196 29.7682C93.7378 28.1176 92.7821 26.6726 91.5524 25.4429L90.1382 26.8571ZM92.5741 30.539C93.1521 31.9081 93.4453 33.3915 93.4453 35H95.4453C95.4453 33.1418 95.1052 31.3919 94.4166 29.761L92.5741 30.539ZM93.4453 35C93.4453 36.6083 93.1521 38.1114 92.5711 39.5182L94.4196 40.2818C95.1051 38.622 95.4453 36.8583 95.4453 35H93.4453ZM92.5668 39.5286C92.0141 40.9104 91.2348 42.1159 90.2277 43.1535L91.6629 44.5465C92.8558 43.3174 93.7765 41.8896 94.4238 40.2714L92.5668 39.5286ZM90.2277 43.1535C89.2202 44.1916 88.0271 45.0193 86.6392 45.6362L87.4515 47.4638C89.0635 46.7473 90.4704 45.7751 91.6629 44.5465L90.2277 43.1535ZM86.6563 45.6287C85.2872 46.2068 83.8038 46.5 82.1953 46.5V48.5C84.0535 48.5 85.8034 48.1599 87.4343 47.4712L86.6563 45.6287ZM82.1953 46.5C80.5508 46.5 79.0511 46.2058 77.6843 45.6287L76.9063 47.4712C78.5396 48.1608 80.3065 48.5 82.1953 48.5V46.5ZM77.7091 45.6396C76.3538 45.0236 75.1741 44.1954 74.1629 43.1535L72.7277 44.5465C73.9165 45.7713 75.3034 46.7431 76.8815 47.4604L77.7091 45.6396ZM74.1629 43.1535C73.1519 42.1119 72.3532 40.9004 71.7666 39.511L69.9241 40.289C70.6041 41.8996 71.5387 43.3214 72.7277 44.5465L74.1629 43.1535ZM71.7766 39.5356C71.2244 38.1244 70.9453 36.6153 70.9453 35H68.9453C68.9453 36.8514 69.2663 38.6089 69.9141 40.2644L71.7766 39.5356ZM70.9453 35C70.9453 31.7111 72.0211 29.0189 74.1574 26.8521L72.7332 25.4479C70.2029 28.0144 68.9453 31.2223 68.9453 35H70.9453ZM82.1953 25.7C79.6193 25.7 77.4594 26.5578 75.8148 28.3171L77.2758 29.6829C78.4979 28.3756 80.1047 27.7 82.1953 27.7V25.7ZM75.8068 28.3257C74.2079 30.077 73.4453 32.3335 73.4453 35H75.4453C75.4453 32.7332 76.0828 30.9897 77.2838 29.6743L75.8068 28.3257ZM73.4453 35C73.4453 37.6665 74.2079 39.923 75.8068 41.6743L77.2838 40.3257C76.0828 39.0103 75.4453 37.2668 75.4453 35H73.4453ZM75.8148 41.6829C77.4594 43.4422 79.6193 44.3 82.1953 44.3V42.3C80.1047 42.3 78.4979 41.6244 77.2758 40.3171L75.8148 41.6829ZM82.1953 44.3C84.7996 44.3 86.9669 43.4451 88.5838 41.6743L87.1068 40.3257C85.9237 41.6216 84.3243 42.3 82.1953 42.3V44.3ZM88.591 41.6663C90.1804 39.8877 90.9453 37.6378 90.9453 35H88.9453C88.9453 37.2289 88.3102 38.979 87.0997 40.3337L88.591 41.6663ZM90.9453 35C90.9453 32.3628 90.1805 30.1245 88.5838 28.3757L87.1068 29.7243C88.3102 31.0422 88.9453 32.7705 88.9453 35H90.9453ZM88.591 28.3837C86.9761 26.5766 84.8067 25.7 82.1953 25.7V27.7C84.3173 27.7 85.9145 28.3901 87.0997 29.7163L88.591 28.3837ZM98.0992 46.6L97.3921 47.3071L98.0992 46.6ZM98.0992 42.2L98.8063 42.9071L98.0992 42.2ZM102.499 42.2L101.792 42.9071L102.499 42.2ZM102.499 46.6L101.792 45.8929L102.499 46.6ZM98.8063 45.8929C98.3983 45.4849 98.1992 45.0078 98.1992 44.4H96.1992C96.1992 45.5255 96.6001 46.5151 97.3921 47.3071L98.8063 45.8929ZM98.1992 44.4C98.1992 43.7922 98.3983 43.3151 98.8063 42.9071L97.3921 41.4929C96.6001 42.2849 96.1992 43.2745 96.1992 44.4H98.1992ZM98.8063 42.9071C99.2143 42.4991 99.6914 42.3 100.299 42.3V40.3C99.1737 40.3 98.1841 40.7009 97.3921 41.4929L98.8063 42.9071ZM100.299 42.3C100.907 42.3 101.384 42.4991 101.792 42.9071L103.206 41.4929C102.414 40.7009 101.425 40.3 100.299 40.3V42.3ZM101.792 42.9071C102.2 43.3151 102.399 43.7922 102.399 44.4H104.399C104.399 43.2745 103.998 42.2849 103.206 41.4929L101.792 42.9071ZM102.399 44.4C102.399 45.0078 102.2 45.4849 101.792 45.8929L103.206 47.3071C103.998 46.5151 104.399 45.5255 104.399 44.4H102.399ZM101.792 45.8929C101.384 46.3009 100.907 46.5 100.299 46.5V48.5C101.425 48.5 102.414 48.0991 103.206 47.3071L101.792 45.8929ZM100.299 46.5C99.6914 46.5 99.2143 46.3009 98.8063 45.8929L97.3921 47.3071C98.1841 48.0991 99.1737 48.5 100.299 48.5V46.5ZM131.566 22.5L131.608 21.5008L131.601 21.5006L131.566 22.5ZM127.066 37.9H126.066V38.9H127.066V37.9ZM127.066 34.05V33.05H126.066V34.05H127.066ZM134.116 33.05L134.726 33.8426L134.736 33.8354L134.745 33.8279L134.116 33.05ZM134.266 27.3L133.695 28.1209L133.708 28.1294L133.72 28.1376L134.266 27.3ZM125.716 29L124.943 28.3659L124.936 28.3753L125.716 29ZM125.866 41L125.136 41.6829L125.144 41.6912L125.866 41ZM136.716 41.75L137.418 41.037L136.795 40.4243L136.104 40.9596L136.716 41.75ZM139.716 44.7L140.347 45.4765L141.215 44.7714L140.418 43.987L139.716 44.7ZM122.466 44.15L123.168 43.4377L122.466 44.15ZM122.416 25.95L121.68 25.2738L122.416 25.95ZM131.525 23.4992C134.251 23.6114 136.124 24.2296 137.303 25.2072C138.442 26.1517 139.066 27.5444 139.066 29.55H141.066C141.066 27.0889 140.274 25.0733 138.58 23.6678C136.925 22.2954 134.548 21.6219 131.608 21.5008L131.525 23.4992ZM139.066 29.55C139.066 32.0955 138.246 33.8556 136.723 35.0173C135.148 36.2181 132.668 36.9 129.116 36.9V38.9C132.865 38.9 135.86 38.1903 137.935 36.6077C140.062 34.986 141.066 32.5712 141.066 29.55H139.066ZM129.116 36.9H127.066V38.9H129.116V36.9ZM128.066 37.9V34.05H126.066V37.9H128.066ZM127.066 35.05H129.466V33.05H127.066V35.05ZM129.466 35.05C131.729 35.05 133.577 34.7262 134.726 33.8426L133.507 32.2574C132.922 32.7071 131.67 33.05 129.466 33.05V35.05ZM134.745 33.8279C135.936 32.866 136.416 31.3649 136.416 29.6H134.416C134.416 31.0351 134.03 31.834 133.488 32.2721L134.745 33.8279ZM136.416 29.6C136.416 28.28 135.903 27.1733 134.813 26.4624L133.72 28.1376C134.163 28.4267 134.416 28.8534 134.416 29.6H136.416ZM134.837 26.4791C133.861 25.7999 132.663 25.5 131.316 25.5V27.5C132.37 27.5 133.138 27.7334 133.695 28.1209L134.837 26.4791ZM131.316 25.5C128.684 25.5 126.52 26.443 124.943 28.3659L126.49 29.6341C127.646 28.2237 129.216 27.5 131.316 27.5V25.5ZM124.936 28.3753C123.447 30.2361 122.716 32.4622 122.716 35H124.716C124.716 32.8712 125.319 31.0972 126.497 29.6247L124.936 28.3753ZM122.716 35C122.716 37.6729 123.5 39.9324 125.136 41.6829L126.597 40.3171C125.367 39.0009 124.716 37.2605 124.716 35H122.716ZM125.144 41.6912C126.819 43.4425 128.99 44.3 131.566 44.3V42.3C129.476 42.3 127.847 41.6241 126.589 40.3088L125.144 41.6912ZM131.566 44.3C133.833 44.3 135.781 43.74 137.329 42.5404L136.104 40.9596C134.985 41.8266 133.5 42.3 131.566 42.3V44.3ZM136.015 42.463L139.015 45.413L140.418 43.987L137.418 41.037L136.015 42.463ZM139.086 43.9235C136.975 45.6368 134.485 46.5 131.566 46.5V48.5C134.915 48.5 137.858 47.4965 140.347 45.4765L139.086 43.9235ZM131.566 46.5C127.975 46.5 125.212 45.4516 123.168 43.4377L121.765 44.8623C124.254 47.315 127.558 48.5 131.566 48.5V46.5ZM123.168 43.4377C121.114 41.4139 120.066 38.798 120.066 35.5H118.066C118.066 39.2687 119.285 42.4194 121.765 44.8623L123.168 43.4377ZM120.066 35.5C120.066 31.7664 121.12 28.8408 123.153 26.6262L121.68 25.2738C119.246 27.9258 118.066 31.3669 118.066 35.5H120.066ZM123.153 26.6262C125.154 24.4458 127.902 23.3742 131.532 23.4994L131.601 21.5006C127.498 21.3591 124.145 22.5876 121.68 25.2738L123.153 26.6262ZM158.911 23V22H157.911V23H158.911ZM163.311 23H164.311V22H163.311V23ZM157.911 34.5L157.311 33.7L156.23 34.5104L157.321 35.3074L157.911 34.5ZM161.911 39.25L161.013 39.6909L161.016 39.6972L161.911 39.25ZM163.311 47V48H164.311V47H163.311ZM158.911 47H157.911V48H158.911V47ZM157.561 40.15L156.703 40.6645L157.561 40.15ZM153.561 36.7L153.973 35.789L153.548 35.5965L153.127 35.7987L153.561 36.7ZM149.561 40.3L148.701 39.7882L148.697 39.795L148.693 39.8019L149.561 40.3ZM148.211 47V48H149.211V47H148.211ZM143.811 47H142.811V48H143.811V47ZM149.211 34.5L149.806 35.3036L150.884 34.505L149.811 33.7L149.211 34.5ZM143.811 23V22H142.811V23H143.811ZM148.211 23H149.211V22H148.211V23ZM149.561 28.6L148.693 29.0981L148.697 29.105L148.701 29.1118L149.561 28.6ZM153.561 32.25L153.113 33.1444L153.546 33.3607L153.984 33.156L153.561 32.25ZM158.911 24H163.311V22H158.911V24ZM162.311 23V23.7H164.311V23H162.311ZM162.311 23.7C162.311 27.8852 160.659 31.1889 157.311 33.7L158.511 35.3C162.362 32.4111 164.311 28.5148 164.311 23.7H162.311ZM157.321 35.3074C158.925 36.48 160.152 37.9383 161.013 39.6909L162.808 38.8091C161.802 36.7617 160.363 35.0533 158.501 33.6926L157.321 35.3074ZM161.016 39.6972C161.88 41.4241 162.311 43.2542 162.311 45.2H164.311C164.311 42.9458 163.808 40.8092 162.805 38.8028L161.016 39.6972ZM162.311 45.2V47H164.311V45.2H162.311ZM163.311 46H158.911V48H163.311V46ZM159.911 47V45.2H157.911V47H159.911ZM159.911 45.2C159.911 43.1647 159.418 41.3014 158.418 39.6355L156.703 40.6645C157.504 41.9986 157.911 43.5019 157.911 45.2H159.911ZM158.418 39.6355C157.402 37.9424 155.904 36.6634 153.973 35.789L153.148 37.611C154.751 38.3366 155.919 39.3576 156.703 40.6645L158.418 39.6355ZM153.127 35.7987C151.227 36.7123 149.741 38.0432 148.701 39.7882L150.42 40.8118C151.247 39.4234 152.427 38.3543 153.994 37.6013L153.127 35.7987ZM148.693 39.8019C147.702 41.528 147.211 43.4346 147.211 45.5H149.211C149.211 43.7654 149.619 42.2053 150.428 40.7981L148.693 39.8019ZM147.211 45.5V47H149.211V45.5H147.211ZM148.211 46H143.811V48H148.211V46ZM144.811 47V45.5H142.811V47H144.811ZM144.811 45.5C144.811 41.1347 146.473 37.7726 149.806 35.3036L148.615 33.6964C144.749 36.5607 142.811 40.532 142.811 45.5H144.811ZM149.811 33.7C146.475 31.1985 144.811 27.8016 144.811 23.4H142.811C142.811 28.3984 144.746 32.4015 148.611 35.3L149.811 33.7ZM144.811 23.4V23H142.811V23.4H144.811ZM143.811 24H148.211V22H143.811V24ZM147.211 23V23.4H149.211V23H147.211ZM147.211 23.4C147.211 25.4654 147.702 27.372 148.693 29.0981L150.428 28.1019C149.619 26.6947 149.211 25.1346 149.211 23.4H147.211ZM148.701 29.1118C149.739 30.8532 151.22 32.1978 153.113 33.1444L154.008 31.3556C152.434 30.5688 151.249 29.4801 150.42 28.0882L148.701 29.1118ZM153.984 33.156C155.911 32.2552 157.41 31.0078 158.421 29.3929C159.43 27.7797 159.911 25.8665 159.911 23.7H157.911C157.911 25.5668 157.499 27.0953 156.725 28.3321C155.952 29.5672 154.776 30.5781 153.137 31.344L153.984 33.156ZM159.911 23.7V23H157.911V23.7H159.911Z" fill="#FF244A" mask="url(#path-3-outside-1_448_76)"/>
</svg>
