<svg width="76" height="76" viewBox="0 0 76 76" fill="none" xmlns="http://www.w3.org/2000/svg">
<path d="M76 53.2441C76 65.8118 65.8119 75.9999 53.2442 75.9999C40.6765 75.9999 30.4884 65.8118 30.4884 53.2441C30.4884 40.6764 40.6765 30.4883 53.2442 30.4883C65.8119 30.4883 76 40.6764 76 53.2441Z" fill="#FF244A"/>
<g filter="url(#filter0_b_1581_1560)">
<path d="M0 11.0465C0 4.94569 4.94569 0 11.0465 0H64.0698C70.1706 0 75.1163 4.94569 75.1163 11.0465V37.5581L56.3372 56.3372L37.5581 75.1163H11.0465C4.94569 75.1163 0 70.1706 0 64.0698V11.0465Z" fill="url(#paint0_linear_1581_1560)" fill-opacity="0.3"/>
</g>
<g filter="url(#filter1_b_1581_1560)">
<path fill-rule="evenodd" clip-rule="evenodd" d="M37.5581 75.1163L75.1163 37.5581V11.0465C75.1163 4.94569 70.1706 0 64.0698 0H11.0465C4.94569 0 0 4.94569 0 11.0465V64.0698C0 70.1706 4.94569 75.1163 11.0465 75.1163H37.5581ZM74.8953 37.4477V11.0465C74.8953 5.06771 70.0486 0.22093 64.0698 0.22093H11.0465C5.06771 0.22093 0.22093 5.06771 0.22093 11.0465V64.0698C0.22093 70.0486 5.06771 74.8953 11.0465 74.8953H37.4477V48.6047C37.4477 42.4428 42.4428 37.4477 48.6047 37.4477H74.8953ZM74.6934 37.6686H48.6047C42.5648 37.6686 37.6686 42.5648 37.6686 48.6047V74.6934L74.6934 37.6686Z" fill="url(#paint1_linear_1581_1560)"/>
<path fill-rule="evenodd" clip-rule="evenodd" d="M37.5581 75.1163L75.1163 37.5581V11.0465C75.1163 4.94569 70.1706 0 64.0698 0H11.0465C4.94569 0 0 4.94569 0 11.0465V64.0698C0 70.1706 4.94569 75.1163 11.0465 75.1163H37.5581ZM74.8953 37.4477V11.0465C74.8953 5.06771 70.0486 0.22093 64.0698 0.22093H11.0465C5.06771 0.22093 0.22093 5.06771 0.22093 11.0465V64.0698C0.22093 70.0486 5.06771 74.8953 11.0465 74.8953H37.4477V48.6047C37.4477 42.4428 42.4428 37.4477 48.6047 37.4477H74.8953ZM74.6934 37.6686H48.6047C42.5648 37.6686 37.6686 42.5648 37.6686 48.6047V74.6934L74.6934 37.6686Z" fill="url(#paint2_radial_1581_1560)"/>
</g>
<rect x="10.4113" y="16.6577" width="10.411" height="4.16438" rx="2.08219" fill="white"/>
<rect x="18.4924" y="7.55713" width="19.1367" height="4.10072" rx="2.05036" transform="rotate(113.192 18.4924 7.55713)" fill="white"/>
<rect width="19.1367" height="4.10072" rx="2.05036" transform="matrix(0.393814 0.91919 0.91919 -0.393814 13.5344 7.55664)" fill="white"/>
<rect width="18" height="4" rx="2" transform="matrix(-4.37114e-08 1 1 4.37114e-08 27.0002 10)" fill="white"/>
<circle cx="34" cy="22" r="4.25" stroke="white" stroke-width="3.5"/>
<defs>
<filter id="filter0_b_1581_1560" x="-30" y="-30" width="135.116" height="135.116" filterUnits="userSpaceOnUse" color-interpolation-filters="sRGB">
<feFlood flood-opacity="0" result="BackgroundImageFix"/>
<feGaussianBlur in="BackgroundImageFix" stdDeviation="15"/>
<feComposite in2="SourceAlpha" operator="in" result="effect1_backgroundBlur_1581_1560"/>
<feBlend mode="normal" in="SourceGraphic" in2="effect1_backgroundBlur_1581_1560" result="shape"/>
</filter>
<filter id="filter1_b_1581_1560" x="-30" y="-30" width="135.116" height="135.116" filterUnits="userSpaceOnUse" color-interpolation-filters="sRGB">
<feFlood flood-opacity="0" result="BackgroundImageFix"/>
<feGaussianBlur in="BackgroundImageFix" stdDeviation="15"/>
<feComposite in2="SourceAlpha" operator="in" result="effect1_backgroundBlur_1581_1560"/>
<feBlend mode="normal" in="SourceGraphic" in2="effect1_backgroundBlur_1581_1560" result="shape"/>
</filter>
<linearGradient id="paint0_linear_1581_1560" x1="8.03827" y1="6.93038" x2="89.1164" y2="48.9116" gradientUnits="userSpaceOnUse">
<stop stop-color="#FF244A"/>
<stop offset="0.447036" stop-color="#FF244A" stop-opacity="0.955296"/>
<stop offset="1" stop-color="#FF244A" stop-opacity="0.9"/>
</linearGradient>
<linearGradient id="paint1_linear_1581_1560" x1="10.8101" y1="-2.68272" x2="81.219" y2="38.4265" gradientUnits="userSpaceOnUse">
<stop offset="0.188941" stop-color="#FF244A" stop-opacity="0.523483"/>
<stop offset="0.526042" stop-color="#FF244A"/>
<stop offset="1" stop-color="#FF244A" stop-opacity="0.1"/>
</linearGradient>
<radialGradient id="paint2_radial_1581_1560" cx="0" cy="0" r="1" gradientUnits="userSpaceOnUse" gradientTransform="translate(11.2259 72.6571) rotate(-50.9773) scale(58.991 96.4569)">
<stop stop-color="white"/>
<stop offset="1" stop-color="white" stop-opacity="0"/>
</radialGradient>
</defs>
</svg>
