<svg width="24" height="25" viewBox="0 0 24 25" fill="none" xmlns="http://www.w3.org/2000/svg">
<path d="M17 2.5V4.5M12 2.5V4.5M7 2.5V4.5M8 15.5H12M8 10.5H16M3.5 16.5V9.5C3.5 6.672 3.5 5.257 4.379 4.379C5.257 3.5 6.672 3.5 9.5 3.5H14.5C17.328 3.5 18.743 3.5 19.621 4.379C20.5 5.257 20.5 6.672 20.5 9.5V12.5C20.5 17.214 20.5 19.571 19.035 21.035C17.572 22.5 15.215 22.5 10.5 22.5H9.5C6.672 22.5 5.257 22.5 4.379 21.621C3.5 20.743 3.5 19.328 3.5 16.5Z" stroke="#FF244A" stroke-width="2" stroke-linecap="round" stroke-linejoin="round"/>
<path d="M20.5 15C20.5 15.3283 20.4353 15.6534 20.3097 15.9567C20.1841 16.26 19.9999 16.5356 19.7678 16.7678C19.5356 16.9999 19.26 17.1841 18.9567 17.3097C18.6534 17.4353 18.3283 17.5 18 17.5C17.5 17.5 16.912 17.413 16.427 17.543C16.215 17.5998 16.0217 17.7114 15.8665 17.8665C15.7114 18.0217 15.5998 18.215 15.543 18.427C15.413 18.912 15.5 19.501 15.5 20C15.5 20.663 15.2366 21.2989 14.7678 21.7678C14.2989 22.2366 13.663 22.5 13 22.5" stroke="#FF244A" stroke-width="2" stroke-linecap="round" stroke-linejoin="round"/>
</svg>
