<svg width="218" height="215" viewBox="0 0 218 215" fill="none" xmlns="http://www.w3.org/2000/svg">
<circle cx="107.5" cy="107.5" r="107.5" fill="#EAEAEC"/>
<path fill-rule="evenodd" clip-rule="evenodd" d="M107.179 47C87.8305 47 72.1455 62.685 72.1455 82.0335C72.1455 101.382 87.8305 117.067 107.179 117.067C126.527 117.067 142.212 101.382 142.212 82.0335C142.212 62.685 126.527 47 107.179 47Z" fill="white"/>
<path fill-rule="evenodd" clip-rule="evenodd" d="M107.179 108.66C78.7706 108.66 54.5509 126.575 48.4082 151.192C46.0681 160.57 54.2002 167.516 62.336 167.516H152.022C160.158 167.516 168.29 160.57 165.95 151.192C159.807 126.575 135.587 108.66 107.179 108.66Z" fill="white"/>
<circle cx="187" cy="174" r="30.5" fill="white" stroke="#EAEAEC"/>
<path d="M201.026 163.012H196.537L191.837 158.163C191.676 157.997 191.485 157.865 191.274 157.775C191.064 157.685 190.838 157.638 190.61 157.639H183.666C183.438 157.638 183.212 157.685 183.001 157.775C182.791 157.865 182.599 157.997 182.438 158.163L177.739 163.012H173.25C171.335 163.012 169.778 164.619 169.778 166.594V186.296C169.778 188.272 171.335 189.879 173.25 189.879H201.026C202.941 189.879 204.498 188.272 204.498 186.296V166.594C204.498 164.619 202.941 163.012 201.026 163.012Z" fill="#EAEAEC"/>
<circle cx="187.569" cy="177.014" r="5.45833" fill="#EAEAEC" stroke="white" stroke-width="2"/>
</svg>
