<svg width="169" height="169" viewBox="0 0 169 169" fill="none" xmlns="http://www.w3.org/2000/svg">
<g filter="url(#filter0_d_1271_1058)">
<circle cx="84.5" cy="84.5" r="74.5" fill="white"/>
</g>
<path d="M80.8848 59.9379C80.8848 55.5539 84.3711 52 88.6717 52H114.213C118.513 52 122 55.5539 122 59.9379V73.5911C122 77.975 118.513 81.529 114.213 81.529H88.6717C84.3711 81.529 80.8848 77.975 80.8848 73.5911V59.9379Z" fill="#FF244A"/>
<g filter="url(#filter1_b_1271_1058)">
<path d="M102.066 87.8794C102.066 103.662 89.5149 116.456 74.0328 116.456C58.5507 116.456 46 103.662 46 87.8794C46 72.0971 58.5507 59.303 74.0328 59.303C89.5149 59.303 102.066 72.0971 102.066 87.8794Z" fill="url(#paint0_linear_1271_1058)" fill-opacity="0.3"/>
</g>
<g filter="url(#filter2_b_1271_1058)">
<path fill-rule="evenodd" clip-rule="evenodd" d="M74.0328 116.297C89.4289 116.297 101.91 103.574 101.91 87.8794C101.91 72.1848 89.4289 59.4617 74.0328 59.4617C58.6367 59.4617 46.1557 72.1848 46.1557 87.8794C46.1557 103.574 58.6367 116.297 74.0328 116.297ZM74.0328 116.456C89.5149 116.456 102.066 103.662 102.066 87.8794C102.066 72.0971 89.5149 59.303 74.0328 59.303C58.5507 59.303 46 72.0971 46 87.8794C46 103.662 58.5507 116.456 74.0328 116.456Z" fill="url(#paint1_linear_1271_1058)"/>
<path fill-rule="evenodd" clip-rule="evenodd" d="M74.0328 116.297C89.4289 116.297 101.91 103.574 101.91 87.8794C101.91 72.1848 89.4289 59.4617 74.0328 59.4617C58.6367 59.4617 46.1557 72.1848 46.1557 87.8794C46.1557 103.574 58.6367 116.297 74.0328 116.297ZM74.0328 116.456C89.5149 116.456 102.066 103.662 102.066 87.8794C102.066 72.0971 89.5149 59.303 74.0328 59.303C58.5507 59.303 46 72.0971 46 87.8794C46 103.662 58.5507 116.456 74.0328 116.456Z" fill="url(#paint2_radial_1271_1058)"/>
</g>
<ellipse cx="63.7534" cy="81.5289" rx="3.11475" ry="3.17516" fill="white"/>
<ellipse cx="83.9995" cy="81.5289" rx="3.11475" ry="3.17516" fill="white"/>
<path d="M81.5869 92.9249C82.4864 93.3839 82.8634 94.4925 82.2709 95.3102C81.4593 96.4303 80.4362 97.382 79.2556 98.1058C77.5597 99.1455 75.6088 99.6722 73.6304 99.6243C71.652 99.5765 69.7278 98.9562 68.0821 97.8357C66.9364 97.0555 65.9585 96.0553 65.1999 94.897C64.6465 94.0521 65.0758 92.9624 65.9963 92.5471C66.9355 92.1232 68.0237 92.5731 68.6725 93.3737C69.0889 93.8876 69.5785 94.3398 70.1277 94.7137C71.1925 95.4387 72.4376 95.8401 73.7177 95.8711C74.9978 95.902 76.2602 95.5612 77.3575 94.8885C77.922 94.5424 78.4309 94.1157 78.8701 93.624C79.5575 92.8544 80.6677 92.4558 81.5869 92.9249Z" fill="white"/>
<defs>
<filter id="filter0_d_1271_1058" x="0" y="0" width="169" height="169" filterUnits="userSpaceOnUse" color-interpolation-filters="sRGB">
<feFlood flood-opacity="0" result="BackgroundImageFix"/>
<feColorMatrix in="SourceAlpha" type="matrix" values="0 0 0 0 0 0 0 0 0 0 0 0 0 0 0 0 0 0 127 0" result="hardAlpha"/>
<feOffset/>
<feGaussianBlur stdDeviation="5"/>
<feComposite in2="hardAlpha" operator="out"/>
<feColorMatrix type="matrix" values="0 0 0 0 0 0 0 0 0 0 0 0 0 0 0 0 0 0 0.15 0"/>
<feBlend mode="normal" in2="BackgroundImageFix" result="effect1_dropShadow_1271_1058"/>
<feBlend mode="normal" in="SourceGraphic" in2="effect1_dropShadow_1271_1058" result="shape"/>
</filter>
<filter id="filter1_b_1271_1058" x="16" y="29.303" width="116.065" height="117.153" filterUnits="userSpaceOnUse" color-interpolation-filters="sRGB">
<feFlood flood-opacity="0" result="BackgroundImageFix"/>
<feGaussianBlur in="BackgroundImageFix" stdDeviation="15"/>
<feComposite in2="SourceAlpha" operator="in" result="effect1_backgroundBlur_1271_1058"/>
<feBlend mode="normal" in="SourceGraphic" in2="effect1_backgroundBlur_1271_1058" result="shape"/>
</filter>
<filter id="filter2_b_1271_1058" x="16" y="29.303" width="116.065" height="117.153" filterUnits="userSpaceOnUse" color-interpolation-filters="sRGB">
<feFlood flood-opacity="0" result="BackgroundImageFix"/>
<feGaussianBlur in="BackgroundImageFix" stdDeviation="15"/>
<feComposite in2="SourceAlpha" operator="in" result="effect1_backgroundBlur_1271_1058"/>
<feBlend mode="normal" in="SourceGraphic" in2="effect1_backgroundBlur_1271_1058" result="shape"/>
</filter>
<linearGradient id="paint0_linear_1271_1058" x1="51.9996" y1="64.576" x2="113.001" y2="95.5609" gradientUnits="userSpaceOnUse">
<stop stop-color="#FFA7B6" stop-opacity="0.9"/>
<stop offset="0.447036" stop-color="#FF244A" stop-opacity="0.955296"/>
<stop offset="1" stop-color="#FF8FA2" stop-opacity="0.9"/>
</linearGradient>
<linearGradient id="paint1_linear_1271_1058" x1="54.0685" y1="57.2618" x2="107.129" y2="87.6525" gradientUnits="userSpaceOnUse">
<stop offset="0.188941" stop-color="#FFC4CE" stop-opacity="0.523483"/>
<stop offset="0.526042" stop-color="#FF244A"/>
<stop offset="1" stop-color="#FFBFCA" stop-opacity="0.1"/>
</linearGradient>
<radialGradient id="paint2_radial_1271_1058" cx="0" cy="0" r="1" gradientUnits="userSpaceOnUse" gradientTransform="translate(54.3788 114.585) rotate(-51.5145) scale(44.5472 72.5378)">
<stop stop-color="white"/>
<stop offset="1" stop-color="white" stop-opacity="0"/>
</radialGradient>
</defs>
</svg>
