<svg width="1516" height="498" viewBox="0 0 1516 498" fill="none" xmlns="http://www.w3.org/2000/svg">
<g filter="url(#filter0_d_1917_2908)">
<mask id="path-1-inside-1_1917_2908" fill="white">
<path fill-rule="evenodd" clip-rule="evenodd" d="M26 10C17.1634 10 10 17.1634 10 26V414.596C10 423.433 17.1634 430.596 26 430.596H61.5025L67.4309 476.922C68.6232 486.238 79.4017 490.787 86.6759 485.043L155.629 430.596H1490C1498.84 430.596 1506 423.433 1506 414.596V26C1506 17.1634 1498.84 10 1490 10H26Z"/>
</mask>
<path fill-rule="evenodd" clip-rule="evenodd" d="M26 10C17.1634 10 10 17.1634 10 26V414.596C10 423.433 17.1634 430.596 26 430.596H61.5025L67.4309 476.922C68.6232 486.238 79.4017 490.787 86.6759 485.043L155.629 430.596H1490C1498.84 430.596 1506 423.433 1506 414.596V26C1506 17.1634 1498.84 10 1490 10H26Z" fill="white"/>
<path d="M61.5025 430.596L62.4944 430.469L62.3827 429.596H61.5025V430.596ZM67.4309 476.922L68.4228 476.795L67.4309 476.922ZM86.6759 485.043L86.0562 484.258H86.0562L86.6759 485.043ZM155.629 430.596V429.596H155.282L155.009 429.811L155.629 430.596ZM11 26C11 17.7157 17.7157 11 26 11V9C16.6112 9 9 16.6111 9 26H11ZM11 414.596V26H9V414.596H11ZM26 429.596C17.7157 429.596 11 422.88 11 414.596H9C9 423.985 16.6111 431.596 26 431.596V429.596ZM61.5025 429.596H26V431.596H61.5025V429.596ZM68.4228 476.795L62.4944 430.469L60.5106 430.723L66.439 477.049L68.4228 476.795ZM86.0562 484.258C79.4172 489.501 69.5204 485.372 68.4228 476.795L66.439 477.049C67.7259 487.105 79.3862 492.073 87.2957 485.828L86.0562 484.258ZM155.009 429.811L86.0562 484.258L87.2957 485.828L156.249 431.381L155.009 429.811ZM1490 429.596H155.629V431.596H1490V429.596ZM1505 414.596C1505 422.881 1498.28 429.596 1490 429.596V431.596C1499.39 431.596 1507 423.985 1507 414.596H1505ZM1505 26V414.596H1507V26H1505ZM1490 11C1498.28 11 1505 17.7157 1505 26H1507C1507 16.6112 1499.39 9 1490 9V11ZM26 11H1490V9H26V11Z" fill="#EAEAEA" mask="url(#path-1-inside-1_1917_2908)"/>
</g>
<defs>
<filter id="filter0_d_1917_2908" x="0" y="0" width="1516" height="497.584" filterUnits="userSpaceOnUse" color-interpolation-filters="sRGB">
<feFlood flood-opacity="0" result="BackgroundImageFix"/>
<feColorMatrix in="SourceAlpha" type="matrix" values="0 0 0 0 0 0 0 0 0 0 0 0 0 0 0 0 0 0 127 0" result="hardAlpha"/>
<feOffset/>
<feGaussianBlur stdDeviation="5"/>
<feComposite in2="hardAlpha" operator="out"/>
<feColorMatrix type="matrix" values="0 0 0 0 0 0 0 0 0 0 0 0 0 0 0 0 0 0 0.1 0"/>
<feBlend mode="normal" in2="BackgroundImageFix" result="effect1_dropShadow_1917_2908"/>
<feBlend mode="normal" in="SourceGraphic" in2="effect1_dropShadow_1917_2908" result="shape"/>
</filter>
</defs>
</svg>
