<svg width="496" height="105" viewBox="0 0 496 105" fill="none" xmlns="http://www.w3.org/2000/svg">
<path d="M0.919164 24.43H16.6972V21.992C9.75116 21.532 5.84116 19.416 5.84116 15.782C5.84116 11.688 10.8092 9.526 19.5492 9.526C28.2892 9.526 33.3032 11.688 33.3032 15.782C33.3032 19.416 29.3932 21.532 22.4012 21.992V24.43H38.1792V28.846H0.919164V24.43ZM2.71316 8.284V4.006H16.6972V0.417999H22.4012V4.006H36.2012V8.284H2.71316ZM5.47316 41.082V30.916H11.1312V36.666H33.9932V41.082H5.47316ZM11.6372 15.782C11.6372 17.392 14.0752 18.036 19.5492 18.036C25.0232 18.036 27.5072 17.392 27.5072 15.782C27.5072 14.172 25.0232 13.482 19.5492 13.482C14.0752 13.482 11.6372 14.172 11.6372 15.782ZM41.8142 4.604H64.4462V9.296H56.1662V11.918C56.1662 18.174 59.5242 25.488 66.1942 28.57L63.0662 33.078C58.4662 30.916 55.2002 26.73 53.4062 21.762C51.5662 27.19 48.2082 31.836 43.4702 34.09L40.2502 29.582C46.9202 26.408 50.4622 18.68 50.4622 11.918V9.296H41.8142V4.604ZM67.6202 41.864V0.647998H73.3242V16.472H79.3962V21.164H73.3242V41.864H67.6202ZM107.917 0.647998H113.621V16.794H119.647V21.532H113.621V41.864H107.917V0.647998ZM81.1453 11.32V6.766H90.3453V1.292H96.0953V6.766H105.203V11.32H81.1453ZM82.8473 23.556C82.8473 17.806 87.2633 13.758 93.2433 13.758C99.2233 13.758 103.685 17.806 103.685 23.556C103.685 29.26 99.2233 33.308 93.2433 33.308C87.2633 33.308 82.8473 29.26 82.8473 23.556ZM88.3213 23.556C88.3213 26.73 90.3453 28.662 93.2433 28.662C96.1413 28.662 98.2113 26.73 98.2113 23.556C98.2113 20.336 96.1413 18.358 93.2433 18.358C90.3453 18.358 88.3213 20.336 88.3213 23.556ZM126.18 2.074H131.884V11.872H154.7V16.38H126.18V2.074ZM121.58 25.35V20.796H158.886V25.35H121.58ZM125.812 40.99V28.708H131.516V36.39H154.93V40.99H125.812ZM176.159 4.144H205.967V8.146C205.967 13.252 205.967 19.048 204.403 27.788L198.653 27.19C200.217 19.324 200.263 13.528 200.263 8.744H176.159V4.144ZM172.387 36.804V32.112H185.681V17.944H191.385V32.112H209.647V36.804H172.387ZM214.616 3.868H234.534V23.786H214.616V3.868ZM219.4 40.898V27.328H225.104V36.344H247.828V40.898H219.4ZM220.228 19.278H228.968V8.422H220.228V19.278ZM241.02 29.95V0.647998H246.77V29.95H241.02ZM252.751 21.716H290.011V26.224H252.751V21.716ZM256.477 10.308C256.477 5.11 262.411 1.844 271.381 1.844C280.351 1.844 286.285 5.11 286.285 10.308C286.285 15.598 280.351 18.818 271.381 18.818C262.411 18.818 256.477 15.598 256.477 10.308ZM257.305 41.128V29.122H262.963V36.574H285.825V41.128H257.305ZM262.365 10.308C262.365 12.93 265.723 14.264 271.381 14.264C277.039 14.264 280.397 12.93 280.397 10.308C280.397 7.732 277.039 6.398 271.381 6.398C265.723 6.398 262.365 7.732 262.365 10.308ZM331.94 0.556H337.69V41.91H331.94V0.556ZM304.708 18.174C304.708 9.158 309.308 3.5 315.564 3.5C321.774 3.5 326.328 9.158 326.328 18.174C326.328 27.236 321.774 32.894 315.564 32.894C309.308 32.894 304.708 27.236 304.708 18.174ZM310.228 18.174C310.228 24.338 312.39 27.742 315.564 27.742C318.692 27.742 320.854 24.338 320.854 18.174C320.854 12.01 318.692 8.652 315.564 8.652C312.39 8.652 310.228 12.01 310.228 18.174ZM373.663 0.601999H379.045V41.818H373.663V0.601999ZM342.935 29.904C348.915 26.132 351.169 18.726 351.169 11.642V9.434H344.407V4.834H362.853V9.434H356.689V11.642C356.689 18.542 358.805 25.534 364.739 28.984L361.427 33.078C357.793 30.916 355.355 27.236 353.975 22.82C352.549 27.65 350.111 31.744 346.339 34.09L342.935 29.904ZM359.909 19.416V14.77H365.337V1.338H370.627V39.932H365.337V19.416H359.909ZM398.434 4.42H427.23V9.25C427.23 14.954 427.23 20.658 425.758 29.122L420.054 28.662C421.572 20.704 421.572 14.816 421.572 9.25V8.974H398.434V4.42ZM394.616 36.39V31.744H431.876V36.39H394.616ZM436.063 4.006H455.613V23.878H436.063V4.006ZM440.709 41.082V27.742H446.459V36.528H468.723V41.082H440.709ZM441.675 19.324H450.047V8.56H441.675V19.324ZM461.501 30.686V0.601999H467.205V12.562H472.725V17.254H467.205V30.686H461.501ZM495.885 2.626L495.057 28.616H489.721L488.755 2.626H495.885ZM489.307 36.16C489.307 34.366 490.595 33.078 492.389 33.078C494.229 33.078 495.471 34.366 495.471 36.16C495.471 38 494.229 39.288 492.389 39.288C490.595 39.288 489.307 38 489.307 36.16Z" fill="#3A3A3C"/>
<path d="M17.7604 87.604H29.2604V83.464H13.2984V79.508H50.2364V83.464H34.1824V87.604H45.9124V91.56H22.6364V97.264H46.3264V101.22H17.7604V87.604ZM17.9444 76.242V62.258H45.5444V76.242H17.9444ZM22.7744 72.286H40.6684V66.214H22.7744V72.286ZM57.3675 64.512H86.5775V68.468C86.5775 73.574 86.5775 79.232 85.0135 87.788L80.0455 87.236C81.6095 79.232 81.6095 73.436 81.6095 68.514H57.3675V64.512ZM53.5035 96.39V92.342H67.1655V78.036H72.0875V92.342H90.4875V96.39H53.5035ZM100.425 93.814L97.3425 104.256H93.8005L95.5025 93.814H100.425ZM144.881 60.786H149.803V69.894H155.507V73.942H149.803V82.636H144.881V60.786ZM119.535 81.532V63.316H137.613V67.272H124.457V77.484C132.139 77.438 136.371 77.208 141.155 76.196L141.661 80.152C136.417 81.256 131.725 81.532 122.847 81.532H119.535ZM123.537 101.128V84.752H128.413V88.984H144.927V84.752H149.803V101.128H123.537ZM128.413 97.126H144.927V92.894H128.413V97.126ZM184.856 60.786H189.824V77.116H196.034V81.21H189.824V101.68H184.856V60.786ZM157.762 70.998V67.042H167.376V61.384H172.39V67.042H181.774V70.998H157.762ZM159.694 83.372C159.694 77.76 164.064 73.804 169.906 73.804C175.794 73.804 180.072 77.76 180.072 83.372C180.072 89.03 175.794 92.986 169.906 92.986C164.064 92.986 159.694 89.03 159.694 83.372ZM164.432 83.372C164.432 86.776 166.686 88.938 169.906 88.938C173.034 88.938 175.334 86.776 175.334 83.372C175.334 80.014 173.034 77.852 169.906 77.852C166.686 77.852 164.432 80.014 164.432 83.372ZM202.061 64.512H231.271V68.468C231.271 73.574 231.271 79.232 229.707 87.788L224.739 87.236C226.303 79.232 226.303 73.436 226.303 68.514H202.061V64.512ZM198.197 96.39V92.342H211.859V78.036H216.781V92.342H235.181V96.39H198.197ZM245.118 93.814L242.036 104.256H238.494L240.196 93.814H245.118ZM280.788 86.408C289.528 86.408 295.186 89.306 295.186 94.044C295.186 98.828 289.528 101.68 280.788 101.68C272.002 101.68 266.39 98.828 266.39 94.044C266.39 89.306 272.002 86.408 280.788 86.408ZM262.572 83.372V79.416H276.878V71.964H281.754V79.416H299.372V83.372H262.572ZM266.804 66.674V62.718H294.91V66.168C294.91 69.434 294.91 72.838 293.76 77.024L288.884 76.518C289.942 72.562 289.988 69.618 289.988 66.674H266.804ZM271.312 94.044C271.312 96.528 274.854 97.908 280.788 97.908C286.722 97.908 290.264 96.528 290.264 94.044C290.264 91.56 286.722 90.18 280.788 90.18C274.854 90.18 271.312 91.56 271.312 94.044ZM302.685 83.786H339.715V87.788H330.699V101.68H325.639V87.788H316.623V101.68H311.517V87.788H302.685V83.786ZM306.503 71.32C306.503 65.8 312.437 62.35 321.085 62.35C329.779 62.35 335.667 65.8 335.667 71.32C335.667 76.886 329.779 80.382 321.085 80.382C312.437 80.382 306.503 76.886 306.503 71.32ZM311.609 71.32C311.609 74.586 315.335 76.426 321.085 76.426C326.881 76.426 330.607 74.586 330.607 71.32C330.607 68.146 326.881 66.26 321.085 66.26C315.335 66.26 311.609 68.146 311.609 71.32ZM369.754 60.786H374.722V77.116H380.932V81.21H374.722V101.68H369.754V60.786ZM342.66 70.998V67.042H352.274V61.384H357.288V67.042H366.672V70.998H342.66ZM344.592 83.372C344.592 77.76 348.962 73.804 354.804 73.804C360.692 73.804 364.97 77.76 364.97 83.372C364.97 89.03 360.692 92.986 354.804 92.986C348.962 92.986 344.592 89.03 344.592 83.372ZM349.33 83.372C349.33 86.776 351.584 88.938 354.804 88.938C357.932 88.938 360.232 86.776 360.232 83.372C360.232 80.014 357.932 77.852 354.804 77.852C351.584 77.852 349.33 80.014 349.33 83.372ZM399.195 74.908H404.991V61.568H409.591V99.748H404.991V78.956H399.195V74.908ZM382.405 89.536C388.247 86.04 390.915 78.726 390.915 71.734V64.512H395.699V71.55C395.699 78.128 398.045 85.028 403.519 88.524L400.759 92.342C397.125 90.134 394.733 86.27 393.353 81.762C391.927 86.684 389.305 90.87 385.441 93.262L382.405 89.536ZM413.317 101.68V60.786H418.055V101.68H413.317ZM423.3 92.664H431.856V82.176C428.636 80.29 426.704 77.438 426.704 73.804C426.704 67.226 433.052 62.994 441.792 62.994C450.578 62.994 456.88 67.226 456.88 73.804C456.88 77.392 454.948 80.29 451.774 82.176V92.664H460.33V96.666H423.3V92.664ZM431.534 73.804C431.534 78.082 435.72 80.704 441.792 80.704C447.818 80.704 452.05 78.082 452.05 73.804C452.05 69.526 447.818 66.904 441.792 66.904C435.72 66.904 431.534 69.526 431.534 73.804ZM436.778 92.664H446.806V84.016C445.242 84.338 443.586 84.522 441.792 84.522C439.998 84.522 438.342 84.338 436.778 84.016V92.664ZM483.491 63.362L482.709 89.122H478.201L477.327 63.362H483.491ZM477.603 96.206C477.603 94.55 478.799 93.4 480.501 93.4C482.111 93.4 483.307 94.55 483.307 96.206C483.307 97.862 482.111 99.058 480.501 99.058C478.799 99.058 477.603 97.862 477.603 96.206Z" fill="#636366"/>
</svg>
