<svg width="723" height="192" viewBox="0 0 723 192" fill="none" xmlns="http://www.w3.org/2000/svg">
<path d="M414 73.561C414 90.9243 399.924 105 382.561 105C365.198 105 351.122 90.9243 351.122 73.561C351.122 56.1978 365.198 42.1221 382.561 42.1221C399.924 42.1221 414 56.1978 414 73.561Z" fill="#FF244A"/>
<g filter="url(#filter0_b_2406_3165)">
<path d="M309 15.2616C309 6.83287 315.833 0 324.262 0H397.517C405.946 0 412.779 6.83286 412.779 15.2616V51.8895L386.834 77.8343L360.89 103.779H324.262C315.833 103.779 309 96.9462 309 88.5174V15.2616Z" fill="url(#paint0_linear_2406_3165)" fill-opacity="0.3"/>
</g>
<g filter="url(#filter1_b_2406_3165)">
<path fill-rule="evenodd" clip-rule="evenodd" d="M360.89 103.779L412.779 51.8895V15.2616C412.779 6.83286 405.946 0 397.517 0H324.262C315.833 0 309 6.83287 309 15.2616V88.5174C309 96.9462 315.833 103.779 324.262 103.779H360.89ZM412.474 51.7369V15.2616C412.474 7.00144 405.778 0.305233 397.517 0.305233H324.262C316.001 0.305233 309.305 7.00144 309.305 15.2616V88.5174C309.305 96.7776 316.001 103.474 324.262 103.474H360.737V67.1512C360.737 58.6381 367.638 51.7369 376.151 51.7369H412.474ZM412.195 52.0422H376.151C367.807 52.0422 361.042 58.8067 361.042 67.1512V103.195L412.195 52.0422Z" fill="url(#paint1_linear_2406_3165)"/>
<path fill-rule="evenodd" clip-rule="evenodd" d="M360.89 103.779L412.779 51.8895V15.2616C412.779 6.83286 405.946 0 397.517 0H324.262C315.833 0 309 6.83287 309 15.2616V88.5174C309 96.9462 315.833 103.779 324.262 103.779H360.89ZM412.474 51.7369V15.2616C412.474 7.00144 405.778 0.305233 397.517 0.305233H324.262C316.001 0.305233 309.305 7.00144 309.305 15.2616V88.5174C309.305 96.7776 316.001 103.474 324.262 103.474H360.737V67.1512C360.737 58.6381 367.638 51.7369 376.151 51.7369H412.474ZM412.195 52.0422H376.151C367.807 52.0422 361.042 58.8067 361.042 67.1512V103.195L412.195 52.0422Z" fill="url(#paint2_radial_2406_3165)"/>
</g>
<rect x="323.384" y="23.0137" width="14.3836" height="5.75342" rx="2.87671" fill="white"/>
<rect x="334.549" y="10.4404" width="26.4388" height="5.66547" rx="2.83273" transform="rotate(113.192 334.549 10.4404)" fill="white"/>
<rect width="26.4388" height="5.66547" rx="2.83273" transform="matrix(0.393814 0.91919 0.91919 -0.393814 327.699 10.4404)" fill="white"/>
<rect width="24.8684" height="5.52632" rx="2.76316" transform="matrix(-4.37114e-08 1 1 4.37114e-08 346.303 13.8154)" fill="white"/>
<path d="M362.013 30.3949C362.013 33.7305 359.309 36.4344 355.974 36.4344C352.638 36.4344 349.934 33.7305 349.934 30.3949C349.934 27.0594 352.638 24.3555 355.974 24.3555C359.309 24.3555 362.013 27.0594 362.013 30.3949Z" stroke="white" stroke-width="4.5"/>
<path d="M3.92051 178.36H22.2205V186.07H3.92051V178.36ZM1.04051 176.71V174.19H11.4805V172.57C6.86051 172.33 4.31051 171.07 4.31051 168.82C4.31051 166.33 7.46051 165.01 13.1005 165.01C18.7405 165.01 21.8605 166.33 21.8605 168.82C21.8605 171.07 19.3405 172.33 14.7205 172.57V174.19H25.1305V176.71H1.04051ZM2.24051 164.2V161.74H11.4805V159.43H14.7205V161.74H23.8405V164.2H2.24051ZM7.07051 183.67H19.0705V180.76H7.07051V183.67ZM7.73051 168.82C7.73051 169.87 9.53051 170.41 13.1005 170.41C16.6405 170.41 18.4405 169.87 18.4405 168.82C18.4405 167.74 16.6405 167.23 13.1005 167.23C9.53051 167.23 7.73051 167.74 7.73051 168.82ZM46.9712 159.73H50.0612V186.4H46.9712V159.73ZM27.5312 171.25C27.5312 165.37 29.7812 161.74 33.2312 161.74C36.4412 161.74 38.6012 164.77 38.9312 169.78H41.6012V160.24H44.6312V185.14H41.6012V172.39H38.9612C38.6912 177.61 36.5012 180.79 33.2312 180.79C29.7812 180.79 27.5312 177.16 27.5312 171.25ZM30.4712 171.25C30.4712 175.45 31.4912 177.76 33.2312 177.76C35.0312 177.76 36.0512 175.45 36.0512 171.25C36.0512 167.08 35.0312 164.8 33.2312 164.8C31.4912 164.8 30.4712 167.08 30.4712 171.25ZM72.2319 159.73H75.4719V186.46H72.2319V159.73ZM55.1319 179.98V162.16H67.8819V164.8H58.3419V177.28C63.2319 177.25 66.3519 177.13 69.8919 176.44L70.1919 179.14C66.3519 179.86 62.9619 179.98 57.3819 179.98H55.1319ZM93.7726 163.36H98.6026V159.76H101.843V179.56H98.6026V171.25H93.7726V168.67H98.6026V166H93.7726V163.36ZM79.6126 173.8C83.8426 172.21 86.0326 168.46 86.0326 164.44V161.2H89.2726V164.44C89.2726 168.22 91.4026 171.88 95.4526 173.41L93.6826 175.93C90.8326 174.79 88.8226 172.57 87.6826 169.81C86.5726 172.78 84.4126 175.12 81.3226 176.29L79.6126 173.8ZM84.4126 185.89V177.67H87.6226V183.28H102.443V185.89H84.4126ZM123.787 169.6H127.117V160.27H130.117V185.14H127.117V172.21H123.787V169.6ZM113.707 180.31V162.76H123.577V165.34H116.767V169.99H122.497V172.48H116.767V177.7C119.947 177.67 122.137 177.58 124.717 177.1L124.987 179.68C121.987 180.25 119.467 180.31 115.477 180.31H113.707ZM132.577 186.4V159.73H135.637V186.4H132.577ZM149.318 161.38H152.738V163.36C152.738 167.53 156.788 171.67 162.248 172.6L160.838 175.27C156.398 174.34 152.738 171.64 151.028 168.04C149.288 171.64 145.628 174.37 141.218 175.27L139.838 172.6C145.238 171.64 149.318 167.5 149.318 163.36V161.38ZM139.058 182.98V180.34H163.208V182.98H139.058ZM168.249 161.8H186.549V164.41H171.519V167.71H185.979V170.26H171.519V173.71H186.789V176.29H168.249V161.8ZM165.279 183.16V180.52H189.429V183.16H165.279ZM194.619 160.69H197.799V167.29H212.949V169.87H194.619V160.69ZM191.499 175.57V172.99H215.649V175.57H191.499ZM194.409 185.8V177.91H197.619V183.22H213.099V185.8H194.409ZM244.344 159.73H247.434V186.4H244.344V172.69H241.494V185.14H238.494V160.24H241.494V170.08H244.344V159.73ZM225.504 179.53V162.61H235.854V179.53H225.504ZM228.504 177.01H232.854V165.16H228.504V177.01ZM250.855 174.67H274.975V177.28H264.445V186.43H261.265V177.28H250.855V174.67ZM252.145 170.29C257.335 169.6 260.845 166.75 261.085 163.81H253.075V161.23H272.725V163.81H264.775C265.015 166.75 268.525 169.6 273.715 170.29L272.515 172.84C268.075 172.18 264.565 170.08 262.945 167.2C261.295 170.08 257.785 172.18 253.345 172.84L252.145 170.29ZM287.02 161.02H305.2V163.09C305.2 165.22 305.2 167.56 304.54 170.71H308.14V173.32H283.99V170.71H301.33C301.96 167.8 302.02 165.61 302.02 163.63H287.02V161.02ZM286.9 186.1V176.44H305.17V186.1H286.9ZM290.05 183.55H302.02V178.99H290.05V183.55ZM310.21 180.52H315.79V173.68C313.69 172.45 312.43 170.59 312.43 168.22C312.43 163.93 316.57 161.17 322.27 161.17C328 161.17 332.11 163.93 332.11 168.22C332.11 170.56 330.85 172.45 328.78 173.68V180.52H334.36V183.13H310.21V180.52ZM315.58 168.22C315.58 171.01 318.31 172.72 322.27 172.72C326.2 172.72 328.96 171.01 328.96 168.22C328.96 165.43 326.2 163.72 322.27 163.72C318.31 163.72 315.58 165.43 315.58 168.22ZM319 180.52H325.54V174.88C324.52 175.09 323.44 175.21 322.27 175.21C321.1 175.21 320.02 175.09 319 174.88V180.52ZM343.901 160.6C347.951 160.6 350.951 163.09 350.951 166.6C350.951 170.14 347.951 172.6 343.901 172.6C339.881 172.6 336.911 170.14 336.911 166.6C336.911 163.09 339.881 160.6 343.901 160.6ZM340.031 166.6C340.031 168.67 341.681 169.99 343.901 169.99C346.181 169.99 347.831 168.67 347.831 166.6C347.831 164.53 346.181 163.21 343.901 163.21C341.681 163.21 340.031 164.53 340.031 166.6ZM340.901 176.89V174.4H358.451V181.33H344.111V183.55H359.231V186.07H340.961V178.99H355.241V176.89H340.901ZM355.211 173.2V159.73H358.451V173.2H355.211ZM367.032 181.27L365.022 188.08H362.712L363.822 181.27H367.032ZM381.325 161.68H399.625V164.26H384.595V167.38H399.055V169.9H384.595V173.2H399.865V175.75H392.035V180.67H402.505V183.28H378.355V180.67H388.795V175.75H381.325V161.68ZM404.576 180.52H410.156V173.68C408.056 172.45 406.796 170.59 406.796 168.22C406.796 163.93 410.936 161.17 416.636 161.17C422.366 161.17 426.476 163.93 426.476 168.22C426.476 170.56 425.216 172.45 423.146 173.68V180.52H428.726V183.13H404.576V180.52ZM409.946 168.22C409.946 171.01 412.676 172.72 416.636 172.72C420.566 172.72 423.326 171.01 423.326 168.22C423.326 165.43 420.566 163.72 416.636 163.72C412.676 163.72 409.946 165.43 409.946 168.22ZM413.366 180.52H419.906V174.88C418.886 175.09 417.806 175.21 416.636 175.21C415.466 175.21 414.386 175.09 413.366 174.88V180.52ZM438.266 160.6C442.316 160.6 445.316 163.09 445.316 166.6C445.316 170.14 442.316 172.6 438.266 172.6C434.246 172.6 431.276 170.14 431.276 166.6C431.276 163.09 434.246 160.6 438.266 160.6ZM434.396 166.6C434.396 168.67 436.046 169.99 438.266 169.99C440.546 169.99 442.196 168.67 442.196 166.6C442.196 164.53 440.546 163.21 438.266 163.21C436.046 163.21 434.396 164.53 434.396 166.6ZM435.266 176.89V174.4H452.816V181.33H438.476V183.55H453.596V186.07H435.326V178.99H449.606V176.89H435.266ZM449.576 173.2V159.73H452.816V173.2H449.576ZM483.611 159.73H486.701V186.4H483.611V159.73ZM463.481 178.9C467.291 176.5 468.941 171.7 468.941 167.02V165.22H464.321V162.58H476.351V165.22H472.091V167.02C472.091 171.52 473.711 176.08 477.461 178.27L475.541 180.64C473.081 179.17 471.461 176.59 470.561 173.56C469.631 176.86 467.921 179.68 465.401 181.27L463.481 178.9ZM474.431 171.67V169.06H478.271V160.24H481.271V185.11H478.271V171.67H474.431ZM498.732 161.35C502.902 161.35 505.992 164.05 505.992 167.8C505.992 171.07 503.682 173.5 500.352 174.1V178.06C502.722 177.91 505.092 177.7 507.342 177.37L507.582 179.71C501.732 180.85 495.342 180.88 490.632 180.88L490.272 178.27C492.282 178.27 494.622 178.27 497.082 178.18V174.1C493.752 173.5 491.472 171.07 491.472 167.8C491.472 164.05 494.532 161.35 498.732 161.35ZM494.622 167.8C494.622 170.05 496.392 171.46 498.732 171.46C501.072 171.46 502.842 170.05 502.842 167.8C502.842 165.52 501.072 164.11 498.732 164.11C496.392 164.11 494.622 165.52 494.622 167.8ZM508.932 186.46V159.7H512.142V186.46H508.932ZM542.997 159.73H546.087V186.4H542.997V172.69H540.147V185.14H537.147V160.24H540.147V170.08H542.997V159.73ZM524.157 179.53V162.61H534.507V179.53H524.157ZM527.157 177.01H531.507V165.16H527.157V177.01ZM556.977 160.6C561.027 160.6 564.027 163.09 564.027 166.6C564.027 170.14 561.027 172.6 556.977 172.6C552.957 172.6 549.987 170.14 549.987 166.6C549.987 163.09 552.957 160.6 556.977 160.6ZM553.107 166.6C553.107 168.67 554.757 169.99 556.977 169.99C559.257 169.99 560.907 168.67 560.907 166.6C560.907 164.53 559.257 163.21 556.977 163.21C554.757 163.21 553.107 164.53 553.107 166.6ZM553.977 176.89V174.4H571.527V181.33H557.187V183.55H572.307V186.07H554.037V178.99H568.317V176.89H553.977ZM568.287 173.2V159.73H571.527V173.2H568.287ZM589.332 161.89H592.572V166.15C592.572 171.07 595.152 175.96 599.412 177.85L597.522 180.46C594.462 179.02 592.242 176.17 591.012 172.66C589.812 176.41 587.502 179.5 584.292 181.03L582.372 178.36C586.692 176.41 589.332 171.28 589.332 166.15V161.89ZM601.362 186.46V159.7H604.602V186.46H601.362ZM628.393 159.73H631.483V176.5H628.393V169.24H625.813V175.6H622.783V160.27H625.813V166.6H628.393V159.73ZM608.683 165.19V162.64H613.753V159.97H616.903V162.64H621.913V165.19H608.683ZM609.643 170.86C609.643 168.1 611.983 166.24 615.343 166.24C618.703 166.24 621.043 168.1 621.043 170.86C621.043 173.65 618.703 175.48 615.343 175.48C611.983 175.48 609.643 173.65 609.643 170.86ZM612.493 170.86C612.493 172.3 613.663 173.17 615.343 173.17C617.023 173.17 618.223 172.3 618.223 170.86C618.223 169.42 617.023 168.61 615.343 168.61C613.663 168.61 612.493 169.42 612.493 170.86ZM613.513 181.63C613.513 178.57 616.903 176.86 622.543 176.86C628.213 176.86 631.633 178.57 631.633 181.63C631.633 184.66 628.213 186.37 622.543 186.37C616.903 186.37 613.513 184.66 613.513 181.63ZM616.693 181.63C616.693 183.16 618.763 183.94 622.543 183.94C626.323 183.94 628.393 183.16 628.393 181.63C628.393 180.07 626.323 179.29 622.543 179.29C618.763 179.29 616.693 180.07 616.693 181.63ZM653.923 159.73H657.133V175.18H653.923V159.73ZM635.143 172.18C637.243 172.18 639.703 172.18 642.223 172.09V169.66H637.453V160.99H650.143V163.6H640.663V167.11H650.353V169.66H645.463V171.94C647.683 171.82 649.933 171.64 652.033 171.34L652.243 173.56C646.543 174.61 640.243 174.7 635.533 174.7L635.143 172.18ZM639.343 186.07V176.26H642.523V178.6H653.953V176.26H657.133V186.07H639.343ZM642.523 183.52H653.953V181.06H642.523V183.52ZM680.174 159.73H683.384V186.4H680.174V159.73ZM662.804 179.68V162.28H666.044V176.95C669.734 176.89 673.664 176.59 677.804 175.75L678.194 178.45C673.574 179.38 669.224 179.68 665.144 179.68H662.804ZM705.045 159.7H708.285V169.87H712.335V172.54H708.285V186.46H705.045V159.7ZM688.635 179.92V162.25H701.055V164.86H691.845V177.22C696.075 177.19 699.315 177.04 702.915 176.35L703.245 179.05C699.195 179.8 695.595 179.92 690.795 179.92H688.635ZM719.866 161.41L719.356 178.21H716.416L715.846 161.41H719.866ZM716.026 182.83C716.026 181.75 716.806 181 717.916 181C718.966 181 719.746 181.75 719.746 182.83C719.746 183.91 718.966 184.69 717.916 184.69C716.806 184.69 716.026 183.91 716.026 182.83Z" fill="#232323"/>
<defs>
<filter id="filter0_b_2406_3165" x="279" y="-30" width="163.779" height="163.779" filterUnits="userSpaceOnUse" color-interpolation-filters="sRGB">
<feFlood flood-opacity="0" result="BackgroundImageFix"/>
<feGaussianBlur in="BackgroundImageFix" stdDeviation="15"/>
<feComposite in2="SourceAlpha" operator="in" result="effect1_backgroundBlur_2406_3165"/>
<feBlend mode="normal" in="SourceGraphic" in2="effect1_backgroundBlur_2406_3165" result="shape"/>
</filter>
<filter id="filter1_b_2406_3165" x="279" y="-30" width="163.779" height="163.779" filterUnits="userSpaceOnUse" color-interpolation-filters="sRGB">
<feFlood flood-opacity="0" result="BackgroundImageFix"/>
<feGaussianBlur in="BackgroundImageFix" stdDeviation="15"/>
<feComposite in2="SourceAlpha" operator="in" result="effect1_backgroundBlur_2406_3165"/>
<feBlend mode="normal" in="SourceGraphic" in2="effect1_backgroundBlur_2406_3165" result="shape"/>
</filter>
<linearGradient id="paint0_linear_2406_3165" x1="320.106" y1="9.57486" x2="432.121" y2="67.5752" gradientUnits="userSpaceOnUse">
<stop stop-color="#FF244A"/>
<stop offset="0.447036" stop-color="#FF244A" stop-opacity="0.955296"/>
<stop offset="1" stop-color="#FF244A" stop-opacity="0.9"/>
</linearGradient>
<linearGradient id="paint1_linear_2406_3165" x1="323.935" y1="-3.7064" x2="421.21" y2="53.0893" gradientUnits="userSpaceOnUse">
<stop offset="0.188941" stop-color="#FF244A" stop-opacity="0.523483"/>
<stop offset="0.526042" stop-color="#FF244A"/>
<stop offset="1" stop-color="#FF244A" stop-opacity="0.1"/>
</linearGradient>
<radialGradient id="paint2_radial_2406_3165" cx="0" cy="0" r="1" gradientUnits="userSpaceOnUse" gradientTransform="translate(324.509 100.382) rotate(-50.9773) scale(81.5007 133.263)">
<stop stop-color="white"/>
<stop offset="1" stop-color="white" stop-opacity="0"/>
</radialGradient>
</defs>
</svg>
