<svg width="31" height="30" viewBox="0 0 31 30" fill="none" xmlns="http://www.w3.org/2000/svg">
<path d="M18.0547 12.5V21.25M13.0547 12.5L13.0547 21.25M5.55466 7.5H25.5547M23.0547 7.5V22.25C23.0547 23.6501 23.0549 24.3503 22.7824 24.885C22.5428 25.3554 22.1598 25.7378 21.6894 25.9775C21.1546 26.25 20.455 26.25 19.0549 26.25H12.0549C10.6548 26.25 9.95418 26.25 9.4194 25.9775C8.949 25.7378 8.56682 25.3554 8.32714 24.885C8.05466 24.3503 8.05466 23.6501 8.05466 22.25V7.5H23.0547ZM20.5547 7.5H10.5547C10.5547 6.33515 10.5547 5.7527 10.745 5.29327C10.9987 4.6807 11.4851 4.19404 12.0976 3.9403C12.5571 3.75 13.1398 3.75 14.3047 3.75H16.8047C17.9695 3.75 18.5519 3.75 19.0114 3.9403C19.6239 4.19404 20.1105 4.6807 20.3642 5.29327C20.5545 5.7527 20.5547 6.33515 20.5547 7.5Z" stroke="#FF5353" stroke-width="2" stroke-linecap="round" stroke-linejoin="round"/>
</svg>
