<svg width="136" height="123" viewBox="0 0 136 123" fill="none" xmlns="http://www.w3.org/2000/svg">
<g opacity="0.8">
<g filter="url(#filter0_ii_1822_6173)">
<path d="M37.7403 14.9382C35.3761 16.0402 33.8903 18.7511 33.8903 22.7205V76.9658C33.8903 80.9582 36.6932 85.8129 40.1508 87.8092L93.7233 118.739C96.7336 120.477 99.4778 120.746 101.548 119.781L131.65 105.744C129.58 106.709 126.836 106.44 123.825 104.702L70.2529 73.7723C66.7954 71.7761 63.9924 66.9213 63.9924 62.9289V8.68362C63.9924 4.71524 65.4774 2.00468 67.8407 0.902178L37.7403 14.9382Z" fill="url(#paint0_linear_1822_6173)"/>
<path d="M37.7403 14.9382C35.3761 16.0402 33.8903 18.7511 33.8903 22.7205V76.9658C33.8903 80.9582 36.6932 85.8129 40.1508 87.8092L93.7233 118.739C96.7336 120.477 99.4778 120.746 101.548 119.781L131.65 105.744C129.58 106.709 126.836 106.44 123.825 104.702L70.2529 73.7723C66.7954 71.7761 63.9924 66.9213 63.9924 62.9289V8.68362C63.9924 4.71524 65.4774 2.00468 67.8407 0.902178L37.7403 14.9382Z" fill="url(#paint1_linear_1822_6173)"/>
<path d="M37.7403 14.9382C35.3761 16.0402 33.8903 18.7511 33.8903 22.7205V76.9658C33.8903 80.9582 36.6932 85.8129 40.1508 87.8092L93.7233 118.739C96.7336 120.477 99.4778 120.746 101.548 119.781L131.65 105.744C129.58 106.709 126.836 106.44 123.825 104.702L70.2529 73.7723C66.7954 71.7761 63.9924 66.9213 63.9924 62.9289V8.68362C63.9924 4.71524 65.4774 2.00468 67.8407 0.902178L37.7403 14.9382Z" fill="url(#paint2_radial_1822_6173)"/>
</g>
<path d="M126.961 44.7407C126.524 42.0221 124.635 39.0757 122.37 37.768L82.2637 14.6108C80.0101 13.3096 77.9558 13.1083 76.4058 13.8308L45.7725 28.1153C44.0024 28.9404 42.8901 30.97 42.8901 33.9419L42.8901 74.5551C42.8901 77.5442 44.9885 81.1789 47.5769 82.6735L87.6831 105.831C89.9367 107.132 91.991 107.333 93.541 106.611L93.5422 106.61L124.174 92.3261C125.944 91.5011 127.057 89.4714 127.057 86.4995L127.057 45.8864C127.057 45.5128 127.024 45.129 126.961 44.7407Z" fill="url(#paint3_linear_1822_6173)"/>
<path d="M95.4238 60.1706C95.4238 58.8928 94.9687 57.4083 94.1851 56.0509C93.4014 54.6935 92.3434 53.557 91.237 52.9182L51.1308 29.761C48.8994 28.4726 47.1138 28.4771 45.9506 29.1487C44.7874 29.8204 43.8906 31.3647 43.8906 33.9415V74.5547C43.8906 75.8324 44.3458 77.317 45.1294 78.6744C45.913 80.0318 46.971 81.1682 48.0774 81.8071L88.1836 104.964C90.415 106.253 92.2007 106.248 93.3638 105.577C94.5271 104.905 95.4238 103.361 95.4238 100.784L95.4238 60.1706Z" fill="url(#paint4_linear_1822_6173)" stroke="url(#paint5_linear_1822_6173)" stroke-width="2"/>
<g filter="url(#filter1_bii_1822_6173)">
<path d="M37.74 14.9382C39.8104 13.9732 42.5546 14.242 45.5649 15.98L99.1374 46.9101C102.595 48.9063 105.398 53.7611 105.398 57.7535V111.999C105.398 115.967 103.913 118.678 101.55 119.78L131.65 105.744C134.014 104.642 135.5 101.931 135.5 97.9619V43.7167C135.5 39.7242 132.697 34.8695 129.24 32.8733L75.667 1.94315C72.6567 0.205153 69.9125 -0.0636474 67.8421 0.90138L37.74 14.9382Z" fill="url(#paint6_linear_1822_6173)" fill-opacity="0.3"/>
</g>
<g filter="url(#filter2_ddi_1822_6173)">
<path fill-rule="evenodd" clip-rule="evenodd" d="M78.2357 90.3775L52.288 75.3966C50.26 74.2258 48.5757 71.3326 49.0194 69.3039C49.228 68.3502 49.5166 67.4629 49.8831 66.6527C50.7197 64.8037 51.9458 63.3927 53.4915 62.5003C53.6891 62.3862 53.8915 62.2808 54.0983 62.1843L54.1022 62.1825L54.1162 62.176L57.6276 60.5386L57.6397 60.5329C58.481 60.1403 59.3969 59.8934 60.3727 59.7949C60.6955 59.7624 61.0249 59.7461 61.3604 59.7461C61.7116 59.7461 62.0694 59.7641 62.4332 59.8002C62.5585 59.8126 62.6844 59.8271 62.8109 59.8438C64.7215 60.0956 66.753 60.8311 68.8032 62.0148C70.9892 63.2769 73.1537 65.0237 75.1733 67.1556C77.1928 69.2876 79.0279 71.7628 80.5736 74.44C82.1193 77.1173 83.3454 79.9441 84.1819 82.759C84.5484 83.9925 84.837 85.213 85.0456 86.4076C85.2894 87.8034 84.891 88.7186 84.1463 89.066L84.1459 89.0662L80.6049 90.7174C79.9939 91.0025 79.1497 90.9052 78.2357 90.3775Z" fill="url(#paint7_linear_1822_6173)"/>
</g>
<g filter="url(#filter3_iii_1822_6173)">
<path d="M52.2903 75.3955C50.2624 74.2247 48.5781 71.3315 49.0218 69.3028C49.2304 68.3491 49.519 67.4618 49.8855 66.6516C50.722 64.8026 51.9482 63.3916 53.4939 62.4992C55.0396 61.6068 56.8746 61.2504 58.8941 61.4505C60.9137 61.6505 63.0782 62.4031 65.2642 63.6651C67.4501 64.9272 69.6147 66.674 71.6342 68.806C73.6538 70.9379 75.4888 73.4131 77.0345 76.0904C78.5802 78.7676 79.8063 81.5944 80.6428 84.4093C81.0094 85.6428 81.298 86.8634 81.5066 88.0579C81.9503 90.599 80.266 91.5473 78.2381 90.3765L52.2903 75.3955Z" fill="#F4EEFD"/>
</g>
<g filter="url(#filter4_ddi_1822_6173)">
<path d="M64.206 43.4545L64.2082 43.4534C64.667 43.2396 65.1822 43.1289 65.7408 43.1289C66.6622 43.1289 67.7019 43.4298 68.8021 44.065C71.168 45.431 73.2539 48.0194 74.4857 50.8358C75.2247 52.5257 75.6562 54.2976 75.6562 55.9367C75.6562 56.5859 75.5886 57.1778 75.4609 57.7079C75.3021 58.367 75.0506 58.9306 74.7211 59.3901C74.3645 59.8875 73.9165 60.263 73.396 60.5056L69.8546 62.157C68.6391 62.7235 67.0281 62.5657 65.2608 61.5454C61.4753 59.3598 58.4066 54.0447 58.4066 49.6737C58.4066 47.3433 59.2788 45.7518 60.6669 45.1048L64.206 43.4545Z" fill="url(#paint8_linear_1822_6173)"/>
</g>
<g filter="url(#filter5_iii_1822_6173)">
<path d="M58.407 49.6738C58.407 54.0449 61.4757 59.36 65.2611 61.5455C69.0465 63.731 72.1152 61.9593 72.1152 57.5883C72.1152 53.2173 69.0465 47.9021 65.2611 45.7166C61.4757 43.5311 58.407 45.3028 58.407 49.6738Z" fill="#F4EEFD"/>
</g>
<path d="M24.5773 41.084C29.4587 38.8088 35.9286 39.4425 43.0259 43.5402C58.2278 52.317 70.5515 73.6621 70.5515 91.2158C70.5515 100.572 67.0505 106.963 61.4786 109.562L63.7668 108.495C69.341 105.897 72.8438 99.5053 72.8438 90.1469C72.8438 72.5932 60.5201 51.2481 45.3182 42.4713C38.2209 38.3736 31.7509 37.7399 26.8695 40.0151L24.5773 41.084Z" fill="url(#paint9_linear_1822_6173)" fill-opacity="0.6"/>
<g filter="url(#filter6_bii_1822_6173)">
<circle cx="31.7838" cy="31.7838" r="31.7838" transform="matrix(-0.866025 -0.5 -2.20305e-08 1 70.5527 59.4316)" fill="url(#paint10_linear_1822_6173)" fill-opacity="0.3"/>
</g>
<g filter="url(#filter7_dddddd_1822_6173)">
<path fill-rule="evenodd" clip-rule="evenodd" d="M54.8828 72.934C54.8828 72.1668 54.3442 71.234 53.6798 70.8504L34.4318 59.7376C33.7675 59.354 33.2289 59.6649 33.2289 60.4321L33.2289 70.1558L29.6199 68.0722C28.9555 67.6886 28.4169 67.9995 28.4169 68.7667L28.4169 79.8795C28.4169 80.6467 28.9555 81.5796 29.6199 81.9632L32.1291 83.4119L33.5812 85.9271C34.051 86.7408 34.8127 87.1806 35.2825 86.9093L36.7346 86.0709L42.8528 89.6033C43.5172 89.9868 44.0558 89.6759 44.0558 88.9087L44.0558 84.7414L45.362 85.4955L47.4157 89.0525C47.8855 89.8663 48.6472 90.306 49.117 90.0348L51.1706 88.8491L53.6798 90.2978C54.3442 90.6814 54.8828 90.3704 54.8828 89.6033L54.8828 72.934ZM35.6348 77.1013L35.6348 63.2103L52.4768 72.934L52.4768 86.825L50.6723 85.7832C50.3533 85.599 50.0473 85.5687 49.8217 85.699L48.2663 86.5969L46.711 83.903C46.4854 83.5122 46.1794 83.1892 45.8603 83.005L35.6348 77.1013ZM34.4318 79.185L41.6498 83.3523L41.6498 86.1305L36.2363 83.005C35.9173 82.8208 35.6113 82.7905 35.3857 82.9208L34.4318 83.4715L33.478 81.8193C33.2524 81.4286 32.9464 81.1056 32.6274 80.9214L30.8229 79.8795L30.8229 71.5449L33.2289 72.934L33.2289 77.1013C33.2289 77.8685 33.7675 78.8014 34.4318 79.185ZM50.0708 78.4904C50.0708 77.7233 49.5322 76.7904 48.8678 76.4068L48.2663 76.0595C47.6019 75.6759 47.0633 75.9869 47.0633 76.7541C47.0633 77.5212 47.6019 78.4541 48.2663 78.8377L48.8678 79.185C49.5322 79.5686 50.0708 79.2576 50.0708 78.4904ZM45.8603 76.0595C45.8603 75.2923 45.3217 74.3594 44.6573 73.9759L44.0558 73.6286C43.3914 73.245 42.8528 73.5559 42.8528 74.3231C42.8528 75.0903 43.3914 76.0232 44.0558 76.4068L44.6573 76.7541C45.3217 77.1376 45.8603 76.8267 45.8603 76.0595ZM41.6498 73.6286C41.6498 72.8614 41.1112 71.9285 40.4468 71.5449L39.8453 71.1976C39.1809 70.8141 38.6423 71.125 38.6423 71.8922C38.6423 72.6594 39.1809 73.5923 39.8453 73.9759L40.4468 74.3231C41.1112 74.7067 41.6498 74.3958 41.6498 73.6286Z" fill="url(#paint11_linear_1822_6173)"/>
<path fill-rule="evenodd" clip-rule="evenodd" d="M54.8828 72.934C54.8828 72.1668 54.3442 71.234 53.6798 70.8504L34.4318 59.7376C33.7675 59.354 33.2289 59.6649 33.2289 60.4321L33.2289 70.1558L29.6199 68.0722C28.9555 67.6886 28.4169 67.9995 28.4169 68.7667L28.4169 79.8795C28.4169 80.6467 28.9555 81.5796 29.6199 81.9632L32.1291 83.4119L33.5812 85.9271C34.051 86.7408 34.8127 87.1806 35.2825 86.9093L36.7346 86.0709L42.8528 89.6033C43.5172 89.9868 44.0558 89.6759 44.0558 88.9087L44.0558 84.7414L45.362 85.4955L47.4157 89.0525C47.8855 89.8663 48.6472 90.306 49.117 90.0348L51.1706 88.8491L53.6798 90.2978C54.3442 90.6814 54.8828 90.3704 54.8828 89.6033L54.8828 72.934ZM35.6348 77.1013L35.6348 63.2103L52.4768 72.934L52.4768 86.825L50.6723 85.7832C50.3533 85.599 50.0473 85.5687 49.8217 85.699L48.2663 86.5969L46.711 83.903C46.4854 83.5122 46.1794 83.1892 45.8603 83.005L35.6348 77.1013ZM34.4318 79.185L41.6498 83.3523L41.6498 86.1305L36.2363 83.005C35.9173 82.8208 35.6113 82.7905 35.3857 82.9208L34.4318 83.4715L33.478 81.8193C33.2524 81.4286 32.9464 81.1056 32.6274 80.9214L30.8229 79.8795L30.8229 71.5449L33.2289 72.934L33.2289 77.1013C33.2289 77.8685 33.7675 78.8014 34.4318 79.185ZM50.0708 78.4904C50.0708 77.7233 49.5322 76.7904 48.8678 76.4068L48.2663 76.0595C47.6019 75.6759 47.0633 75.9869 47.0633 76.7541C47.0633 77.5212 47.6019 78.4541 48.2663 78.8377L48.8678 79.185C49.5322 79.5686 50.0708 79.2576 50.0708 78.4904ZM45.8603 76.0595C45.8603 75.2923 45.3217 74.3594 44.6573 73.9759L44.0558 73.6286C43.3914 73.245 42.8528 73.5559 42.8528 74.3231C42.8528 75.0903 43.3914 76.0232 44.0558 76.4068L44.6573 76.7541C45.3217 77.1376 45.8603 76.8267 45.8603 76.0595ZM41.6498 73.6286C41.6498 72.8614 41.1112 71.9285 40.4468 71.5449L39.8453 71.1976C39.1809 70.8141 38.6423 71.125 38.6423 71.8922C38.6423 72.6594 39.1809 73.5923 39.8453 73.9759L40.4468 74.3231C41.1112 74.7067 41.6498 74.3958 41.6498 73.6286Z" fill="url(#paint12_radial_1822_6173)" fill-opacity="0.5"/>
<path fill-rule="evenodd" clip-rule="evenodd" d="M54.8828 72.934C54.8828 72.1668 54.3442 71.234 53.6798 70.8504L34.4318 59.7376C33.7675 59.354 33.2289 59.6649 33.2289 60.4321L33.2289 70.1558L29.6199 68.0722C28.9555 67.6886 28.4169 67.9995 28.4169 68.7667L28.4169 79.8795C28.4169 80.6467 28.9555 81.5796 29.6199 81.9632L32.1291 83.4119L33.5812 85.9271C34.051 86.7408 34.8127 87.1806 35.2825 86.9093L36.7346 86.0709L42.8528 89.6033C43.5172 89.9868 44.0558 89.6759 44.0558 88.9087L44.0558 84.7414L45.362 85.4955L47.4157 89.0525C47.8855 89.8663 48.6472 90.306 49.117 90.0348L51.1706 88.8491L53.6798 90.2978C54.3442 90.6814 54.8828 90.3704 54.8828 89.6033L54.8828 72.934ZM35.6348 77.1013L35.6348 63.2103L52.4768 72.934L52.4768 86.825L50.6723 85.7832C50.3533 85.599 50.0473 85.5687 49.8217 85.699L48.2663 86.5969L46.711 83.903C46.4854 83.5122 46.1794 83.1892 45.8603 83.005L35.6348 77.1013ZM34.4318 79.185L41.6498 83.3523L41.6498 86.1305L36.2363 83.005C35.9173 82.8208 35.6113 82.7905 35.3857 82.9208L34.4318 83.4715L33.478 81.8193C33.2524 81.4286 32.9464 81.1056 32.6274 80.9214L30.8229 79.8795L30.8229 71.5449L33.2289 72.934L33.2289 77.1013C33.2289 77.8685 33.7675 78.8014 34.4318 79.185ZM50.0708 78.4904C50.0708 77.7233 49.5322 76.7904 48.8678 76.4068L48.2663 76.0595C47.6019 75.6759 47.0633 75.9869 47.0633 76.7541C47.0633 77.5212 47.6019 78.4541 48.2663 78.8377L48.8678 79.185C49.5322 79.5686 50.0708 79.2576 50.0708 78.4904ZM45.8603 76.0595C45.8603 75.2923 45.3217 74.3594 44.6573 73.9759L44.0558 73.6286C43.3914 73.245 42.8528 73.5559 42.8528 74.3231C42.8528 75.0903 43.3914 76.0232 44.0558 76.4068L44.6573 76.7541C45.3217 77.1376 45.8603 76.8267 45.8603 76.0595ZM41.6498 73.6286C41.6498 72.8614 41.1112 71.9285 40.4468 71.5449L39.8453 71.1976C39.1809 70.8141 38.6423 71.125 38.6423 71.8922C38.6423 72.6594 39.1809 73.5923 39.8453 73.9759L40.4468 74.3231C41.1112 74.7067 41.6498 74.3958 41.6498 73.6286Z" stroke="white" stroke-linecap="round"/>
</g>
</g>
<defs>
<filter id="filter0_ii_1822_6173" x="33.8901" y="0.902344" width="97.7603" height="119.432" filterUnits="userSpaceOnUse" color-interpolation-filters="sRGB">
<feFlood flood-opacity="0" result="BackgroundImageFix"/>
<feBlend mode="normal" in="SourceGraphic" in2="BackgroundImageFix" result="shape"/>
<feColorMatrix in="SourceAlpha" type="matrix" values="0 0 0 0 0 0 0 0 0 0 0 0 0 0 0 0 0 0 127 0" result="hardAlpha"/>
<feOffset/>
<feGaussianBlur stdDeviation="36.5"/>
<feComposite in2="hardAlpha" operator="arithmetic" k2="-1" k3="1"/>
<feColorMatrix type="matrix" values="0 0 0 0 0.586013 0 0 0 0 0.465081 0 0 0 0 0.780556 0 0 0 1 0"/>
<feBlend mode="normal" in2="shape" result="effect1_innerShadow_1822_6173"/>
<feColorMatrix in="SourceAlpha" type="matrix" values="0 0 0 0 0 0 0 0 0 0 0 0 0 0 0 0 0 0 127 0" result="hardAlpha"/>
<feOffset/>
<feGaussianBlur stdDeviation="8"/>
<feComposite in2="hardAlpha" operator="arithmetic" k2="-1" k3="1"/>
<feColorMatrix type="matrix" values="0 0 0 0 0.935764 0 0 0 0 0.895833 0 0 0 0 1 0 0 0 1 0"/>
<feBlend mode="normal" in2="effect1_innerShadow_1822_6173" result="effect2_innerShadow_1822_6173"/>
</filter>
<filter id="filter1_bii_1822_6173" x="24.7397" y="-12.6514" width="123.76" height="145.432" filterUnits="userSpaceOnUse" color-interpolation-filters="sRGB">
<feFlood flood-opacity="0" result="BackgroundImageFix"/>
<feGaussianBlur in="BackgroundImageFix" stdDeviation="6.5"/>
<feComposite in2="SourceAlpha" operator="in" result="effect1_backgroundBlur_1822_6173"/>
<feBlend mode="normal" in="SourceGraphic" in2="effect1_backgroundBlur_1822_6173" result="shape"/>
<feColorMatrix in="SourceAlpha" type="matrix" values="0 0 0 0 0 0 0 0 0 0 0 0 0 0 0 0 0 0 127 0" result="hardAlpha"/>
<feOffset dx="-4"/>
<feGaussianBlur stdDeviation="14"/>
<feComposite in2="hardAlpha" operator="arithmetic" k2="-1" k3="1"/>
<feColorMatrix type="matrix" values="0 0 0 0 0.827847 0 0 0 0 0.720833 0 0 0 0 1 0 0 0 1 0"/>
<feBlend mode="normal" in2="shape" result="effect2_innerShadow_1822_6173"/>
<feColorMatrix in="SourceAlpha" type="matrix" values="0 0 0 0 0 0 0 0 0 0 0 0 0 0 0 0 0 0 127 0" result="hardAlpha"/>
<feOffset dx="-2" dy="-1"/>
<feGaussianBlur stdDeviation="2"/>
<feComposite in2="hardAlpha" operator="arithmetic" k2="-1" k3="1"/>
<feColorMatrix type="matrix" values="0 0 0 0 1 0 0 0 0 1 0 0 0 0 1 0 0 0 0.7 0"/>
<feBlend mode="normal" in2="effect2_innerShadow_1822_6173" result="effect3_innerShadow_1822_6173"/>
</filter>
<filter id="filter2_ddi_1822_6173" x="14.9478" y="36.7461" width="80.1694" height="75.1279" filterUnits="userSpaceOnUse" color-interpolation-filters="sRGB">
<feFlood flood-opacity="0" result="BackgroundImageFix"/>
<feColorMatrix in="SourceAlpha" type="matrix" values="0 0 0 0 0 0 0 0 0 0 0 0 0 0 0 0 0 0 127 0" result="hardAlpha"/>
<feOffset dx="-12" dy="-1"/>
<feGaussianBlur stdDeviation="11"/>
<feComposite in2="hardAlpha" operator="out"/>
<feColorMatrix type="matrix" values="0 0 0 0 0.36902 0 0 0 0 0.12549 0 0 0 0 0.760784 0 0 0 1 0"/>
<feBlend mode="normal" in2="BackgroundImageFix" result="effect1_dropShadow_1822_6173"/>
<feColorMatrix in="SourceAlpha" type="matrix" values="0 0 0 0 0 0 0 0 0 0 0 0 0 0 0 0 0 0 127 0" result="hardAlpha"/>
<feOffset dx="-12" dy="-1"/>
<feGaussianBlur stdDeviation="6"/>
<feComposite in2="hardAlpha" operator="out"/>
<feColorMatrix type="matrix" values="0 0 0 0 0.36902 0 0 0 0 0.12549 0 0 0 0 0.760784 0 0 0 1 0"/>
<feBlend mode="normal" in2="effect1_dropShadow_1822_6173" result="effect2_dropShadow_1822_6173"/>
<feBlend mode="normal" in="SourceGraphic" in2="effect2_dropShadow_1822_6173" result="shape"/>
<feColorMatrix in="SourceAlpha" type="matrix" values="0 0 0 0 0 0 0 0 0 0 0 0 0 0 0 0 0 0 127 0" result="hardAlpha"/>
<feOffset/>
<feGaussianBlur stdDeviation="1.5"/>
<feComposite in2="hardAlpha" operator="arithmetic" k2="-1" k3="1"/>
<feColorMatrix type="matrix" values="0 0 0 0 0.954967 0 0 0 0 0.929412 0 0 0 0 0.996078 0 0 0 1 0"/>
<feBlend mode="normal" in2="shape" result="effect3_innerShadow_1822_6173"/>
</filter>
<filter id="filter3_iii_1822_6173" x="48.9502" y="61.3965" width="32.6279" height="29.4766" filterUnits="userSpaceOnUse" color-interpolation-filters="sRGB">
<feFlood flood-opacity="0" result="BackgroundImageFix"/>
<feBlend mode="normal" in="SourceGraphic" in2="BackgroundImageFix" result="shape"/>
<feColorMatrix in="SourceAlpha" type="matrix" values="0 0 0 0 0 0 0 0 0 0 0 0 0 0 0 0 0 0 127 0" result="hardAlpha"/>
<feOffset/>
<feGaussianBlur stdDeviation="2"/>
<feComposite in2="hardAlpha" operator="arithmetic" k2="-1" k3="1"/>
<feColorMatrix type="matrix" values="0 0 0 0 1 0 0 0 0 1 0 0 0 0 1 0 0 0 1 0"/>
<feBlend mode="normal" in2="shape" result="effect1_innerShadow_1822_6173"/>
<feColorMatrix in="SourceAlpha" type="matrix" values="0 0 0 0 0 0 0 0 0 0 0 0 0 0 0 0 0 0 127 0" result="hardAlpha"/>
<feOffset/>
<feGaussianBlur stdDeviation="2"/>
<feComposite in2="hardAlpha" operator="arithmetic" k2="-1" k3="1"/>
<feColorMatrix type="matrix" values="0 0 0 0 1 0 0 0 0 1 0 0 0 0 1 0 0 0 1 0"/>
<feBlend mode="normal" in2="effect1_innerShadow_1822_6173" result="effect2_innerShadow_1822_6173"/>
<feColorMatrix in="SourceAlpha" type="matrix" values="0 0 0 0 0 0 0 0 0 0 0 0 0 0 0 0 0 0 127 0" result="hardAlpha"/>
<feOffset/>
<feGaussianBlur stdDeviation="2"/>
<feComposite in2="hardAlpha" operator="arithmetic" k2="-1" k3="1"/>
<feColorMatrix type="matrix" values="0 0 0 0 1 0 0 0 0 1 0 0 0 0 1 0 0 0 1 0"/>
<feBlend mode="normal" in2="effect2_innerShadow_1822_6173" result="effect3_innerShadow_1822_6173"/>
</filter>
<filter id="filter4_ddi_1822_6173" x="24.4067" y="20.1289" width="61.2495" height="63.3525" filterUnits="userSpaceOnUse" color-interpolation-filters="sRGB">
<feFlood flood-opacity="0" result="BackgroundImageFix"/>
<feColorMatrix in="SourceAlpha" type="matrix" values="0 0 0 0 0 0 0 0 0 0 0 0 0 0 0 0 0 0 127 0" result="hardAlpha"/>
<feOffset dx="-12" dy="-1"/>
<feGaussianBlur stdDeviation="11"/>
<feComposite in2="hardAlpha" operator="out"/>
<feColorMatrix type="matrix" values="0 0 0 0 0.36902 0 0 0 0 0.12549 0 0 0 0 0.760784 0 0 0 1 0"/>
<feBlend mode="normal" in2="BackgroundImageFix" result="effect1_dropShadow_1822_6173"/>
<feColorMatrix in="SourceAlpha" type="matrix" values="0 0 0 0 0 0 0 0 0 0 0 0 0 0 0 0 0 0 127 0" result="hardAlpha"/>
<feOffset dx="-12" dy="-1"/>
<feGaussianBlur stdDeviation="6"/>
<feComposite in2="hardAlpha" operator="out"/>
<feColorMatrix type="matrix" values="0 0 0 0 0.36902 0 0 0 0 0.12549 0 0 0 0 0.760784 0 0 0 1 0"/>
<feBlend mode="normal" in2="effect1_dropShadow_1822_6173" result="effect2_dropShadow_1822_6173"/>
<feBlend mode="normal" in="SourceGraphic" in2="effect2_dropShadow_1822_6173" result="shape"/>
<feColorMatrix in="SourceAlpha" type="matrix" values="0 0 0 0 0 0 0 0 0 0 0 0 0 0 0 0 0 0 127 0" result="hardAlpha"/>
<feOffset/>
<feGaussianBlur stdDeviation="1.5"/>
<feComposite in2="hardAlpha" operator="arithmetic" k2="-1" k3="1"/>
<feColorMatrix type="matrix" values="0 0 0 0 0.954967 0 0 0 0 0.929412 0 0 0 0 0.996078 0 0 0 1 0"/>
<feBlend mode="normal" in2="shape" result="effect3_innerShadow_1822_6173"/>
</filter>
<filter id="filter5_iii_1822_6173" x="58.4067" y="44.7803" width="13.7085" height="17.7012" filterUnits="userSpaceOnUse" color-interpolation-filters="sRGB">
<feFlood flood-opacity="0" result="BackgroundImageFix"/>
<feBlend mode="normal" in="SourceGraphic" in2="BackgroundImageFix" result="shape"/>
<feColorMatrix in="SourceAlpha" type="matrix" values="0 0 0 0 0 0 0 0 0 0 0 0 0 0 0 0 0 0 127 0" result="hardAlpha"/>
<feOffset/>
<feGaussianBlur stdDeviation="2"/>
<feComposite in2="hardAlpha" operator="arithmetic" k2="-1" k3="1"/>
<feColorMatrix type="matrix" values="0 0 0 0 1 0 0 0 0 1 0 0 0 0 1 0 0 0 1 0"/>
<feBlend mode="normal" in2="shape" result="effect1_innerShadow_1822_6173"/>
<feColorMatrix in="SourceAlpha" type="matrix" values="0 0 0 0 0 0 0 0 0 0 0 0 0 0 0 0 0 0 127 0" result="hardAlpha"/>
<feOffset/>
<feGaussianBlur stdDeviation="2"/>
<feComposite in2="hardAlpha" operator="arithmetic" k2="-1" k3="1"/>
<feColorMatrix type="matrix" values="0 0 0 0 1 0 0 0 0 1 0 0 0 0 1 0 0 0 1 0"/>
<feBlend mode="normal" in2="effect1_innerShadow_1822_6173" result="effect2_innerShadow_1822_6173"/>
<feColorMatrix in="SourceAlpha" type="matrix" values="0 0 0 0 0 0 0 0 0 0 0 0 0 0 0 0 0 0 127 0" result="hardAlpha"/>
<feOffset/>
<feGaussianBlur stdDeviation="2"/>
<feComposite in2="hardAlpha" operator="arithmetic" k2="-1" k3="1"/>
<feColorMatrix type="matrix" values="0 0 0 0 1 0 0 0 0 1 0 0 0 0 1 0 0 0 1 0"/>
<feBlend mode="normal" in2="effect2_innerShadow_1822_6173" result="effect3_innerShadow_1822_6173"/>
</filter>
<filter id="filter6_bii_1822_6173" x="2.50146" y="26.7803" width="81.0513" height="97.0859" filterUnits="userSpaceOnUse" color-interpolation-filters="sRGB">
<feFlood flood-opacity="0" result="BackgroundImageFix"/>
<feGaussianBlur in="BackgroundImageFix" stdDeviation="6.5"/>
<feComposite in2="SourceAlpha" operator="in" result="effect1_backgroundBlur_1822_6173"/>
<feBlend mode="normal" in="SourceGraphic" in2="effect1_backgroundBlur_1822_6173" result="shape"/>
<feColorMatrix in="SourceAlpha" type="matrix" values="0 0 0 0 0 0 0 0 0 0 0 0 0 0 0 0 0 0 127 0" result="hardAlpha"/>
<feOffset dx="-4"/>
<feGaussianBlur stdDeviation="14"/>
<feComposite in2="hardAlpha" operator="arithmetic" k2="-1" k3="1"/>
<feColorMatrix type="matrix" values="0 0 0 0 0.871528 0 0 0 0 0.791667 0 0 0 0 1 0 0 0 1 0"/>
<feBlend mode="normal" in2="shape" result="effect2_innerShadow_1822_6173"/>
<feColorMatrix in="SourceAlpha" type="matrix" values="0 0 0 0 0 0 0 0 0 0 0 0 0 0 0 0 0 0 127 0" result="hardAlpha"/>
<feOffset dx="-2" dy="2"/>
<feGaussianBlur stdDeviation="2"/>
<feComposite in2="hardAlpha" operator="arithmetic" k2="-1" k3="1"/>
<feColorMatrix type="matrix" values="0 0 0 0 0.832986 0 0 0 0 0.729167 0 0 0 0 1 0 0 0 1 0"/>
<feBlend mode="normal" in2="effect2_innerShadow_1822_6173" result="effect3_innerShadow_1822_6173"/>
</filter>
<filter id="filter7_dddddd_1822_6173" x="0.983887" y="47.0137" width="54.332" height="56.0078" filterUnits="userSpaceOnUse" color-interpolation-filters="sRGB">
<feFlood flood-opacity="0" result="BackgroundImageFix"/>
<feColorMatrix in="SourceAlpha" type="matrix" values="0 0 0 0 0 0 0 0 0 0 0 0 0 0 0 0 0 0 127 0" result="hardAlpha"/>
<feOffset dx="-15"/>
<feGaussianBlur stdDeviation="6"/>
<feComposite in2="hardAlpha" operator="out"/>
<feColorMatrix type="matrix" values="0 0 0 0 0.420818 0 0 0 0 0.171296 0 0 0 0 0.822222 0 0 0 0.7 0"/>
<feBlend mode="normal" in2="BackgroundImageFix" result="effect1_dropShadow_1822_6173"/>
<feColorMatrix in="SourceAlpha" type="matrix" values="0 0 0 0 0 0 0 0 0 0 0 0 0 0 0 0 0 0 127 0" result="hardAlpha"/>
<feOffset dx="-2" dy="-2"/>
<feComposite in2="hardAlpha" operator="out"/>
<feColorMatrix type="matrix" values="0 0 0 0 0.791765 0 0 0 0 0.67451 0 0 0 0 0.980392 0 0 0 1 0"/>
<feBlend mode="normal" in2="effect1_dropShadow_1822_6173" result="effect2_dropShadow_1822_6173"/>
<feColorMatrix in="SourceAlpha" type="matrix" values="0 0 0 0 0 0 0 0 0 0 0 0 0 0 0 0 0 0 127 0" result="hardAlpha"/>
<feOffset dx="-4" dy="-4"/>
<feComposite in2="hardAlpha" operator="out"/>
<feColorMatrix type="matrix" values="0 0 0 0 0.791765 0 0 0 0 0.67451 0 0 0 0 0.980392 0 0 0 1 0"/>
<feBlend mode="normal" in2="effect2_dropShadow_1822_6173" result="effect3_dropShadow_1822_6173"/>
<feColorMatrix in="SourceAlpha" type="matrix" values="0 0 0 0 0 0 0 0 0 0 0 0 0 0 0 0 0 0 127 0" result="hardAlpha"/>
<feOffset dx="-5" dy="-5"/>
<feComposite in2="hardAlpha" operator="out"/>
<feColorMatrix type="matrix" values="0 0 0 0 0.791765 0 0 0 0 0.67451 0 0 0 0 0.980392 0 0 0 1 0"/>
<feBlend mode="normal" in2="effect3_dropShadow_1822_6173" result="effect4_dropShadow_1822_6173"/>
<feColorMatrix in="SourceAlpha" type="matrix" values="0 0 0 0 0 0 0 0 0 0 0 0 0 0 0 0 0 0 127 0" result="hardAlpha"/>
<feOffset dx="-6" dy="-6"/>
<feComposite in2="hardAlpha" operator="out"/>
<feColorMatrix type="matrix" values="0 0 0 0 0.791765 0 0 0 0 0.67451 0 0 0 0 0.980392 0 0 0 1 0"/>
<feBlend mode="normal" in2="effect4_dropShadow_1822_6173" result="effect5_dropShadow_1822_6173"/>
<feColorMatrix in="SourceAlpha" type="matrix" values="0 0 0 0 0 0 0 0 0 0 0 0 0 0 0 0 0 0 127 0" result="hardAlpha"/>
<feOffset dx="-7" dy="-7"/>
<feComposite in2="hardAlpha" operator="out"/>
<feColorMatrix type="matrix" values="0 0 0 0 0.791594 0 0 0 0 0.674132 0 0 0 0 0.980556 0 0 0 1 0"/>
<feBlend mode="normal" in2="effect5_dropShadow_1822_6173" result="effect6_dropShadow_1822_6173"/>
<feBlend mode="normal" in="SourceGraphic" in2="effect6_dropShadow_1822_6173" result="shape"/>
</filter>
<linearGradient id="paint0_linear_1822_6173" x1="45.1386" y1="10.0198" x2="115.474" y2="111.323" gradientUnits="userSpaceOnUse">
<stop stop-color="#DEC9FF"/>
<stop offset="1" stop-color="#DFCBFF"/>
</linearGradient>
<linearGradient id="paint1_linear_1822_6173" x1="104.784" y1="116.94" x2="91.9542" y2="86.1296" gradientUnits="userSpaceOnUse">
<stop stop-color="#F1E9FF"/>
<stop offset="1" stop-color="#F1E9FF" stop-opacity="0"/>
</linearGradient>
<radialGradient id="paint2_radial_1822_6173" cx="0" cy="0" r="1" gradientUnits="userSpaceOnUse" gradientTransform="translate(97.854 96.2435) rotate(-174.542) scale(29.5392 24.8767)">
<stop offset="0.296875" stop-color="#6230B2"/>
<stop offset="1" stop-color="#6230B2" stop-opacity="0"/>
</radialGradient>
<linearGradient id="paint3_linear_1822_6173" x1="67.996" y1="15.0998" x2="111.565" y2="98.8187" gradientUnits="userSpaceOnUse">
<stop stop-color="#3C019A"/>
<stop offset="0.0648013" stop-color="#6423CC"/>
<stop offset="0.137966" stop-color="#A16AF9"/>
<stop offset="0.256956" stop-color="#CEAFFF"/>
<stop offset="0.359182" stop-color="#A16AF9"/>
<stop offset="0.475278" stop-color="#7F36F4"/>
<stop offset="0.586" stop-color="#3C019A"/>
<stop offset="0.911458" stop-color="#5F19D0"/>
<stop offset="1" stop-color="#6B25DA"/>
</linearGradient>
<linearGradient id="paint4_linear_1822_6173" x1="42.8906" y1="27.7012" x2="95.5446" y2="108.099" gradientUnits="userSpaceOnUse">
<stop stop-color="#8F49FF"/>
<stop offset="1" stop-color="#4D11AF"/>
</linearGradient>
<linearGradient id="paint5_linear_1822_6173" x1="69.6572" y1="27.7012" x2="69.6572" y2="107.024" gradientUnits="userSpaceOnUse">
<stop stop-color="#D2B7FF"/>
<stop offset="1" stop-color="#D3B7FF" stop-opacity="0"/>
</linearGradient>
<linearGradient id="paint6_linear_1822_6173" x1="55.1025" y1="6.11224" x2="115.962" y2="112.495" gradientUnits="userSpaceOnUse">
<stop stop-color="#C19AFF"/>
<stop offset="0.104179" stop-color="#FEFDFF"/>
<stop offset="0.377376" stop-color="#FEFDFF"/>
<stop offset="0.560167" stop-color="#6419DC"/>
<stop offset="0.801352" stop-color="white"/>
<stop offset="1" stop-color="#F1E8FF"/>
</linearGradient>
<linearGradient id="paint7_linear_1822_6173" x1="58.6086" y1="59.7571" x2="72.4008" y2="91.5265" gradientUnits="userSpaceOnUse">
<stop offset="0.214688" stop-color="#AC87E7"/>
<stop offset="0.380208" stop-color="#E8DAFF"/>
<stop offset="0.514274" stop-color="#AC87E7"/>
</linearGradient>
<linearGradient id="paint8_linear_1822_6173" x1="63.0139" y1="43.1358" x2="73.0758" y2="60.915" gradientUnits="userSpaceOnUse">
<stop offset="0.214688" stop-color="#AC87E7"/>
<stop offset="0.380208" stop-color="#E8DAFF"/>
<stop offset="0.514274" stop-color="#AC87E7"/>
</linearGradient>
<linearGradient id="paint9_linear_1822_6173" x1="32.6133" y1="38.7768" x2="66.5891" y2="109.595" gradientUnits="userSpaceOnUse">
<stop stop-color="#8F52F0"/>
<stop offset="0.424235" stop-color="#CEAFFF" stop-opacity="0.42"/>
<stop offset="0.62589" stop-color="#7E2FFE" stop-opacity="0.28"/>
<stop offset="1" stop-color="#4400B2"/>
</linearGradient>
<linearGradient id="paint10_linear_1822_6173" x1="52.2777" y1="3.06766" x2="23.4147" y2="64.7049" gradientUnits="userSpaceOnUse">
<stop stop-color="#A46FF9"/>
<stop offset="0.104179" stop-color="#FEFDFF"/>
<stop offset="0.377376" stop-color="#FEFDFF"/>
<stop offset="0.560167" stop-color="#7538D7"/>
<stop offset="1" stop-color="#EBE3F7"/>
</linearGradient>
<linearGradient id="paint11_linear_1822_6173" x1="54.8047" y1="84.4429" x2="41.6465" y2="61.6088" gradientUnits="userSpaceOnUse">
<stop stop-color="#E2D0FF"/>
<stop offset="1" stop-color="white"/>
</linearGradient>
<radialGradient id="paint12_radial_1822_6173" cx="0" cy="0" r="1" gradientUnits="userSpaceOnUse" gradientTransform="translate(79.2229 130.19) rotate(-103.481) scale(42.3925 39.7148)">
<stop stop-color="#7D2CFF"/>
<stop offset="1" stop-color="#7D2CFF" stop-opacity="0"/>
</radialGradient>
</defs>
</svg>
