<svg width="137" height="124" viewBox="0 0 137 124" fill="none" xmlns="http://www.w3.org/2000/svg">
<g opacity="0.8">
<g filter="url(#filter0_ii_1822_6159)">
<path d="M44.3527 13.2177C44.2665 13.258 44.1821 13.3021 44.0998 13.3498C43.4622 13.7194 42.9564 14.3036 42.6113 15.0691C42.2662 15.8346 42.0886 16.7664 42.0886 17.8113L42.0887 78.8135C42.0886 79.8584 42.2662 80.9959 42.6113 82.1612C42.9564 83.3264 43.4622 84.4965 44.0998 85.6046C44.7374 86.7127 45.4944 87.7372 46.3275 88.6196C47.1606 89.5019 48.0536 90.2249 48.9553 90.7472L103.889 122.562C104.79 123.084 105.683 123.395 106.516 123.478C107.242 123.55 107.91 123.447 108.491 123.175L108.493 123.174L134.237 111.132C134.281 111.112 134.325 111.09 134.368 111.068C134.409 111.046 134.45 111.024 134.49 111L133.974 111.242C133.457 111.431 132.881 111.496 132.263 111.435C131.429 111.352 130.537 111.041 129.635 110.519L74.7013 78.7042C73.7996 78.182 72.9066 77.459 72.0735 76.5766C71.2405 75.6943 70.4834 74.6698 69.8459 73.5617C69.2082 72.4536 68.7024 71.2834 68.3573 70.1182C68.0122 68.953 67.8346 67.8155 67.8347 66.7706L67.8346 5.76838C67.8346 4.72348 68.0122 3.79168 68.3574 3.02617C68.7024 2.26065 69.2082 1.67644 69.8458 1.30686C69.9277 1.25941 70.0115 1.21562 70.0973 1.17551L44.3527 13.2177Z" fill="url(#paint0_linear_1822_6159)"/>
<path d="M44.3527 13.2177C44.2665 13.258 44.1821 13.3021 44.0998 13.3498C43.4622 13.7194 42.9564 14.3036 42.6113 15.0691C42.2662 15.8346 42.0886 16.7664 42.0886 17.8113L42.0887 78.8135C42.0886 79.8584 42.2662 80.9959 42.6113 82.1612C42.9564 83.3264 43.4622 84.4965 44.0998 85.6046C44.7374 86.7127 45.4944 87.7372 46.3275 88.6196C47.1606 89.5019 48.0536 90.2249 48.9553 90.7472L103.889 122.562C104.79 123.084 105.683 123.395 106.516 123.478C107.242 123.55 107.91 123.447 108.491 123.175L108.493 123.174L134.237 111.132C134.281 111.112 134.325 111.09 134.368 111.068C134.409 111.046 134.45 111.024 134.49 111L133.974 111.242C133.457 111.431 132.881 111.496 132.263 111.435C131.429 111.352 130.537 111.041 129.635 110.519L74.7013 78.7042C73.7996 78.182 72.9066 77.459 72.0735 76.5766C71.2405 75.6943 70.4834 74.6698 69.8459 73.5617C69.2082 72.4536 68.7024 71.2834 68.3573 70.1182C68.0122 68.953 67.8346 67.8155 67.8347 66.7706L67.8346 5.76838C67.8346 4.72348 68.0122 3.79168 68.3574 3.02617C68.7024 2.26065 69.2082 1.67644 69.8458 1.30686C69.9277 1.25941 70.0115 1.21562 70.0973 1.17551L44.3527 13.2177Z" fill="url(#paint1_linear_1822_6159)"/>
<path d="M44.3527 13.2177C44.2665 13.258 44.1821 13.3021 44.0998 13.3498C43.4622 13.7194 42.9564 14.3036 42.6113 15.0691C42.2662 15.8346 42.0886 16.7664 42.0886 17.8113L42.0887 78.8135C42.0886 79.8584 42.2662 80.9959 42.6113 82.1612C42.9564 83.3264 43.4622 84.4965 44.0998 85.6046C44.7374 86.7127 45.4944 87.7372 46.3275 88.6196C47.1606 89.5019 48.0536 90.2249 48.9553 90.7472L103.889 122.562C104.79 123.084 105.683 123.395 106.516 123.478C107.242 123.55 107.91 123.447 108.491 123.175L108.493 123.174L134.237 111.132C134.281 111.112 134.325 111.09 134.368 111.068C134.409 111.046 134.45 111.024 134.49 111L133.974 111.242C133.457 111.431 132.881 111.496 132.263 111.435C131.429 111.352 130.537 111.041 129.635 110.519L74.7013 78.7042C73.7996 78.182 72.9066 77.459 72.0735 76.5766C71.2405 75.6943 70.4834 74.6698 69.8459 73.5617C69.2082 72.4536 68.7024 71.2834 68.3573 70.1182C68.0122 68.953 67.8346 67.8155 67.8347 66.7706L67.8346 5.76838C67.8346 4.72348 68.0122 3.79168 68.3574 3.02617C68.7024 2.26065 69.2082 1.67644 69.8458 1.30686C69.9277 1.25941 70.0115 1.21562 70.0973 1.17551L44.3527 13.2177Z" fill="url(#paint2_radial_1822_6159)"/>
</g>
<path d="M53.1392 23.2763C52.5682 23.2196 52.0427 23.3005 51.585 23.5144L77.331 11.4715C77.7887 11.2576 78.3142 11.1767 78.8853 11.2334C79.5409 11.2984 80.2437 11.5434 80.9534 11.9544L96.7285 21.0905C97.4388 21.502 98.1423 21.7472 98.7985 21.812C99.0175 21.8337 99.2299 21.8352 99.4343 21.8166L108.145 17.742C108.801 17.8071 109.504 18.0522 110.214 18.4635L124.188 26.5563C125.621 27.3864 126.995 28.8422 128.009 30.6036C129.022 32.365 129.592 34.2875 129.592 35.9484V94.3959C129.592 95.2182 129.452 95.9516 129.18 96.5541C128.909 97.1566 128.511 97.6163 128.009 97.9072L102.263 109.95C102.765 109.659 103.163 109.199 103.434 108.597C103.706 107.995 103.846 107.261 103.846 106.439V47.9913C103.846 46.3305 103.276 44.4079 102.263 42.6465C101.249 40.8852 99.8748 39.4293 98.4415 38.5992L84.4679 30.5064C83.8674 30.1586 83.2719 29.9295 82.7056 29.8278L74.6067 33.6162C74.149 33.8304 73.6235 33.9115 73.0524 33.855C72.3962 33.7902 71.6928 33.5449 70.9824 33.1334L55.2074 23.9973C54.4977 23.5863 53.7949 23.3413 53.1392 23.2763Z" fill="url(#paint3_linear_1822_6159)"/>
<path d="M84.4678 31.5059L84.4677 31.5058C83.8718 31.1606 83.2816 30.9548 82.7309 30.9002C82.1802 30.8456 81.6797 30.9432 81.258 31.1878L81.2579 31.1879L75.4199 34.5716C74.8376 34.91 74.146 35.0455 73.3845 34.9702C72.623 34.8949 71.8068 34.6104 70.9823 34.1329C70.9823 34.1328 70.9823 34.1328 70.9822 34.1328L55.2073 24.9968C54.6116 24.6518 54.0216 24.4461 53.4711 24.3915C52.9206 24.3369 52.4202 24.4345 51.9986 24.6788C51.577 24.9232 51.2425 25.3095 51.0142 25.816C50.7859 26.3224 50.6684 26.9389 50.6684 27.6303L50.6684 75.6408C50.6684 76.3322 50.7859 77.0848 51.0142 77.8557C51.2425 78.6266 51.577 79.4004 51.9986 80.1331C52.4202 80.8658 52.9206 81.5429 53.4711 82.126C54.0216 82.709 54.6116 83.1867 55.2073 83.5317L98.4414 108.571C99.0372 108.916 99.6271 109.121 100.178 109.176C100.728 109.231 101.229 109.133 101.65 108.889C102.072 108.644 102.406 108.258 102.635 107.751C102.863 107.245 102.98 106.628 102.98 105.937L102.98 47.4896C102.98 46.0931 102.502 44.477 101.65 42.9972C100.799 41.5176 99.6445 40.2954 98.4414 39.5987L84.4678 31.5059Z" fill="url(#paint4_linear_1822_6159)" stroke="url(#paint5_linear_1822_6159)" stroke-width="2"/>
<g filter="url(#filter1_bii_1822_6159)">
<path d="M46.3261 12.9148C45.6006 12.8429 44.9328 12.9456 44.3512 13.2174L70.0973 1.17447C70.6788 0.902643 71.3466 0.799939 72.0721 0.871887C72.9052 0.954513 73.7982 1.26584 74.6999 1.78808L94.7438 13.3964C95.5068 13.8384 96.2635 14.1294 96.983 14.2586L107.275 9.44444C107.856 9.17263 108.524 9.06991 109.25 9.14183C110.083 9.22448 110.976 9.53594 111.878 10.0585L129.633 20.3412C131.455 21.3959 133.201 23.2458 134.489 25.4837C135.777 27.7217 136.5 30.1646 136.5 32.2749V106.538C136.5 107.583 136.322 108.515 135.977 109.281C135.632 110.046 135.126 110.63 134.489 111L108.743 123.043C109.38 122.673 109.886 122.089 110.231 121.324C110.576 120.558 110.754 119.626 110.754 118.581V44.3178C110.754 42.2075 110.031 39.7647 108.743 37.5267C107.455 35.2887 105.708 33.4389 103.887 32.3841L86.1324 22.1014C85.3694 21.6594 84.6126 21.3684 83.8931 21.2392L73.6027 26.0526C73.0213 26.3248 72.3534 26.4278 71.6279 26.3561C70.7941 26.2737 69.9003 25.9622 68.9977 25.4393L48.9539 13.831C48.0521 13.3088 47.1592 12.9974 46.3261 12.9148Z" fill="url(#paint6_linear_1822_6159)" fill-opacity="0.3"/>
</g>
<g filter="url(#filter2_ddi_1822_6159)">
<path d="M83.3721 56.1792L56.7831 40.7803L60.0421 39.2559L86.6311 54.6548L86.6311 60.8143L83.3721 62.3387V56.1792Z" fill="url(#paint7_linear_1822_6159)"/>
<path d="M92.2351 61.3122L86.9174 58.2324L90.1763 56.708L95.4941 59.7877V65.9473L92.2351 67.4717V61.3122Z" fill="url(#paint8_linear_1822_6159)"/>
</g>
<g filter="url(#filter3_ddi_1822_6159)">
<path d="M83.3721 72.603L56.7831 57.2041L60.0421 55.6797L86.6311 71.0786V77.2382L83.3721 78.7626V72.603Z" fill="url(#paint9_linear_1822_6159)"/>
<path d="M86.9174 74.6562L92.2351 77.736V83.8956L95.4941 82.3712V76.2116L90.1763 73.1318L86.9174 74.6562Z" fill="url(#paint10_linear_1822_6159)"/>
</g>
<g filter="url(#filter4_iii_1822_6159)">
<path d="M92.2344 77.738L86.9166 74.6582L86.9166 80.8178L92.2344 83.8976L92.2344 77.738Z" fill="#F4EEFD"/>
<path d="M83.3714 72.605L56.7824 57.2061L56.7824 63.3657L83.3714 78.7646L83.3714 72.605Z" fill="#F4EEFD"/>
<path d="M92.2344 61.3125L86.9166 58.2327L86.9166 64.3923L92.2344 67.4721L92.2344 61.3125Z" fill="#F4EEFD"/>
<path d="M83.3714 56.1795L56.7824 40.7806L56.7824 46.9402L83.3714 62.3391L83.3714 56.1795Z" fill="#F4EEFD"/>
</g>
<path d="M25.0492 39.5949C29.6452 37.446 35.7369 38.0445 42.4193 41.9146C56.7326 50.2041 68.3359 70.364 68.3359 86.943C68.3359 95.7796 65.0395 101.815 59.7934 104.27L61.9478 103.263C67.1962 100.809 70.4941 94.7722 70.4941 85.9334C70.4941 69.3545 58.8909 49.1946 44.5776 40.9051C37.8952 37.035 31.8034 36.4364 27.2074 38.5853L25.0492 39.5949Z" fill="url(#paint11_linear_1822_6159)" fill-opacity="0.6"/>
<g filter="url(#filter5_bii_1822_6159)">
<ellipse cx="29.9491" cy="30.0189" rx="29.9491" ry="30.0189" transform="matrix(-0.865352 -0.501165 -2.19622e-08 1 68.334 56.9229)" fill="url(#paint12_linear_1822_6159)" fill-opacity="0.3"/>
</g>
<g filter="url(#filter6_dddddd_1822_6159)">
<path fill-rule="evenodd" clip-rule="evenodd" d="M34.8839 56.5382C34.4416 55.7697 33.7244 55.3543 33.2821 55.6105L28.4765 58.3936C28.2641 58.5166 28.1448 58.7812 28.1448 59.1291C28.1448 59.4771 28.2641 59.8799 28.4765 60.249L33.2814 68.5972C33.2816 68.5976 33.2818 68.598 33.2821 68.5983C33.2823 68.5987 33.2825 68.5991 33.2827 68.5994L46.0968 90.8632C46.3092 91.2322 46.5973 91.5373 46.8977 91.7113L51.7031 94.4942C52.3287 94.8565 52.8358 94.5628 52.8358 93.8382L52.8359 88.2722C52.8359 87.9243 52.7166 87.5214 52.5042 87.1523L39.6931 64.8939C39.6919 64.8918 39.6907 64.8896 39.6894 64.8875C39.6882 64.8854 39.687 64.8832 39.6857 64.8811L34.8839 56.5382ZM38.8885 67.2068L50.5706 87.5036L50.5705 91.2143L47.3669 89.359L35.6848 69.0622L38.8885 67.2068ZM34.083 66.2791L37.2867 64.4237L34.083 58.8574L30.8793 60.7128L34.083 66.2791Z" fill="url(#paint13_linear_1822_6159)"/>
<path fill-rule="evenodd" clip-rule="evenodd" d="M34.8839 56.5382C34.4416 55.7697 33.7244 55.3543 33.2821 55.6105L28.4765 58.3936C28.2641 58.5166 28.1448 58.7812 28.1448 59.1291C28.1448 59.4771 28.2641 59.8799 28.4765 60.249L33.2814 68.5972C33.2816 68.5976 33.2818 68.598 33.2821 68.5983C33.2823 68.5987 33.2825 68.5991 33.2827 68.5994L46.0968 90.8632C46.3092 91.2322 46.5973 91.5373 46.8977 91.7113L51.7031 94.4942C52.3287 94.8565 52.8358 94.5628 52.8358 93.8382L52.8359 88.2722C52.8359 87.9243 52.7166 87.5214 52.5042 87.1523L39.6931 64.8939C39.6919 64.8918 39.6907 64.8896 39.6894 64.8875C39.6882 64.8854 39.687 64.8832 39.6857 64.8811L34.8839 56.5382ZM38.8885 67.2068L50.5706 87.5036L50.5705 91.2143L47.3669 89.359L35.6848 69.0622L38.8885 67.2068ZM34.083 66.2791L37.2867 64.4237L34.083 58.8574L30.8793 60.7128L34.083 66.2791Z" fill="url(#paint14_radial_1822_6159)" fill-opacity="0.5"/>
<path fill-rule="evenodd" clip-rule="evenodd" d="M34.8839 56.5382C34.4416 55.7697 33.7244 55.3543 33.2821 55.6105L28.4765 58.3936C28.2641 58.5166 28.1448 58.7812 28.1448 59.1291C28.1448 59.4771 28.2641 59.8799 28.4765 60.249L33.2814 68.5972C33.2816 68.5976 33.2818 68.598 33.2821 68.5983C33.2823 68.5987 33.2825 68.5991 33.2827 68.5994L46.0968 90.8632C46.3092 91.2322 46.5973 91.5373 46.8977 91.7113L51.7031 94.4942C52.3287 94.8565 52.8358 94.5628 52.8358 93.8382L52.8359 88.2722C52.8359 87.9243 52.7166 87.5214 52.5042 87.1523L39.6931 64.8939C39.6919 64.8918 39.6907 64.8896 39.6894 64.8875C39.6882 64.8854 39.687 64.8832 39.6857 64.8811L34.8839 56.5382ZM38.8885 67.2068L50.5706 87.5036L50.5705 91.2143L47.3669 89.359L35.6848 69.0622L38.8885 67.2068ZM34.083 66.2791L37.2867 64.4237L34.083 58.8574L30.8793 60.7128L34.083 66.2791Z" stroke="white" stroke-linecap="round"/>
</g>
</g>
<defs>
<filter id="filter0_ii_1822_6159" x="42.0889" y="1.17578" width="92.4014" height="122.324" filterUnits="userSpaceOnUse" color-interpolation-filters="sRGB">
<feFlood flood-opacity="0" result="BackgroundImageFix"/>
<feBlend mode="normal" in="SourceGraphic" in2="BackgroundImageFix" result="shape"/>
<feColorMatrix in="SourceAlpha" type="matrix" values="0 0 0 0 0 0 0 0 0 0 0 0 0 0 0 0 0 0 127 0" result="hardAlpha"/>
<feOffset/>
<feGaussianBlur stdDeviation="36.5"/>
<feComposite in2="hardAlpha" operator="arithmetic" k2="-1" k3="1"/>
<feColorMatrix type="matrix" values="0 0 0 0 0.586013 0 0 0 0 0.465081 0 0 0 0 0.780556 0 0 0 1 0"/>
<feBlend mode="normal" in2="shape" result="effect1_innerShadow_1822_6159"/>
<feColorMatrix in="SourceAlpha" type="matrix" values="0 0 0 0 0 0 0 0 0 0 0 0 0 0 0 0 0 0 127 0" result="hardAlpha"/>
<feOffset/>
<feGaussianBlur stdDeviation="8"/>
<feComposite in2="hardAlpha" operator="arithmetic" k2="-1" k3="1"/>
<feColorMatrix type="matrix" values="0 0 0 0 0.935764 0 0 0 0 0.895833 0 0 0 0 1 0 0 0 1 0"/>
<feBlend mode="normal" in2="effect1_innerShadow_1822_6159" result="effect2_innerShadow_1822_6159"/>
</filter>
<filter id="filter1_bii_1822_6159" x="31.3516" y="-12.1504" width="118.148" height="148.193" filterUnits="userSpaceOnUse" color-interpolation-filters="sRGB">
<feFlood flood-opacity="0" result="BackgroundImageFix"/>
<feGaussianBlur in="BackgroundImageFix" stdDeviation="6.5"/>
<feComposite in2="SourceAlpha" operator="in" result="effect1_backgroundBlur_1822_6159"/>
<feBlend mode="normal" in="SourceGraphic" in2="effect1_backgroundBlur_1822_6159" result="shape"/>
<feColorMatrix in="SourceAlpha" type="matrix" values="0 0 0 0 0 0 0 0 0 0 0 0 0 0 0 0 0 0 127 0" result="hardAlpha"/>
<feOffset dx="-4"/>
<feGaussianBlur stdDeviation="14"/>
<feComposite in2="hardAlpha" operator="arithmetic" k2="-1" k3="1"/>
<feColorMatrix type="matrix" values="0 0 0 0 0.827847 0 0 0 0 0.720833 0 0 0 0 1 0 0 0 1 0"/>
<feBlend mode="normal" in2="shape" result="effect2_innerShadow_1822_6159"/>
<feColorMatrix in="SourceAlpha" type="matrix" values="0 0 0 0 0 0 0 0 0 0 0 0 0 0 0 0 0 0 127 0" result="hardAlpha"/>
<feOffset dx="-2" dy="-1"/>
<feGaussianBlur stdDeviation="2"/>
<feComposite in2="hardAlpha" operator="arithmetic" k2="-1" k3="1"/>
<feColorMatrix type="matrix" values="0 0 0 0 1 0 0 0 0 1 0 0 0 0 1 0 0 0 0.7 0"/>
<feBlend mode="normal" in2="effect2_innerShadow_1822_6159" result="effect3_innerShadow_1822_6159"/>
</filter>
<filter id="filter2_ddi_1822_6159" x="22.7832" y="16.2559" width="82.7109" height="72.2158" filterUnits="userSpaceOnUse" color-interpolation-filters="sRGB">
<feFlood flood-opacity="0" result="BackgroundImageFix"/>
<feColorMatrix in="SourceAlpha" type="matrix" values="0 0 0 0 0 0 0 0 0 0 0 0 0 0 0 0 0 0 127 0" result="hardAlpha"/>
<feOffset dx="-12" dy="-1"/>
<feGaussianBlur stdDeviation="11"/>
<feComposite in2="hardAlpha" operator="out"/>
<feColorMatrix type="matrix" values="0 0 0 0 0.36902 0 0 0 0 0.12549 0 0 0 0 0.760784 0 0 0 1 0"/>
<feBlend mode="normal" in2="BackgroundImageFix" result="effect1_dropShadow_1822_6159"/>
<feColorMatrix in="SourceAlpha" type="matrix" values="0 0 0 0 0 0 0 0 0 0 0 0 0 0 0 0 0 0 127 0" result="hardAlpha"/>
<feOffset dx="-12" dy="-1"/>
<feGaussianBlur stdDeviation="6"/>
<feComposite in2="hardAlpha" operator="out"/>
<feColorMatrix type="matrix" values="0 0 0 0 0.36902 0 0 0 0 0.12549 0 0 0 0 0.760784 0 0 0 1 0"/>
<feBlend mode="normal" in2="effect1_dropShadow_1822_6159" result="effect2_dropShadow_1822_6159"/>
<feBlend mode="normal" in="SourceGraphic" in2="effect2_dropShadow_1822_6159" result="shape"/>
<feColorMatrix in="SourceAlpha" type="matrix" values="0 0 0 0 0 0 0 0 0 0 0 0 0 0 0 0 0 0 127 0" result="hardAlpha"/>
<feOffset/>
<feGaussianBlur stdDeviation="1.5"/>
<feComposite in2="hardAlpha" operator="arithmetic" k2="-1" k3="1"/>
<feColorMatrix type="matrix" values="0 0 0 0 0.954967 0 0 0 0 0.929412 0 0 0 0 0.996078 0 0 0 1 0"/>
<feBlend mode="normal" in2="shape" result="effect3_innerShadow_1822_6159"/>
</filter>
<filter id="filter3_ddi_1822_6159" x="22.7832" y="32.6797" width="82.7109" height="72.2158" filterUnits="userSpaceOnUse" color-interpolation-filters="sRGB">
<feFlood flood-opacity="0" result="BackgroundImageFix"/>
<feColorMatrix in="SourceAlpha" type="matrix" values="0 0 0 0 0 0 0 0 0 0 0 0 0 0 0 0 0 0 127 0" result="hardAlpha"/>
<feOffset dx="-12" dy="-1"/>
<feGaussianBlur stdDeviation="11"/>
<feComposite in2="hardAlpha" operator="out"/>
<feColorMatrix type="matrix" values="0 0 0 0 0.36902 0 0 0 0 0.12549 0 0 0 0 0.760784 0 0 0 1 0"/>
<feBlend mode="normal" in2="BackgroundImageFix" result="effect1_dropShadow_1822_6159"/>
<feColorMatrix in="SourceAlpha" type="matrix" values="0 0 0 0 0 0 0 0 0 0 0 0 0 0 0 0 0 0 127 0" result="hardAlpha"/>
<feOffset dx="-12" dy="-1"/>
<feGaussianBlur stdDeviation="6"/>
<feComposite in2="hardAlpha" operator="out"/>
<feColorMatrix type="matrix" values="0 0 0 0 0.36902 0 0 0 0 0.12549 0 0 0 0 0.760784 0 0 0 1 0"/>
<feBlend mode="normal" in2="effect1_dropShadow_1822_6159" result="effect2_dropShadow_1822_6159"/>
<feBlend mode="normal" in="SourceGraphic" in2="effect2_dropShadow_1822_6159" result="shape"/>
<feColorMatrix in="SourceAlpha" type="matrix" values="0 0 0 0 0 0 0 0 0 0 0 0 0 0 0 0 0 0 127 0" result="hardAlpha"/>
<feOffset/>
<feGaussianBlur stdDeviation="1.5"/>
<feComposite in2="hardAlpha" operator="arithmetic" k2="-1" k3="1"/>
<feColorMatrix type="matrix" values="0 0 0 0 0.954967 0 0 0 0 0.929412 0 0 0 0 0.996078 0 0 0 1 0"/>
<feBlend mode="normal" in2="shape" result="effect3_innerShadow_1822_6159"/>
</filter>
<filter id="filter4_iii_1822_6159" x="56.7822" y="40.7803" width="35.4521" height="43.1172" filterUnits="userSpaceOnUse" color-interpolation-filters="sRGB">
<feFlood flood-opacity="0" result="BackgroundImageFix"/>
<feBlend mode="normal" in="SourceGraphic" in2="BackgroundImageFix" result="shape"/>
<feColorMatrix in="SourceAlpha" type="matrix" values="0 0 0 0 0 0 0 0 0 0 0 0 0 0 0 0 0 0 127 0" result="hardAlpha"/>
<feOffset/>
<feGaussianBlur stdDeviation="2"/>
<feComposite in2="hardAlpha" operator="arithmetic" k2="-1" k3="1"/>
<feColorMatrix type="matrix" values="0 0 0 0 1 0 0 0 0 1 0 0 0 0 1 0 0 0 1 0"/>
<feBlend mode="normal" in2="shape" result="effect1_innerShadow_1822_6159"/>
<feColorMatrix in="SourceAlpha" type="matrix" values="0 0 0 0 0 0 0 0 0 0 0 0 0 0 0 0 0 0 127 0" result="hardAlpha"/>
<feOffset/>
<feGaussianBlur stdDeviation="2"/>
<feComposite in2="hardAlpha" operator="arithmetic" k2="-1" k3="1"/>
<feColorMatrix type="matrix" values="0 0 0 0 1 0 0 0 0 1 0 0 0 0 1 0 0 0 1 0"/>
<feBlend mode="normal" in2="effect1_innerShadow_1822_6159" result="effect2_innerShadow_1822_6159"/>
<feColorMatrix in="SourceAlpha" type="matrix" values="0 0 0 0 0 0 0 0 0 0 0 0 0 0 0 0 0 0 127 0" result="hardAlpha"/>
<feOffset/>
<feGaussianBlur stdDeviation="2"/>
<feComposite in2="hardAlpha" operator="arithmetic" k2="-1" k3="1"/>
<feColorMatrix type="matrix" values="0 0 0 0 1 0 0 0 0 1 0 0 0 0 1 0 0 0 1 0"/>
<feBlend mode="normal" in2="effect2_innerShadow_1822_6159" result="effect3_innerShadow_1822_6159"/>
</filter>
<filter id="filter5_bii_1822_6159" x="3.50098" y="25.3633" width="77.833" height="93.1387" filterUnits="userSpaceOnUse" color-interpolation-filters="sRGB">
<feFlood flood-opacity="0" result="BackgroundImageFix"/>
<feGaussianBlur in="BackgroundImageFix" stdDeviation="6.5"/>
<feComposite in2="SourceAlpha" operator="in" result="effect1_backgroundBlur_1822_6159"/>
<feBlend mode="normal" in="SourceGraphic" in2="effect1_backgroundBlur_1822_6159" result="shape"/>
<feColorMatrix in="SourceAlpha" type="matrix" values="0 0 0 0 0 0 0 0 0 0 0 0 0 0 0 0 0 0 127 0" result="hardAlpha"/>
<feOffset dx="-4"/>
<feGaussianBlur stdDeviation="14"/>
<feComposite in2="hardAlpha" operator="arithmetic" k2="-1" k3="1"/>
<feColorMatrix type="matrix" values="0 0 0 0 0.871528 0 0 0 0 0.791667 0 0 0 0 1 0 0 0 1 0"/>
<feBlend mode="normal" in2="shape" result="effect2_innerShadow_1822_6159"/>
<feColorMatrix in="SourceAlpha" type="matrix" values="0 0 0 0 0 0 0 0 0 0 0 0 0 0 0 0 0 0 127 0" result="hardAlpha"/>
<feOffset dx="-2" dy="2"/>
<feGaussianBlur stdDeviation="2"/>
<feComposite in2="hardAlpha" operator="arithmetic" k2="-1" k3="1"/>
<feColorMatrix type="matrix" values="0 0 0 0 0.832986 0 0 0 0 0.729167 0 0 0 0 1 0 0 0 1 0"/>
<feBlend mode="normal" in2="effect2_innerShadow_1822_6159" result="effect3_innerShadow_1822_6159"/>
</filter>
<filter id="filter6_dddddd_1822_6159" x="0.711914" y="42.9756" width="52.5566" height="64.2334" filterUnits="userSpaceOnUse" color-interpolation-filters="sRGB">
<feFlood flood-opacity="0" result="BackgroundImageFix"/>
<feColorMatrix in="SourceAlpha" type="matrix" values="0 0 0 0 0 0 0 0 0 0 0 0 0 0 0 0 0 0 127 0" result="hardAlpha"/>
<feOffset dx="-15"/>
<feGaussianBlur stdDeviation="6"/>
<feComposite in2="hardAlpha" operator="out"/>
<feColorMatrix type="matrix" values="0 0 0 0 0.420818 0 0 0 0 0.171296 0 0 0 0 0.822222 0 0 0 0.7 0"/>
<feBlend mode="normal" in2="BackgroundImageFix" result="effect1_dropShadow_1822_6159"/>
<feColorMatrix in="SourceAlpha" type="matrix" values="0 0 0 0 0 0 0 0 0 0 0 0 0 0 0 0 0 0 127 0" result="hardAlpha"/>
<feOffset dx="-2" dy="-2"/>
<feComposite in2="hardAlpha" operator="out"/>
<feColorMatrix type="matrix" values="0 0 0 0 0.791765 0 0 0 0 0.67451 0 0 0 0 0.980392 0 0 0 1 0"/>
<feBlend mode="normal" in2="effect1_dropShadow_1822_6159" result="effect2_dropShadow_1822_6159"/>
<feColorMatrix in="SourceAlpha" type="matrix" values="0 0 0 0 0 0 0 0 0 0 0 0 0 0 0 0 0 0 127 0" result="hardAlpha"/>
<feOffset dx="-4" dy="-4"/>
<feComposite in2="hardAlpha" operator="out"/>
<feColorMatrix type="matrix" values="0 0 0 0 0.791765 0 0 0 0 0.67451 0 0 0 0 0.980392 0 0 0 1 0"/>
<feBlend mode="normal" in2="effect2_dropShadow_1822_6159" result="effect3_dropShadow_1822_6159"/>
<feColorMatrix in="SourceAlpha" type="matrix" values="0 0 0 0 0 0 0 0 0 0 0 0 0 0 0 0 0 0 127 0" result="hardAlpha"/>
<feOffset dx="-5" dy="-5"/>
<feComposite in2="hardAlpha" operator="out"/>
<feColorMatrix type="matrix" values="0 0 0 0 0.791765 0 0 0 0 0.67451 0 0 0 0 0.980392 0 0 0 1 0"/>
<feBlend mode="normal" in2="effect3_dropShadow_1822_6159" result="effect4_dropShadow_1822_6159"/>
<feColorMatrix in="SourceAlpha" type="matrix" values="0 0 0 0 0 0 0 0 0 0 0 0 0 0 0 0 0 0 127 0" result="hardAlpha"/>
<feOffset dx="-6" dy="-6"/>
<feComposite in2="hardAlpha" operator="out"/>
<feColorMatrix type="matrix" values="0 0 0 0 0.791765 0 0 0 0 0.67451 0 0 0 0 0.980392 0 0 0 1 0"/>
<feBlend mode="normal" in2="effect4_dropShadow_1822_6159" result="effect5_dropShadow_1822_6159"/>
<feColorMatrix in="SourceAlpha" type="matrix" values="0 0 0 0 0 0 0 0 0 0 0 0 0 0 0 0 0 0 127 0" result="hardAlpha"/>
<feOffset dx="-7" dy="-7"/>
<feComposite in2="hardAlpha" operator="out"/>
<feColorMatrix type="matrix" values="0 0 0 0 0.791594 0 0 0 0 0.674132 0 0 0 0 0.980556 0 0 0 1 0"/>
<feBlend mode="normal" in2="effect5_dropShadow_1822_6159" result="effect6_dropShadow_1822_6159"/>
<feBlend mode="normal" in="SourceGraphic" in2="effect6_dropShadow_1822_6159" result="shape"/>
</filter>
<linearGradient id="paint0_linear_1822_6159" x1="52.7203" y1="10.5141" x2="126.597" y2="108.706" gradientUnits="userSpaceOnUse">
<stop stop-color="#DEC9FF"/>
<stop offset="1" stop-color="#DFCBFF"/>
</linearGradient>
<linearGradient id="paint1_linear_1822_6159" x1="109.096" y1="120.024" x2="95.2146" y2="89.2595" gradientUnits="userSpaceOnUse">
<stop stop-color="#F1E9FF"/>
<stop offset="1" stop-color="#F1E9FF" stop-opacity="0"/>
</linearGradient>
<radialGradient id="paint2_radial_1822_6159" cx="0" cy="0" r="1" gradientUnits="userSpaceOnUse" gradientTransform="translate(102.546 98.8263) rotate(-174.089) scale(27.9421 25.4592)">
<stop offset="0.296875" stop-color="#6230B2"/>
<stop offset="1" stop-color="#6230B2" stop-opacity="0"/>
</radialGradient>
<linearGradient id="paint3_linear_1822_6159" x1="74.1653" y1="11.4724" x2="116.902" y2="102.457" gradientUnits="userSpaceOnUse">
<stop stop-color="#3C019A"/>
<stop offset="0.0123967" stop-color="#6423CC"/>
<stop offset="0.0557071" stop-color="#A16AF9"/>
<stop offset="0.0939178" stop-color="#CEAFFF"/>
<stop offset="0.111384" stop-color="#CEAFFF"/>
<stop offset="0.150035" stop-color="#A16AF9"/>
<stop offset="0.189559" stop-color="#8C54E5"/>
<stop offset="0.203799" stop-color="#6423CC"/>
<stop offset="0.214842" stop-color="#A16AF9"/>
<stop offset="0.249694" stop-color="#CEAFFF"/>
<stop offset="0.264002" stop-color="#CEAFFF"/>
<stop offset="0.354562" stop-color="#A16AF9"/>
<stop offset="0.400427" stop-color="#7F36F4"/>
<stop offset="0.45465" stop-color="#3E029E"/>
<stop offset="0.798237" stop-color="#3C019A"/>
<stop offset="0.969729" stop-color="#5F19D0"/>
<stop offset="1" stop-color="#6B25DA"/>
</linearGradient>
<linearGradient id="paint4_linear_1822_6159" x1="49.803" y1="10.4299" x2="49.9368" y2="113.217" gradientUnits="userSpaceOnUse">
<stop stop-color="#8F49FF"/>
<stop offset="1" stop-color="#4D11AF"/>
</linearGradient>
<linearGradient id="paint5_linear_1822_6159" x1="76.8244" y1="26.0792" x2="46.0449" y2="79.2254" gradientUnits="userSpaceOnUse">
<stop stop-color="#D2B7FF"/>
<stop offset="1" stop-color="#D3B7FF" stop-opacity="0"/>
</linearGradient>
<linearGradient id="paint6_linear_1822_6159" x1="60.7172" y1="6.74645" x2="125.459" y2="111.009" gradientUnits="userSpaceOnUse">
<stop stop-color="#C19AFF"/>
<stop offset="0.104179" stop-color="#FEFDFF"/>
<stop offset="0.377376" stop-color="#FEFDFF"/>
<stop offset="0.560167" stop-color="#6419DC"/>
<stop offset="0.801352" stop-color="white"/>
<stop offset="1" stop-color="#F1E8FF"/>
</linearGradient>
<linearGradient id="paint7_linear_1822_6159" x1="60.6811" y1="38.7963" x2="84.8116" y2="97.3588" gradientUnits="userSpaceOnUse">
<stop offset="0.369574" stop-color="#AC87E7"/>
<stop offset="0.397182" stop-color="#E8DAFF"/>
<stop offset="0.433923" stop-color="#AC87E7"/>
<stop offset="0.492357" stop-color="#AC87E7"/>
<stop offset="0.52007" stop-color="#E8DAFF"/>
<stop offset="0.551607" stop-color="#AC87E7"/>
</linearGradient>
<linearGradient id="paint8_linear_1822_6159" x1="60.6811" y1="38.7963" x2="84.8116" y2="97.3588" gradientUnits="userSpaceOnUse">
<stop offset="0.369574" stop-color="#AC87E7"/>
<stop offset="0.397182" stop-color="#E8DAFF"/>
<stop offset="0.433923" stop-color="#AC87E7"/>
<stop offset="0.492357" stop-color="#AC87E7"/>
<stop offset="0.52007" stop-color="#E8DAFF"/>
<stop offset="0.551607" stop-color="#AC87E7"/>
</linearGradient>
<linearGradient id="paint9_linear_1822_6159" x1="60.6811" y1="55.2202" x2="84.8117" y2="113.783" gradientUnits="userSpaceOnUse">
<stop offset="0.369574" stop-color="#AC87E7"/>
<stop offset="0.397182" stop-color="#E8DAFF"/>
<stop offset="0.433923" stop-color="#AC87E7"/>
<stop offset="0.492357" stop-color="#AC87E7"/>
<stop offset="0.52007" stop-color="#E8DAFF"/>
<stop offset="0.551607" stop-color="#AC87E7"/>
</linearGradient>
<linearGradient id="paint10_linear_1822_6159" x1="60.6811" y1="55.2202" x2="84.8117" y2="113.783" gradientUnits="userSpaceOnUse">
<stop offset="0.369574" stop-color="#AC87E7"/>
<stop offset="0.397182" stop-color="#E8DAFF"/>
<stop offset="0.433923" stop-color="#AC87E7"/>
<stop offset="0.492357" stop-color="#AC87E7"/>
<stop offset="0.52007" stop-color="#E8DAFF"/>
<stop offset="0.551607" stop-color="#AC87E7"/>
</linearGradient>
<linearGradient id="paint11_linear_1822_6159" x1="32.6154" y1="37.4158" x2="64.7669" y2="104.224" gradientUnits="userSpaceOnUse">
<stop stop-color="#8F52F0"/>
<stop offset="0.424235" stop-color="#CEAFFF" stop-opacity="0.42"/>
<stop offset="0.62589" stop-color="#7E2FFE" stop-opacity="0.28"/>
<stop offset="1" stop-color="#4400B2"/>
</linearGradient>
<linearGradient id="paint12_linear_1822_6159" x1="49.2601" y1="2.89733" x2="21.9591" y2="61.0632" gradientUnits="userSpaceOnUse">
<stop stop-color="#A46FF9"/>
<stop offset="0.104179" stop-color="#FEFDFF"/>
<stop offset="0.377376" stop-color="#FEFDFF"/>
<stop offset="0.560167" stop-color="#7538D7"/>
<stop offset="1" stop-color="#EBE3F7"/>
</linearGradient>
<linearGradient id="paint13_linear_1822_6159" x1="52.7631" y1="80.1742" x2="37.4926" y2="59.1522" gradientUnits="userSpaceOnUse">
<stop stop-color="#E2D0FF"/>
<stop offset="1" stop-color="white"/>
</linearGradient>
<radialGradient id="paint14_radial_1822_6159" cx="0" cy="0" r="1" gradientUnits="userSpaceOnUse" gradientTransform="translate(75.5438 126.783) rotate(-102.146) scale(43.822 37.8437)">
<stop stop-color="#7D2CFF"/>
<stop offset="1" stop-color="#7D2CFF" stop-opacity="0"/>
</radialGradient>
</defs>
</svg>
