<svg width="442" height="288" viewBox="0 0 442 288" fill="none" xmlns="http://www.w3.org/2000/svg">
<path d="M221 120C190.347 120 165.5 95.1526 165.5 64.5C165.5 33.8529 190.347 9 221 9C251.653 9 276.5 33.8529 276.5 64.5C276.5 95.1526 251.653 120 221 120ZM221 36.75C219.528 36.75 218.116 37.3347 217.076 38.3756C216.035 39.4164 215.45 40.8281 215.45 42.3V70.05C215.45 71.5219 216.035 72.9336 217.076 73.9744C218.116 75.0153 219.528 75.6 221 75.6C222.472 75.6 223.884 75.0153 224.924 73.9744C225.965 72.9336 226.55 71.5219 226.55 70.05V42.3C226.55 40.8281 225.965 39.4164 224.924 38.3756C223.884 37.3347 222.472 36.75 221 36.75ZM221 92.25C222.472 92.25 223.884 91.6653 224.924 90.6245C225.965 89.5836 226.55 88.172 226.55 86.7C226.55 85.2281 225.965 83.8164 224.924 82.7756C223.884 81.7347 222.472 81.15 221 81.15C219.528 81.15 218.116 81.7347 217.076 82.7756C216.035 83.8164 215.45 85.2281 215.45 86.7C215.45 88.172 216.035 89.5836 217.076 90.6245C218.116 91.6653 219.528 92.25 221 92.25Z" fill="#FF244A"/>
<path d="M106.075 186.17C106.075 193.25 101.695 198.08 93.8347 200.24L92.3947 197.36C98.2147 195.8 101.485 192.8 102.085 189.14H93.8347V186.17H106.075ZM97.0447 211.19V200.75H114.715V211.19H97.0447ZM100.675 208.28H111.055V203.69H100.675V208.28ZM106.225 194.06V191.06H110.995V184.61H114.715V199.67H110.995V194.06H106.225ZM123.385 186.17H126.955V189.32C126.955 192.29 128.455 195.23 131.995 196.7L130.045 199.52C127.765 198.59 126.175 196.94 125.245 194.9C124.255 197.24 122.575 199.16 120.085 200.24L118.135 197.36C121.825 195.71 123.385 192.35 123.385 189.32V186.17ZM122.905 205.1V202.16H141.355V211.52H137.635V205.1H122.905ZM132.115 200.78V185.06H135.595V191.21H137.815V184.64H141.355V200.93H137.815V194.21H135.595V200.78H132.115ZM170.35 184.61H174.07V198.14H170.35V196.07H164.26V193.22H170.35V190.85H164.56C162.91 194.9 159.1 197.45 153.19 198.74L151.96 195.77C158.11 194.51 160.93 191.87 161.38 188.63H153.46V185.66H165.49C165.49 186.5 165.43 187.28 165.31 188.03H170.35V184.61ZM156.37 202.07V199.16H174.07V206.48H160.12V208.34H174.64V211.25H156.4V203.72H170.35V202.07H156.37ZM178.991 187.31H192.821V189.44C192.821 192.02 192.821 195.26 192.071 199.79L188.441 199.49C189.071 195.59 189.161 192.65 189.161 190.28H178.991V187.31ZM177.611 203.03C179.111 203.03 180.791 203 182.531 202.97V195.02H186.191V202.88C188.831 202.76 191.501 202.58 193.961 202.28L194.141 204.98C188.711 205.91 182.651 206.03 177.971 206.03L177.611 203.03ZM195.221 211.49V184.61H198.911V195.47H202.601V198.53H198.911V211.49H195.221ZM221.352 184.58H225.102V194.96H228.882V198.02H225.102V211.49H221.352V184.58ZM203.862 203.99C210.162 200.75 213.522 196.4 214.212 190.37H205.332V187.37H217.962C217.962 195.41 214.842 202.31 205.932 206.81L203.862 203.99ZM240.176 200.39H243.656V203.09H246.506V200.39H249.956V208.55C252.956 207.17 254.216 204.65 254.216 202.19V200.15H257.876V202.19C257.876 204.98 259.196 207.59 262.496 208.67L260.636 211.46C258.356 210.62 256.886 209.09 256.016 207.17C255.146 209.06 253.646 210.59 251.456 211.46L249.956 209.12V211.22H240.176V200.39ZM237.566 191.96C237.566 188.24 240.596 185.63 244.646 185.63C248.096 185.63 250.826 187.55 251.546 190.43H255.956V184.64H259.706V198.86H255.956V193.43H251.546C250.856 196.37 248.126 198.32 244.646 198.32C240.596 198.32 237.566 195.68 237.566 191.96ZM241.136 191.96C241.136 194 242.576 195.26 244.646 195.26C246.686 195.26 248.186 194 248.186 191.96C248.186 189.95 246.686 188.69 244.646 188.69C242.576 188.69 241.136 189.95 241.136 191.96ZM243.656 208.4H246.506V205.79H243.656V208.4ZM266.307 200.72H269.967V203.06H280.977V200.72H284.637V211.22H266.307V200.72ZM263.427 199.34V196.4H287.727V199.34H263.427ZM264.657 192.26C270.597 191.54 273.657 188.57 273.657 185.75V184.91H277.497V185.75C277.497 188.54 280.587 191.54 286.527 192.26L285.177 195.14C280.647 194.57 277.287 192.65 275.577 190.04C273.867 192.65 270.537 194.57 265.977 195.14L264.657 192.26ZM269.967 208.31H280.977V205.88H269.967V208.31ZM308.368 184.61H312.058V211.49H308.368V184.61ZM291.088 204.86V187.19H294.778V201.68C298.378 201.62 302.218 201.32 306.178 200.51L306.598 203.6C302.008 204.56 297.568 204.86 293.458 204.86H291.088ZM333.178 184.58H336.898V194.6H340.858V197.66H336.898V211.55H333.178V184.58ZM316.948 205.07V187.13H329.458V190.1H320.638V201.98C324.538 201.95 327.748 201.77 331.288 201.14L331.648 204.2C327.568 204.95 323.908 205.07 319.198 205.07H316.948ZM344.669 205.82C345.839 205.82 346.679 206.66 346.679 207.83C346.679 209 345.839 209.87 344.669 209.87C343.469 209.87 342.629 209 342.629 207.83C342.629 206.66 343.469 205.82 344.669 205.82Z" fill="#232323"/>
<path d="M118.102 241.584V252.576H115.438V241.584H118.102ZM103.174 249.936V244.968H101.326V242.904H112.822V244.968H110.974V249.624C111.646 249.576 112.558 249.488 113.71 249.36L113.854 251.232C111.966 251.536 109.966 251.744 107.854 251.856C105.742 251.968 103.47 252.032 101.038 252.048L100.774 249.936H103.174ZM103.846 253.488H118.102V259.008H106.486V260.688H118.774V262.752H103.894V257.112H115.486V255.528H103.846V253.488ZM108.43 249.792V244.968H105.718V249.888L108.43 249.792ZM139.174 241.536V262.968H136.558V251.424H132.574V249.312H136.558V241.536H139.174ZM122.35 243.408H132.214V245.568H124.966V249.36H131.422V251.448H124.966V255.888C126.742 255.872 128.262 255.824 129.526 255.744C130.79 255.664 132.062 255.52 133.342 255.312L133.606 257.424C132.15 257.664 130.702 257.824 129.262 257.904C127.838 257.984 126.094 258.024 124.03 258.024H122.35V243.408ZM161.711 251.304V253.224H142.367V251.304H161.711ZM144.575 254.544H159.359V259.416H147.239V260.904H159.983V262.728H144.623V257.712H156.767V256.368H144.575V254.544ZM144.767 242.04H159.287V246.864H147.383V248.232H159.695V250.08H144.815V245.16H156.695V243.864H144.767V242.04ZM185.507 241.536V249.648H188.747V251.832H185.507V262.968H182.843V241.536H185.507ZM169.739 243.6H179.699V245.712H172.379V255.552C174.171 255.536 175.739 255.48 177.083 255.384C178.443 255.288 179.811 255.112 181.187 254.856L181.451 257.064C179.947 257.336 178.443 257.52 176.939 257.616C175.451 257.712 173.635 257.76 171.491 257.76H169.739V243.6ZM197.843 243.312V246.672C197.843 248 198.059 249.288 198.491 250.536C198.923 251.784 199.547 252.896 200.363 253.872C201.195 254.832 202.171 255.56 203.291 256.056L201.755 258.192C200.539 257.632 199.491 256.816 198.611 255.744C197.731 254.656 197.043 253.4 196.547 251.976C196.051 253.512 195.347 254.864 194.435 256.032C193.539 257.184 192.459 258.056 191.195 258.648L189.611 256.464C190.747 255.952 191.731 255.192 192.563 254.184C193.411 253.176 194.059 252.024 194.507 250.728C194.955 249.416 195.179 248.064 195.179 246.672V243.312H197.843ZM204.803 241.536H207.443V262.968H204.803V241.536ZM231.431 246.84V241.584H234.071V254.304H231.431V249H227.879V246.84H231.431ZM216.287 252C217.919 251.44 219.183 250.536 220.079 249.288C220.991 248.04 221.447 246.68 221.447 245.208V244.968H217.031V242.856H228.503V244.968H224.111V245.208C224.111 246.568 224.543 247.832 225.407 249C226.287 250.168 227.519 251.024 229.103 251.568L227.783 253.632C226.631 253.232 225.639 252.648 224.807 251.88C223.975 251.112 223.319 250.208 222.839 249.168C222.375 250.304 221.695 251.304 220.799 252.168C219.919 253.016 218.863 253.648 217.631 254.064L216.287 252ZM219.647 255.336H234.071V262.944H231.431V257.472H219.647V255.336ZM241.824 251.88V249.144C241.024 248.792 240.408 248.352 239.976 247.824C239.544 247.28 239.328 246.664 239.328 245.976C239.328 244.712 240.016 243.72 241.392 243C242.768 242.28 244.632 241.92 246.984 241.92C249.336 241.92 251.2 242.28 252.576 243C253.952 243.72 254.64 244.712 254.64 245.976C254.64 246.664 254.416 247.28 253.968 247.824C253.536 248.368 252.912 248.816 252.096 249.168V251.88H256.632V253.944H237.336V251.88H241.824ZM239.568 259.08C239.568 257.864 240.216 256.92 241.512 256.248C242.824 255.576 244.64 255.24 246.96 255.24C249.264 255.24 251.064 255.576 252.36 256.248C253.672 256.92 254.328 257.864 254.328 259.08C254.328 260.312 253.672 261.264 252.36 261.936C251.064 262.608 249.264 262.944 246.96 262.944C244.64 262.944 242.824 262.608 241.512 261.936C240.216 261.264 239.568 260.312 239.568 259.08ZM242.04 245.976C242.04 246.632 242.472 247.136 243.336 247.488C244.2 247.84 245.416 248.016 246.984 248.016C248.536 248.016 249.744 247.84 250.608 247.488C251.472 247.136 251.904 246.632 251.904 245.976C251.904 245.32 251.472 244.816 250.608 244.464C249.744 244.112 248.536 243.936 246.984 243.936C245.416 243.936 244.2 244.112 243.336 244.464C242.472 244.816 242.04 245.32 242.04 245.976ZM242.232 259.08C242.232 259.688 242.632 260.152 243.432 260.472C244.248 260.776 245.424 260.928 246.96 260.928C248.496 260.928 249.664 260.776 250.464 260.472C251.264 260.152 251.664 259.688 251.664 259.08C251.664 258.488 251.264 258.04 250.464 257.736C249.664 257.416 248.496 257.256 246.96 257.256C245.424 257.256 244.248 257.416 243.432 257.736C242.632 258.04 242.232 258.488 242.232 259.08ZM249.48 251.88V249.84C248.76 249.952 247.928 250.008 246.984 250.008C246.008 250.008 245.16 249.952 244.44 249.84V251.88H249.48ZM262.176 244.968V242.136H264.768V244.968H268.632V247.056H258.264V244.968H262.176ZM258.84 253.2C258.84 252.24 259.04 251.384 259.44 250.632C259.84 249.864 260.392 249.272 261.096 248.856C261.8 248.424 262.592 248.208 263.472 248.208C264.368 248.208 265.168 248.424 265.872 248.856C266.576 249.272 267.128 249.864 267.528 250.632C267.928 251.384 268.128 252.24 268.128 253.2C268.128 254.176 267.928 255.048 267.528 255.816C267.128 256.568 266.576 257.16 265.872 257.592C265.168 258.008 264.368 258.216 263.472 258.216C262.592 258.216 261.8 258.008 261.096 257.592C260.392 257.16 259.84 256.568 259.44 255.816C259.04 255.048 258.84 254.176 258.84 253.2ZM261.168 253.2C261.168 254.048 261.376 254.728 261.792 255.24C262.224 255.752 262.784 256.008 263.472 256.008C264.16 256.008 264.72 255.752 265.152 255.24C265.584 254.728 265.8 254.048 265.8 253.2C265.8 252.352 265.584 251.672 265.152 251.16C264.72 250.648 264.16 250.392 263.472 250.392C262.8 250.392 262.248 250.648 261.816 251.16C261.384 251.672 261.168 252.352 261.168 253.2ZM269.496 242.016H271.968V250.368H274.032V241.56H276.528V262.92H274.032V252.504H271.968V261.96H269.496V242.016ZM298.609 253.512V255.648H290.209V262.968H287.569V255.648H279.289V253.512H298.609ZM280.297 249.984C281.657 249.808 282.865 249.472 283.921 248.976C284.977 248.464 285.809 247.848 286.417 247.128C287.025 246.408 287.361 245.656 287.425 244.872H281.041V242.76H296.809V244.872H290.473C290.537 245.656 290.873 246.408 291.481 247.128C292.089 247.848 292.921 248.464 293.977 248.976C295.033 249.472 296.241 249.808 297.601 249.984L296.617 252.096C294.841 251.84 293.281 251.312 291.937 250.512C290.593 249.712 289.593 248.728 288.937 247.56C288.297 248.712 287.305 249.696 285.961 250.512C284.617 251.312 283.057 251.84 281.281 252.096L280.297 249.984ZM311.641 248.928V241.968H314.113V261.912H311.641V251.088H308.665V248.928H311.641ZM299.881 256.56C301.337 255.696 302.441 254.416 303.193 252.72C303.945 251.024 304.321 249.2 304.321 247.248V243.504H306.865V247.152C306.865 249.008 307.201 250.736 307.873 252.336C308.545 253.92 309.561 255.152 310.921 256.032L309.457 258.072C307.697 257 306.417 255.176 305.617 252.6C305.233 253.912 304.697 255.08 304.009 256.104C303.321 257.128 302.489 257.944 301.513 258.552L299.881 256.56ZM315.985 241.56H318.505V262.92H315.985V241.56ZM325.682 258.192V252.744C324.818 252.248 324.154 251.624 323.69 250.872C323.226 250.12 322.994 249.28 322.994 248.352C322.994 247.232 323.33 246.248 324.002 245.4C324.69 244.536 325.626 243.872 326.81 243.408C328.01 242.944 329.37 242.712 330.89 242.712C332.41 242.712 333.77 242.944 334.97 243.408C336.17 243.872 337.106 244.536 337.778 245.4C338.45 246.248 338.786 247.232 338.786 248.352C338.786 249.28 338.554 250.12 338.09 250.872C337.626 251.624 336.97 252.248 336.122 252.744V258.192H340.586V260.328H321.242V258.192H325.682ZM325.586 248.352C325.586 249.456 326.066 250.328 327.026 250.968C328.002 251.608 329.29 251.928 330.89 251.928C332.49 251.928 333.77 251.608 334.73 250.968C335.706 250.328 336.194 249.456 336.194 248.352C336.194 247.264 335.706 246.4 334.73 245.76C333.754 245.104 332.474 244.776 330.89 244.776C329.306 244.776 328.026 245.104 327.05 245.76C326.074 246.4 325.586 247.264 325.586 248.352ZM333.482 258.192V253.728C332.65 253.904 331.786 253.992 330.89 253.992C330.01 253.992 329.154 253.904 328.322 253.728V258.192H333.482Z" fill="#9C9CA1"/>
</svg>
