<svg width="77" height="77" viewBox="0 0 77 77" fill="none" xmlns="http://www.w3.org/2000/svg">
<path d="M18.7805 30.9878C18.7805 24.5052 24.0357 19.25 30.5183 19.25H46.0122C52.4948 19.25 57.75 24.5052 57.75 30.9878V46.4817C57.75 52.9643 52.4948 58.2195 46.0122 58.2195H30.5183C24.0357 58.2195 18.7805 52.9643 18.7805 46.4817V30.9878Z" fill="#FF244A"/>
<g filter="url(#filter0_b_1581_1559)">
<path d="M0 7.04268C0 3.15312 3.15312 0 7.04268 0H28.1707C32.0603 0 35.2134 3.15312 35.2134 7.04268V28.1707C35.2134 32.0603 32.0603 35.2134 28.1707 35.2134H7.04268C3.15312 35.2134 0 32.0603 0 28.1707V7.04268Z" fill="url(#paint0_linear_1581_1559)" fill-opacity="0.3"/>
</g>
<g filter="url(#filter1_b_1581_1559)">
<path fill-rule="evenodd" clip-rule="evenodd" d="M28.1707 0.234756H7.04268C3.28277 0.234756 0.234756 3.28277 0.234756 7.04268V28.1707C0.234756 31.9306 3.28277 34.9787 7.04268 34.9787H28.1707C31.9306 34.9787 34.9787 31.9306 34.9787 28.1707V7.04268C34.9787 3.28277 31.9306 0.234756 28.1707 0.234756ZM7.04268 0C3.15312 0 0 3.15312 0 7.04268V28.1707C0 32.0603 3.15312 35.2134 7.04268 35.2134H28.1707C32.0603 35.2134 35.2134 32.0603 35.2134 28.1707V7.04268C35.2134 3.15312 32.0603 0 28.1707 0H7.04268Z" fill="url(#paint1_linear_1581_1559)"/>
<path fill-rule="evenodd" clip-rule="evenodd" d="M28.1707 0.234756H7.04268C3.28277 0.234756 0.234756 3.28277 0.234756 7.04268V28.1707C0.234756 31.9306 3.28277 34.9787 7.04268 34.9787H28.1707C31.9306 34.9787 34.9787 31.9306 34.9787 28.1707V7.04268C34.9787 3.28277 31.9306 0.234756 28.1707 0.234756ZM7.04268 0C3.15312 0 0 3.15312 0 7.04268V28.1707C0 32.0603 3.15312 35.2134 7.04268 35.2134H28.1707C32.0603 35.2134 35.2134 32.0603 35.2134 28.1707V7.04268C35.2134 3.15312 32.0603 0 28.1707 0H7.04268Z" fill="url(#paint2_radial_1581_1559)"/>
</g>
<g filter="url(#filter2_b_1581_1559)">
<path d="M41.7866 7.04268C41.7866 3.15312 44.9397 0 48.8293 0H69.9574C73.8469 0 77 3.15312 77 7.04268V28.1707C77 32.0603 73.8469 35.2134 69.9574 35.2134H48.8293C44.9397 35.2134 41.7866 32.0603 41.7866 28.1707V7.04268Z" fill="url(#paint3_linear_1581_1559)" fill-opacity="0.3"/>
</g>
<g filter="url(#filter3_b_1581_1559)">
<path fill-rule="evenodd" clip-rule="evenodd" d="M69.9574 0.234756H48.8293C45.0694 0.234756 42.0214 3.28277 42.0214 7.04268V28.1707C42.0214 31.9306 45.0694 34.9787 48.8293 34.9787H69.9574C73.7173 34.9787 76.7653 31.9306 76.7653 28.1707V7.04268C76.7653 3.28277 73.7173 0.234756 69.9574 0.234756ZM48.8293 0C44.9397 0 41.7866 3.15312 41.7866 7.04268V28.1707C41.7866 32.0603 44.9397 35.2134 48.8293 35.2134H69.9574C73.8469 35.2134 77 32.0603 77 28.1707V7.04268C77 3.15312 73.8469 0 69.9574 0H48.8293Z" fill="url(#paint4_linear_1581_1559)"/>
<path fill-rule="evenodd" clip-rule="evenodd" d="M69.9574 0.234756H48.8293C45.0694 0.234756 42.0214 3.28277 42.0214 7.04268V28.1707C42.0214 31.9306 45.0694 34.9787 48.8293 34.9787H69.9574C73.7173 34.9787 76.7653 31.9306 76.7653 28.1707V7.04268C76.7653 3.28277 73.7173 0.234756 69.9574 0.234756ZM48.8293 0C44.9397 0 41.7866 3.15312 41.7866 7.04268V28.1707C41.7866 32.0603 44.9397 35.2134 48.8293 35.2134H69.9574C73.8469 35.2134 77 32.0603 77 28.1707V7.04268C77 3.15312 73.8469 0 69.9574 0H48.8293Z" fill="url(#paint5_radial_1581_1559)"/>
</g>
<g filter="url(#filter4_b_1581_1559)">
<path d="M41.7866 48.8293C41.7866 44.9397 44.9397 41.7866 48.8293 41.7866H69.9574C73.8469 41.7866 77 44.9397 77 48.8293V69.9574C77 73.8469 73.8469 77 69.9574 77H48.8293C44.9397 77 41.7866 73.8469 41.7866 69.9574V48.8293Z" fill="url(#paint6_linear_1581_1559)" fill-opacity="0.3"/>
</g>
<g filter="url(#filter5_b_1581_1559)">
<path fill-rule="evenodd" clip-rule="evenodd" d="M69.9574 42.0214H48.8293C45.0694 42.0214 42.0214 45.0694 42.0214 48.8293V69.9574C42.0214 73.7173 45.0694 76.7653 48.8293 76.7653H69.9574C73.7173 76.7653 76.7653 73.7173 76.7653 69.9574V48.8293C76.7653 45.0694 73.7173 42.0214 69.9574 42.0214ZM48.8293 41.7866C44.9397 41.7866 41.7866 44.9397 41.7866 48.8293V69.9574C41.7866 73.8469 44.9397 77 48.8293 77H69.9574C73.8469 77 77 73.8469 77 69.9574V48.8293C77 44.9397 73.8469 41.7866 69.9574 41.7866H48.8293Z" fill="url(#paint7_linear_1581_1559)"/>
<path fill-rule="evenodd" clip-rule="evenodd" d="M69.9574 42.0214H48.8293C45.0694 42.0214 42.0214 45.0694 42.0214 48.8293V69.9574C42.0214 73.7173 45.0694 76.7653 48.8293 76.7653H69.9574C73.7173 76.7653 76.7653 73.7173 76.7653 69.9574V48.8293C76.7653 45.0694 73.7173 42.0214 69.9574 42.0214ZM48.8293 41.7866C44.9397 41.7866 41.7866 44.9397 41.7866 48.8293V69.9574C41.7866 73.8469 44.9397 77 48.8293 77H69.9574C73.8469 77 77 73.8469 77 69.9574V48.8293C77 44.9397 73.8469 41.7866 69.9574 41.7866H48.8293Z" fill="url(#paint8_radial_1581_1559)"/>
</g>
<g filter="url(#filter6_b_1581_1559)">
<path d="M0 48.8293C0 44.9397 3.15312 41.7866 7.04268 41.7866H28.1707C32.0603 41.7866 35.2134 44.9397 35.2134 48.8293V69.9574C35.2134 73.8469 32.0603 77 28.1707 77H7.04268C3.15312 77 0 73.8469 0 69.9574V48.8293Z" fill="url(#paint9_linear_1581_1559)" fill-opacity="0.3"/>
</g>
<g filter="url(#filter7_b_1581_1559)">
<path fill-rule="evenodd" clip-rule="evenodd" d="M28.1707 42.0214H7.04268C3.28277 42.0214 0.234756 45.0694 0.234756 48.8293V69.9574C0.234756 73.7173 3.28277 76.7653 7.04268 76.7653H28.1707C31.9306 76.7653 34.9787 73.7173 34.9787 69.9574V48.8293C34.9787 45.0694 31.9306 42.0214 28.1707 42.0214ZM7.04268 41.7866C3.15312 41.7866 0 44.9397 0 48.8293V69.9574C0 73.8469 3.15312 77 7.04268 77H28.1707C32.0603 77 35.2134 73.8469 35.2134 69.9574V48.8293C35.2134 44.9397 32.0603 41.7866 28.1707 41.7866H7.04268Z" fill="url(#paint10_linear_1581_1559)"/>
<path fill-rule="evenodd" clip-rule="evenodd" d="M28.1707 42.0214H7.04268C3.28277 42.0214 0.234756 45.0694 0.234756 48.8293V69.9574C0.234756 73.7173 3.28277 76.7653 7.04268 76.7653H28.1707C31.9306 76.7653 34.9787 73.7173 34.9787 69.9574V48.8293C34.9787 45.0694 31.9306 42.0214 28.1707 42.0214ZM7.04268 41.7866C3.15312 41.7866 0 44.9397 0 48.8293V69.9574C0 73.8469 3.15312 77 7.04268 77H28.1707C32.0603 77 35.2134 73.8469 35.2134 69.9574V48.8293C35.2134 44.9397 32.0603 41.7866 28.1707 41.7866H7.04268Z" fill="url(#paint11_radial_1581_1559)"/>
</g>
<defs>
<filter id="filter0_b_1581_1559" x="-30" y="-30" width="95.2134" height="95.2134" filterUnits="userSpaceOnUse" color-interpolation-filters="sRGB">
<feFlood flood-opacity="0" result="BackgroundImageFix"/>
<feGaussianBlur in="BackgroundImageFix" stdDeviation="15"/>
<feComposite in2="SourceAlpha" operator="in" result="effect1_backgroundBlur_1581_1559"/>
<feBlend mode="normal" in="SourceGraphic" in2="effect1_backgroundBlur_1581_1559" result="shape"/>
</filter>
<filter id="filter1_b_1581_1559" x="-30" y="-30" width="95.2134" height="95.2134" filterUnits="userSpaceOnUse" color-interpolation-filters="sRGB">
<feFlood flood-opacity="0" result="BackgroundImageFix"/>
<feGaussianBlur in="BackgroundImageFix" stdDeviation="15"/>
<feComposite in2="SourceAlpha" operator="in" result="effect1_backgroundBlur_1581_1559"/>
<feBlend mode="normal" in="SourceGraphic" in2="effect1_backgroundBlur_1581_1559" result="shape"/>
</filter>
<filter id="filter2_b_1581_1559" x="11.7866" y="-30" width="95.2134" height="95.2134" filterUnits="userSpaceOnUse" color-interpolation-filters="sRGB">
<feFlood flood-opacity="0" result="BackgroundImageFix"/>
<feGaussianBlur in="BackgroundImageFix" stdDeviation="15"/>
<feComposite in2="SourceAlpha" operator="in" result="effect1_backgroundBlur_1581_1559"/>
<feBlend mode="normal" in="SourceGraphic" in2="effect1_backgroundBlur_1581_1559" result="shape"/>
</filter>
<filter id="filter3_b_1581_1559" x="11.7866" y="-30" width="95.2134" height="95.2134" filterUnits="userSpaceOnUse" color-interpolation-filters="sRGB">
<feFlood flood-opacity="0" result="BackgroundImageFix"/>
<feGaussianBlur in="BackgroundImageFix" stdDeviation="15"/>
<feComposite in2="SourceAlpha" operator="in" result="effect1_backgroundBlur_1581_1559"/>
<feBlend mode="normal" in="SourceGraphic" in2="effect1_backgroundBlur_1581_1559" result="shape"/>
</filter>
<filter id="filter4_b_1581_1559" x="11.7866" y="11.7866" width="95.2134" height="95.2134" filterUnits="userSpaceOnUse" color-interpolation-filters="sRGB">
<feFlood flood-opacity="0" result="BackgroundImageFix"/>
<feGaussianBlur in="BackgroundImageFix" stdDeviation="15"/>
<feComposite in2="SourceAlpha" operator="in" result="effect1_backgroundBlur_1581_1559"/>
<feBlend mode="normal" in="SourceGraphic" in2="effect1_backgroundBlur_1581_1559" result="shape"/>
</filter>
<filter id="filter5_b_1581_1559" x="11.7866" y="11.7866" width="95.2134" height="95.2134" filterUnits="userSpaceOnUse" color-interpolation-filters="sRGB">
<feFlood flood-opacity="0" result="BackgroundImageFix"/>
<feGaussianBlur in="BackgroundImageFix" stdDeviation="15"/>
<feComposite in2="SourceAlpha" operator="in" result="effect1_backgroundBlur_1581_1559"/>
<feBlend mode="normal" in="SourceGraphic" in2="effect1_backgroundBlur_1581_1559" result="shape"/>
</filter>
<filter id="filter6_b_1581_1559" x="-30" y="11.7866" width="95.2134" height="95.2134" filterUnits="userSpaceOnUse" color-interpolation-filters="sRGB">
<feFlood flood-opacity="0" result="BackgroundImageFix"/>
<feGaussianBlur in="BackgroundImageFix" stdDeviation="15"/>
<feComposite in2="SourceAlpha" operator="in" result="effect1_backgroundBlur_1581_1559"/>
<feBlend mode="normal" in="SourceGraphic" in2="effect1_backgroundBlur_1581_1559" result="shape"/>
</filter>
<filter id="filter7_b_1581_1559" x="-30" y="11.7866" width="95.2134" height="95.2134" filterUnits="userSpaceOnUse" color-interpolation-filters="sRGB">
<feFlood flood-opacity="0" result="BackgroundImageFix"/>
<feGaussianBlur in="BackgroundImageFix" stdDeviation="15"/>
<feComposite in2="SourceAlpha" operator="in" result="effect1_backgroundBlur_1581_1559"/>
<feBlend mode="normal" in="SourceGraphic" in2="effect1_backgroundBlur_1581_1559" result="shape"/>
</filter>
<linearGradient id="paint0_linear_1581_1559" x1="3.76822" y1="3.24886" x2="41.7765" y2="22.929" gradientUnits="userSpaceOnUse">
<stop stop-color="#FF244A" stop-opacity="0.9"/>
<stop offset="0.447036" stop-color="#FF244A" stop-opacity="0.955296"/>
<stop offset="1" stop-color="#FF244A" stop-opacity="0.9"/>
</linearGradient>
<linearGradient id="paint1_linear_1581_1559" x1="5.06761" y1="-1.25762" x2="38.0743" y2="18.0138" gradientUnits="userSpaceOnUse">
<stop offset="0.188941" stop-color="#FFBBC7"/>
</linearGradient>
<radialGradient id="paint2_radial_1581_1559" cx="0" cy="0" r="1" gradientUnits="userSpaceOnUse" gradientTransform="translate(5.26252 34.0606) rotate(-50.9773) scale(27.6541 45.2176)">
<stop stop-color="white"/>
<stop offset="1" stop-color="white" stop-opacity="0"/>
</radialGradient>
<linearGradient id="paint3_linear_1581_1559" x1="45.5548" y1="3.24886" x2="83.5631" y2="22.929" gradientUnits="userSpaceOnUse">
<stop stop-color="#FF244A" stop-opacity="0.9"/>
<stop offset="0.447036" stop-color="#FF244A" stop-opacity="0.955296"/>
<stop offset="1" stop-color="#FF244A" stop-opacity="0.9"/>
</linearGradient>
<linearGradient id="paint4_linear_1581_1559" x1="46.8542" y1="-1.25762" x2="79.8609" y2="18.0138" gradientUnits="userSpaceOnUse">
<stop offset="0.188941" stop-color="#FFBBC7"/>
</linearGradient>
<radialGradient id="paint5_radial_1581_1559" cx="0" cy="0" r="1" gradientUnits="userSpaceOnUse" gradientTransform="translate(47.0491 34.0606) rotate(-50.9773) scale(27.6541 45.2176)">
<stop stop-color="white"/>
<stop offset="1" stop-color="white" stop-opacity="0"/>
</radialGradient>
<linearGradient id="paint6_linear_1581_1559" x1="45.5548" y1="45.0355" x2="83.5631" y2="64.7157" gradientUnits="userSpaceOnUse">
<stop stop-color="#FF244A" stop-opacity="0.9"/>
<stop offset="0.447036" stop-color="#FF244A" stop-opacity="0.955296"/>
<stop offset="1" stop-color="#FF244A" stop-opacity="0.9"/>
</linearGradient>
<linearGradient id="paint7_linear_1581_1559" x1="46.8542" y1="40.529" x2="79.8609" y2="59.8004" gradientUnits="userSpaceOnUse">
<stop offset="0.188941" stop-color="#FFBBC7"/>
</linearGradient>
<radialGradient id="paint8_radial_1581_1559" cx="0" cy="0" r="1" gradientUnits="userSpaceOnUse" gradientTransform="translate(47.0491 75.8472) rotate(-50.9773) scale(27.6541 45.2176)">
<stop stop-color="white"/>
<stop offset="1" stop-color="white" stop-opacity="0"/>
</radialGradient>
<linearGradient id="paint9_linear_1581_1559" x1="3.76822" y1="45.0355" x2="41.7765" y2="64.7157" gradientUnits="userSpaceOnUse">
<stop stop-color="#FF244A" stop-opacity="0.9"/>
<stop offset="0.447036" stop-color="#FF244A" stop-opacity="0.955296"/>
<stop offset="1" stop-color="#FF244A" stop-opacity="0.9"/>
</linearGradient>
<linearGradient id="paint10_linear_1581_1559" x1="5.06761" y1="40.529" x2="38.0743" y2="59.8004" gradientUnits="userSpaceOnUse">
<stop offset="0.188941" stop-color="#FFBBC7"/>
</linearGradient>
<radialGradient id="paint11_radial_1581_1559" cx="0" cy="0" r="1" gradientUnits="userSpaceOnUse" gradientTransform="translate(5.26252 75.8472) rotate(-50.9773) scale(27.6541 45.2176)">
<stop stop-color="white"/>
<stop offset="1" stop-color="white" stop-opacity="0"/>
</radialGradient>
</defs>
</svg>
