<svg width="334" height="94" viewBox="0 0 334 94" fill="none" xmlns="http://www.w3.org/2000/svg">
<g filter="url(#filter0_d_2348_3215)">
<rect x="10" y="6" width="314" height="74" rx="37" fill="white"/>
<rect x="10.5" y="6.5" width="313" height="73" rx="36.5" stroke="#EAEAEA"/>
<path fill-rule="evenodd" clip-rule="evenodd" d="M69.4864 32.6849C68.8301 32.0288 67.94 31.6602 67.0119 31.6602C66.0839 31.6602 65.1938 32.0288 64.5374 32.6849L63.7126 33.5109L69.4876 39.2859L70.3113 38.4611C70.6363 38.1361 70.8942 37.7502 71.0701 37.3255C71.2461 36.9008 71.3366 36.4457 71.3366 35.986C71.3366 35.5263 71.2461 35.0711 71.0701 34.6465C70.8942 34.2218 70.6363 33.8359 70.3113 33.5109L69.4864 32.6849ZM67.8368 40.9356L62.0618 35.1606L51.4568 45.7667C51.2247 45.9989 51.0626 46.2916 50.9889 46.6114L49.7884 51.8089C49.7437 52.0019 49.7488 52.203 49.8033 52.3934C49.8579 52.5839 49.96 52.7573 50.1 52.8973C50.2401 53.0374 50.4135 53.1395 50.6039 53.194C50.7943 53.2485 50.9955 53.2536 51.1884 53.2089L56.3871 52.0096C56.7065 51.9357 56.9988 51.7736 57.2306 51.5417L67.8368 40.9356Z" fill="#FF244A"/>
<path d="M118.694 31.044H120.956V53.976H118.694V31.044ZM101.352 47.398C106.214 44.486 108.528 40.586 108.918 35.854H102.392V33.93H111.284C111.284 36.166 110.972 38.298 110.27 40.3H113.91V31.616H116.146V52.832H113.91V42.198H109.438C108.086 44.85 105.928 47.19 102.73 49.088L101.352 47.398ZM130.056 32.994H132.448V36.894C132.448 41.106 134.97 45.344 138.454 46.93L137.05 48.828C134.424 47.554 132.37 44.954 131.304 41.782C130.238 45.162 128.132 47.944 125.402 49.27L123.972 47.32C127.508 45.682 130.056 41.288 130.056 36.894V32.994ZM140.56 54.028V31.018H142.926V54.028H140.56ZM149.531 32.006H165.027V33.54C165.027 35.048 165.027 36.972 164.559 39.494H167.653V41.392H146.879V39.494H162.193C162.661 37.154 162.713 35.386 162.713 33.93H149.531V32.006ZM149.297 45.396V43.524H165.079V49.478H151.715V51.87H165.651V53.768H149.375V47.684H162.739V45.396H149.297ZM176.142 32.604H188.44V34.528H183.5V35.152C183.5 38.142 185.58 40.924 189.012 42.094L187.79 43.966C185.242 43.082 183.344 41.262 182.356 39C181.368 41.47 179.366 43.42 176.714 44.382L175.44 42.536C179.002 41.314 181.134 38.35 181.134 35.178V34.528H176.142V32.604ZM178.482 47.97V46.046H193.458V54.002H191.066V47.97H178.482ZM191.066 44.85V31.07H193.458V36.998H196.76V38.974H193.458V44.85H191.066ZM203.988 32.344H206.354V34.502C206.354 37.726 208.434 40.586 211.84 41.73L210.566 43.602C208.07 42.692 206.224 40.898 205.236 38.584C204.248 41.21 202.246 43.264 199.49 44.278L198.242 42.354C201.83 41.106 203.988 38.064 203.988 34.606V32.344ZM201.934 49.608C201.934 46.852 204.872 45.24 209.656 45.24C214.414 45.24 217.326 46.852 217.326 49.608C217.326 52.39 214.414 53.95 209.656 53.95C204.872 53.95 201.934 52.39 201.934 49.608ZM204.326 49.608C204.326 51.194 206.276 52.104 209.656 52.104C212.984 52.104 214.986 51.194 214.986 49.608C214.986 48.022 212.984 47.112 209.656 47.112C206.276 47.112 204.326 48.022 204.326 49.608ZM210.046 37.726V35.75H214.856V31.07H217.222V44.59H214.856V37.726H210.046ZM236.411 31.07H238.777V40.378H242.417V42.354H238.777V54.002H236.411V31.07ZM220.915 36.582V34.658H226.531V31.356H228.949V34.658H234.435V36.582H220.915ZM222.137 43.654C222.137 40.534 224.529 38.35 227.753 38.35C231.029 38.35 233.395 40.534 233.395 43.654C233.395 46.774 231.029 48.958 227.753 48.958C224.529 48.958 222.137 46.774 222.137 43.654ZM224.399 43.654C224.399 45.656 225.803 47.008 227.753 47.008C229.703 47.008 231.133 45.656 231.133 43.654C231.133 41.678 229.703 40.3 227.753 40.3C225.803 40.3 224.399 41.678 224.399 43.654ZM260.254 31.044H262.646V53.976H260.254V31.044ZM243.978 47.918C250.062 44.98 253 40.794 253.468 35.412H245.07V33.488H255.86C255.86 40.222 253.026 46.02 245.226 49.79L243.978 47.918Z" fill="#232323"/>
</g>
<defs>
<filter id="filter0_d_2348_3215" x="0" y="0" width="334" height="94" filterUnits="userSpaceOnUse" color-interpolation-filters="sRGB">
<feFlood flood-opacity="0" result="BackgroundImageFix"/>
<feColorMatrix in="SourceAlpha" type="matrix" values="0 0 0 0 0 0 0 0 0 0 0 0 0 0 0 0 0 0 127 0" result="hardAlpha"/>
<feOffset dy="4"/>
<feGaussianBlur stdDeviation="5"/>
<feComposite in2="hardAlpha" operator="out"/>
<feColorMatrix type="matrix" values="0 0 0 0 0 0 0 0 0 0 0 0 0 0 0 0 0 0 0.25 0"/>
<feBlend mode="normal" in2="BackgroundImageFix" result="effect1_dropShadow_2348_3215"/>
<feBlend mode="normal" in="SourceGraphic" in2="effect1_dropShadow_2348_3215" result="shape"/>
</filter>
</defs>
</svg>
