<svg width="24" height="24" viewBox="0 0 24 24" fill="none" xmlns="http://www.w3.org/2000/svg">
<path fill-rule="evenodd" clip-rule="evenodd" d="M23.4017 4.77528C23.5193 4.95386 23.5718 5.16757 23.5501 5.38032C23.5284 5.59308 23.434 5.79184 23.2828 5.94305L11.8986 17.326C11.7821 17.4424 11.6368 17.5257 11.4776 17.5675L6.73591 18.8058C6.57917 18.8467 6.41447 18.8459 6.25815 18.8034C6.10182 18.761 5.95932 18.6784 5.84478 18.5639C5.73024 18.4493 5.64765 18.3068 5.60521 18.1505C5.56276 17.9942 5.56194 17.8295 5.60282 17.6727L6.84117 12.9323C6.87732 12.79 6.94552 12.6579 7.04055 12.5459L18.4668 1.12709C18.641 0.953162 18.877 0.855469 19.1232 0.855469C19.3693 0.855469 19.6053 0.953162 19.7795 1.12709L23.2828 4.62915C23.3272 4.67374 23.3671 4.7227 23.4017 4.77528ZM21.3126 5.28548L19.1232 3.09731L8.57487 13.6456L7.80089 16.609L10.7643 15.835L21.3126 5.28548Z" fill="#3A3A3C"/>
<path d="M21.1547 18.3902C21.4932 15.4973 21.6013 12.5822 21.4779 9.6722C21.4753 9.60364 21.4867 9.53526 21.5117 9.47134C21.5366 9.40742 21.5744 9.34933 21.6228 9.30069L22.8414 8.08215C22.8747 8.04866 22.9169 8.02551 22.9631 8.01546C23.0092 8.00541 23.0573 8.0089 23.1015 8.02551C23.1457 8.04212 23.1841 8.07114 23.2123 8.10909C23.2404 8.14704 23.2569 8.19229 23.2599 8.23942C23.4893 11.696 23.4022 15.1662 22.9999 18.6069C22.7076 21.1109 20.6965 23.0737 18.2037 23.3523C13.8761 23.8315 9.50882 23.8315 5.18121 23.3523C2.68964 23.0737 0.677318 21.1109 0.385066 18.6069C-0.128355 14.2175 -0.128355 9.78313 0.385066 5.39368C0.677318 2.88973 2.6884 0.926945 5.18121 0.648316C8.46578 0.284094 11.7751 0.195862 15.0744 0.384546C15.1216 0.387937 15.1669 0.404788 15.2048 0.433104C15.2428 0.461421 15.2718 0.500016 15.2885 0.54432C15.3051 0.588623 15.3088 0.636778 15.2989 0.683082C15.2891 0.729386 15.2662 0.7719 15.2329 0.805587L14.0032 2.03403C13.9551 2.08202 13.8976 2.11963 13.8343 2.14455C13.7711 2.16947 13.7034 2.18116 13.6354 2.17892C10.8823 2.08533 8.12596 2.19087 5.38801 2.4947C4.58796 2.58325 3.84113 2.93893 3.26814 3.50427C2.69516 4.06961 2.3295 4.81161 2.23021 5.6104C1.73369 9.85586 1.73369 14.1447 2.23021 18.3902C2.3295 19.189 2.69516 19.931 3.26814 20.4963C3.84113 21.0617 4.58796 21.4173 5.38801 21.5059C9.54269 21.9703 13.8422 21.9703 17.9982 21.5059C18.7982 21.4173 19.545 21.0617 20.118 20.4963C20.691 19.931 21.0554 19.189 21.1547 18.3902Z" fill="#3A3A3C"/>
</svg>
